<?xml version="1.0" standalone="no"?>
<!DOCTYPE svg PUBLIC "-//W3C//DTD SVG 1.1//EN" "http://www.w3.org/Graphics/SVG/1.1/DTD/svg11.dtd" >
<svg>
<metadata>
Created by FontForge 20090914 at Sun Oct  3 00:07:48 2021
 By www-data
Copyright 2015 Google Inc. All Rights Reserved.
</metadata>
<defs>
<font id="NotoSansDisplay-SemiBold" horiz-adv-x="0" >
  <font-face 
    font-family="Noto Sans Display SemiBold"
    font-weight="600"
    font-stretch="normal"
    units-per-em="1000"
    panose-1="2 11 5 2 4 5 4 2 2 4"
    ascent="800"
    descent="-200"
    x-height="542"
    cap-height="714"
    bbox="-623 -389 2744 1070"
    underline-thickness="50"
    underline-position="-75"
    unicode-range="U+000D-U+FFFD"
  />
<missing-glyph horiz-adv-x="558" 
d="M86 0v714h386v-714h-386zM134 51h290v612h-290v-612z" />
    <glyph glyph-name="f_f" unicode="ff" horiz-adv-x="714" 
d="M349 447l-119.999 -0.00390625v-447h-133v447h-78v60l79 36v37c0 46.667 6.66699 83.334 20 110.001s33 45.834 59 57.501s57.667 17.5 95 17.5c24.667 0 47.167 -2.16699 67.5 -6.5s38.5 -9.16602 54.5 -14.499l-32 -94c-10 3.33301 -21 6.5 -33 9.5s-25 4.5 -39 4.5
c-20.667 0 -35.834 -7.66699 -45.501 -23s-14.5 -36.666 -14.5 -63.999v-35h120v-95zM706.001 446.996l-119.999 -0.00390625v-447h-133v447h-78v60l79 36v37c0 46.667 6.66699 83.334 20 110.001s33 45.834 59 57.501s57.667 17.5 95 17.5
c24.667 0 47.167 -2.16699 67.5 -6.5s38.5 -9.16602 54.5 -14.499l-32 -94c-10 3.33301 -21 6.5 -33 9.5s-25 4.5 -39 4.5c-20.667 0 -35.834 -7.66699 -45.501 -23s-14.5 -36.666 -14.5 -63.999v-35h120v-95z" />
    <glyph glyph-name="fi" unicode="fi" horiz-adv-x="634" 
d="M349 447l-119.999 -0.00390625v-447h-133v447h-78v60l79 36v37c0 46.667 6.66699 83.334 20 110.001s33 45.834 59 57.501s57.667 17.5 95 17.5c24.667 0 47.167 -2.16699 67.5 -6.5s38.5 -9.16602 54.5 -14.499l-32 -94c-10 3.33301 -21 6.5 -33 9.5s-25 4.5 -39 4.5
c-20.667 0 -35.834 -7.66699 -45.501 -23s-14.5 -36.666 -14.5 -63.999v-35h120v-95zM562.001 541.996v-542h-132v542h132zM497.001 750.996c19.333 0 36 -4.83301 50 -14.5s21 -26.834 21 -51.501c0 -24 -7 -41.167 -21 -51.5s-30.667 -15.5 -50 -15.5
c-20.667 0 -38 5.16699 -52 15.5s-21 27.5 -21 51.5c0 24.667 7 41.834 21 51.501s31.333 14.5 52 14.5z" />
    <glyph glyph-name="fl" unicode="fl" horiz-adv-x="634" 
d="M349 447l-119.999 -0.00390625v-447h-133v447h-78v60l79 36v37c0 46.667 6.66699 83.334 20 110.001s33 45.834 59 57.501s57.667 17.5 95 17.5c24.667 0 47.167 -2.16699 67.5 -6.5s38.5 -9.16602 54.5 -14.499l-32 -94c-10 3.33301 -21 6.5 -33 9.5s-25 4.5 -39 4.5
c-20.667 0 -35.834 -7.66699 -45.501 -23s-14.5 -36.666 -14.5 -63.999v-35h120v-95zM562.001 -0.00390625h-133v760h133v-760z" />
    <glyph glyph-name="f_f_i" unicode="ffi" horiz-adv-x="991" 
d="M349 447l-119.999 -0.00390625v-447h-133v447h-78v60l79 36v37c0 46.667 6.66699 83.334 20 110.001s33 45.834 59 57.501s57.667 17.5 95 17.5c24.667 0 47.167 -2.16699 67.5 -6.5s38.5 -9.16602 54.5 -14.499l-32 -94c-10 3.33301 -21 6.5 -33 9.5s-25 4.5 -39 4.5
c-20.667 0 -35.834 -7.66699 -45.501 -23s-14.5 -36.666 -14.5 -63.999v-35h120v-95zM706.001 446.996l-119.999 -0.00390625v-447h-133v447h-78v60l79 36v37c0 46.667 6.66699 83.334 20 110.001s33 45.834 59 57.501s57.667 17.5 95 17.5
c24.667 0 47.167 -2.16699 67.5 -6.5s38.5 -9.16602 54.5 -14.499l-32 -94c-10 3.33301 -21 6.5 -33 9.5s-25 4.5 -39 4.5c-20.667 0 -35.834 -7.66699 -45.501 -23s-14.5 -36.666 -14.5 -63.999v-35h120v-95zM919.002 541.992v-542h-132v542h132zM854.002 750.992
c19.333 0 36 -4.83301 50 -14.5s21 -26.834 21 -51.501c0 -24 -7 -41.167 -21 -51.5s-30.667 -15.5 -50 -15.5c-20.667 0 -38 5.16699 -52 15.5s-21 27.5 -21 51.5c0 24.667 7 41.834 21 51.501s31.333 14.5 52 14.5z" />
    <glyph glyph-name="f_f_l" unicode="ffl" horiz-adv-x="991" 
d="M349 447l-119.999 -0.00390625v-447h-133v447h-78v60l79 36v37c0 46.667 6.66699 83.334 20 110.001s33 45.834 59 57.501s57.667 17.5 95 17.5c24.667 0 47.167 -2.16699 67.5 -6.5s38.5 -9.16602 54.5 -14.499l-32 -94c-10 3.33301 -21 6.5 -33 9.5s-25 4.5 -39 4.5
c-20.667 0 -35.834 -7.66699 -45.501 -23s-14.5 -36.666 -14.5 -63.999v-35h120v-95zM706.001 446.996l-119.999 -0.00390625v-447h-133v447h-78v60l79 36v37c0 46.667 6.66699 83.334 20 110.001s33 45.834 59 57.501s57.667 17.5 95 17.5
c24.667 0 47.167 -2.16699 67.5 -6.5s38.5 -9.16602 54.5 -14.499l-32 -94c-10 3.33301 -21 6.5 -33 9.5s-25 4.5 -39 4.5c-20.667 0 -35.834 -7.66699 -45.501 -23s-14.5 -36.666 -14.5 -63.999v-35h120v-95zM919.002 -0.0078125h-133v760h133v-760z" />
    <glyph glyph-name=".notdef" horiz-adv-x="558" 
d="M86 0v714h386v-714h-386zM134 51h290v612h-290v-612z" />
    <glyph glyph-name="NULL" 
 />
    <glyph glyph-name="NULL" 
 />
    <glyph glyph-name="CR" unicode="&#xd;" horiz-adv-x="244" 
 />
    <glyph glyph-name="space" unicode=" " horiz-adv-x="244" 
 />
    <glyph glyph-name="exclam" unicode="!" horiz-adv-x="266" 
d="M187 223h-108l-21 491h151zM55 64c0 28 7.5 47.833 22.5 59.5s33.167 17.5 54.5 17.5c20.667 0 38.667 -5.66699 54 -17s23 -31.333 23 -60c0 -27.333 -7.66699 -47 -23 -59s-33 -18 -53 -18c-22 0 -40.5 6 -55.5 18s-22.5 31.667 -22.5 59z" />
    <glyph glyph-name="quotedbl" unicode="&#x22;" horiz-adv-x="437" 
d="M185 714l-19 -258h-88l-19 258h126zM378 714l-18 -258h-88l-19 258h125z" />
    <glyph glyph-name="numbersign" unicode="#" horiz-adv-x="612" 
d="M462 421l-22 -131h120v-88h-137l-36 -202h-95l35 202h-101l-35 -202h-94l34 202h-110v88h127l23 131h-117v88h134l35 204h96l-36 -204h102l35 204h95l-36 -204h112v-88h-129zM244 290h101l21 131h-101z" />
    <glyph glyph-name="dollar" unicode="$" horiz-adv-x="541" 
d="M234 43c-38.667 1.33301 -73.501 5.33203 -104.501 11.999s-58.833 15.667 -83.5 27v112c25.333 -12 55.333 -23 90 -33s67.334 -15.667 98.001 -17v170c-32 13.333 -60.167 26.5 -84.5 39.5s-44.333 27 -60 42s-27.667 31.833 -36 50.5s-12.5 40 -12.5 64
c0 50 17.833 89.5 53.5 118.5s82.167 45.833 139.5 50.5v80h70v-78c35.333 -1.33301 67.833 -5.66602 97.5 -12.999s57.5 -17 83.5 -29l-37 -99c-22 10 -45.5 18.167 -70.5 24.5s-49.5 10.5 -73.5 12.5v-166c39.333 -12.667 73.833 -26.667 103.5 -42s52.667 -34.5 69 -57.5
s24.5 -52.833 24.5 -89.5c0 -48 -16.333 -87.667 -49 -119s-82 -50.333 -148 -57v-104h-70v101zM303.999 147.999c25.333 4 44.168 11.667 56.501 23s18.5 26 18.5 44c0 12 -2.5 22.333 -7.5 31s-12.833 16.5 -23.5 23.5s-25.334 13.833 -44.001 20.5v-142zM234.001 574.999
c-23.333 -2.66699 -40.834 -9.33301 -52.501 -20s-17.5 -24.667 -17.5 -42c0 -12 2.16699 -22.5 6.5 -31.5s11.833 -17.167 22.5 -24.5s24.334 -14.333 41.001 -21v139z" />
    <glyph glyph-name="percent" unicode="%" horiz-adv-x="838" 
d="M186 724c50.667 0 89.667 -19.5 117 -58.5s41 -93.833 41 -164.5s-12.833 -125.834 -38.5 -165.501s-65.5 -59.5 -119.5 -59.5c-32.667 0 -60.5 9 -83.5 27s-40.667 43.833 -53 77.5s-18.5 73.834 -18.5 120.501c0 70.667 12.833 125.5 38.5 164.5s64.5 58.5 116.5 58.5z
M187 637c-17.333 0 -29.833 -11.333 -37.5 -34s-11.5 -57 -11.5 -103c0 -45.333 3.83301 -79.5 11.5 -102.5s20.167 -34.5 37.5 -34.5s30.166 11.333 38.499 34s12.5 57 12.5 103s-4.16699 80.333 -12.5 103s-21.166 34 -38.499 34zM656 714l-372 -714h-105l372 714h105z
M648 439c34 0 62.668 -8.83301 86.001 -26.5s41.166 -43 53.499 -76s18.5 -73.167 18.5 -120.5c0 -70.667 -13 -125.834 -39 -165.501s-65.667 -59.5 -119 -59.5c-32.667 0 -60.5 9 -83.5 27s-40.667 43.833 -53 77.5s-18.5 73.834 -18.5 120.501
c0 70.667 12.833 125.5 38.5 164.5s64.5 58.5 116.5 58.5zM649.001 351c-17.333 0 -29.833 -11.168 -37.5 -33.501s-11.5 -56.5 -11.5 -102.5s3.83301 -80.5 11.5 -103.5s20.167 -34.5 37.5 -34.5s30.166 11.333 38.499 34s12.5 57.334 12.5 104.001
c0 46 -4.16699 80.167 -12.5 102.5s-21.166 33.5 -38.499 33.5z" />
    <glyph glyph-name="ampersand" unicode="&#x26;" horiz-adv-x="714" 
d="M295 724c56 0 100.837 -13.502 134.504 -40.502s50.5 -64.833 50.5 -113.5c0 -44.667 -12.333 -82.334 -37 -113.001s-56 -57.667 -94 -81l136 -154c14 22 25.5 45.833 34.5 71.5s16.5 52.167 22.5 79.5h137c-9.33301 -39.333 -23 -79.166 -41 -119.499
s-39.333 -77.166 -64 -110.499l140 -143h-170l-60 66c-14 -11.333 -28.333 -21.666 -43 -30.999s-30.334 -17.333 -47.001 -24s-35 -11.834 -55 -15.501s-42.333 -5.5 -67 -5.5c-48.667 0 -90.334 8.16699 -125.001 24.5s-61.167 39.5 -79.5 69.5s-27.5 65.333 -27.5 106
c0 34 5.33301 63.333 16 88s25.667 46.334 45 65.001s42.666 36 69.999 52c-13.333 18.667 -25.333 36.834 -36 54.501s-18.834 35.667 -24.501 54s-8.5 38.166 -8.5 59.499c0 50 17.167 89.333 51.5 118s81.5 43 141.5 43zM247.004 318.998
c-14 -10.667 -26.333 -21.832 -37 -33.499s-18.667 -24.334 -24 -38.001s-8 -29.5 -8 -47.5c0 -31.333 9.66699 -56.333 29 -75s44.333 -28 75 -28c26.667 0 50 4.33301 70 13s37 19.667 51 33zM293.004 626c-18.667 0 -34.666 -5.50098 -47.999 -16.501
s-20 -28.5 -20 -52.5c0 -19.333 4.66699 -37.666 14 -54.999s21.666 -35.666 36.999 -54.999c27.333 18 47.5 35.667 60.5 53s19.5 37.333 19.5 60c0 21.333 -6 37.666 -18 48.999s-27 17 -45 17z" />
    <glyph glyph-name="quotesingle" unicode="'" horiz-adv-x="244" 
d="M185 714l-19 -258h-88l-19 258h126z" />
    <glyph glyph-name="parenleft" unicode="(" horiz-adv-x="312" 
d="M37 274c0 54.667 4.66699 108.003 14 160.003s24 101.667 44 149s45.667 91 77 131h112c-28 -41.333 -51.5 -86 -70.5 -134s-33.167 -97.667 -42.5 -149s-14 -103.333 -14 -156c0 -51.333 4.66699 -102.5 14 -153.5s23.5 -100 42.5 -147s42.5 -91.167 70.5 -132.5h-112
c-31.333 39.333 -57 82.166 -77 128.499s-34.667 95.166 -44 146.499s-14 103.666 -14 156.999z" />
    <glyph glyph-name="parenright" unicode=")" horiz-adv-x="312" 
d="M275 274c0 -53.333 -4.66992 -105.668 -14.0029 -157.001s-23.833 -100.166 -43.5 -146.499s-45.5 -89.166 -77.5 -128.499h-112c28.667 41.333 52.334 85.5 71.001 132.5s32.834 96 42.501 147s14.5 102.167 14.5 153.5c0 79.333 -10.667 156.666 -32 231.999
s-53.666 144.333 -96.999 207h113c32 -40 57.833 -83.667 77.5 -131s34.167 -97 43.5 -149s14 -105.333 14 -160z" />
    <glyph glyph-name="asterisk" unicode="*" horiz-adv-x="512" 
d="M313 760l-18 -185l172 53l15 -112l-159 -13l104 -150l-101 -54l-72 161l-64 -161l-105 54l102 150l-157 14l17 111l169 -53l-18 185h115z" />
    <glyph glyph-name="plus" unicode="+" horiz-adv-x="536" 
d="M315 399h180v-93h-180v-195h-96v195h-179v93h179v197h96v-197z" />
    <glyph glyph-name="comma" unicode="," horiz-adv-x="264" 
d="M208 105c-5.33301 -23.333 -12.5 -48.5 -21.5 -75.5s-18.5 -54 -28.5 -81s-20.333 -52.833 -31 -77.5h-95c6 26 12 53.5 18 82.5s11.5 57.5 16.5 85.5s8.83301 53.667 11.5 77h123z" />
    <glyph glyph-name="hyphen" unicode="-" horiz-adv-x="302" 
d="M29 215v106h244v-106h-244z" />
    <glyph glyph-name="period" unicode="." horiz-adv-x="264" 
d="M55 64c0 28.667 7.5 48.667 22.5 60s33.167 17 54.5 17c20.667 0 38.667 -5.66699 54 -17s23 -31.333 23 -60c0 -27.333 -7.66699 -47 -23 -59s-33.333 -18 -54 -18c-21.333 0 -39.5 6 -54.5 18s-22.5 31.667 -22.5 59z" />
    <glyph glyph-name="slash" unicode="/" horiz-adv-x="383" 
d="M378 714l-250 -714h-121l250 714h121z" />
    <glyph glyph-name="zero" unicode="0" horiz-adv-x="541" 
d="M503 358c0 -58 -4.1709 -109.666 -12.5039 -154.999s-21.666 -83.833 -39.999 -115.5s-42.333 -55.834 -72 -72.501s-65.834 -25 -108.501 -25c-53.333 0 -97.166 14.667 -131.499 44s-59.666 71.5 -75.999 126.5s-24.5 120.5 -24.5 196.5c0 77.333 7.5 143.333 22.5 198
s39.5 96.667 73.5 126s79.333 44 136 44c52.667 0 96.334 -14.5 131.001 -43.5s60.334 -71 77.001 -126s25 -120.833 25 -197.5zM170.996 357.001c0 -58 3 -106.498 9 -145.498s16.333 -68.333 31 -88s34.334 -29.5 59.001 -29.5s44.334 9.66699 59.001 29
s25.167 48.666 31.5 87.999s9.5 88 9.5 146c0 58.667 -3.16699 107.5 -9.5 146.5s-16.833 68.333 -31.5 88s-34.334 29.5 -59.001 29.5s-44.334 -9.83301 -59.001 -29.5s-25 -48.834 -31 -87.501s-9 -87.667 -9 -147z" />
    <glyph glyph-name="one" unicode="1" horiz-adv-x="541" 
d="M382 0h-133v445c0 14.667 0.166992 29.667 0.5 45l1 46.5c0.333008 15.667 0.833008 30.167 1.5 43.5c-6.66699 -6.66699 -14.167 -14.667 -22.5 -24s-17.5 -18.333 -27.5 -27l-74 -64l-68 78l208 171h114v-714z" />
    <glyph glyph-name="two" unicode="2" horiz-adv-x="541" 
d="M503 0h-464.997v93l169 184c34 36.667 61.333 68.167 82 94.5s35.834 50.833 45.501 73.5s14.5 47.334 14.5 74.001c0 32.667 -8.16699 57.167 -24.5 73.5s-37.833 24.5 -64.5 24.5s-51.834 -6.16699 -75.501 -18.5s-48.5 -29.833 -74.5 -52.5l-73 83
c19.333 17.333 39.666 33.166 60.999 47.499s46.166 25.833 74.499 34.5s61.166 13 98.499 13c43.333 0 80.833 -8.16699 112.5 -24.5s56.167 -38.833 73.5 -67.5s26 -62 26 -100c0 -29.333 -4.16699 -56.333 -12.5 -81s-20.5 -49 -36.5 -73s-35 -48.667 -57 -74l-74 -83
l-97 -106v-6h297v-109z" />
    <glyph glyph-name="three" unicode="3" horiz-adv-x="541" 
d="M479 551c0 -32 -6.32715 -59.999 -18.9941 -83.999s-29.834 -43.5 -51.501 -58.5s-46.5 -25.833 -74.5 -32.5v-3c54 -6.66699 94.833 -24.334 122.5 -53.001s41.5 -66.667 41.5 -114c0 -41.333 -9.33301 -78.333 -28 -111s-47.834 -58.334 -87.501 -77.001
s-90.834 -28 -153.501 -28c-38 0 -72.333 3.16699 -103 9.5s-60.334 16.166 -89.001 29.499v111c28.667 -15.333 58.834 -27 90.501 -35s61.167 -12 88.5 -12c52 0 88.667 10.5 110 31.5s32 50.167 32 87.5c0 24 -5.5 43.667 -16.5 59s-28.333 26.833 -52 34.5
s-55.834 11.5 -96.501 11.5h-52v101h53c38 0 68 4.66699 90 14s38 22.333 48 39s15 36 15 58c0 28.667 -8.5 51 -25.5 67s-41.167 24 -72.5 24c-22 0 -42.333 -2.66699 -61 -8s-35.334 -12.166 -50.001 -20.499s-27.667 -17.166 -39 -26.499l-60 87
c17.333 13.333 36.666 25.5 57.999 36.5s45.5 19.667 72.5 26s57.167 9.5 90.5 9.5c70 0 124 -15.5 162 -46.5s57 -73.167 57 -126.5z" />
    <glyph glyph-name="four" unicode="4" horiz-adv-x="541" 
d="M525 153h-84v-153h-131v153h-293v94l297 469h127v-460h84v-103zM310 416c0 14 0.166016 28.5 0.499023 43.5s0.833008 29.833 1.5 44.5s1.33398 28 2.00098 40s1 21.333 1 28h-4l-18.5 -39c-6.33301 -13.333 -12.833 -26.333 -19.5 -39l-137 -238h174v160z" />
    <glyph glyph-name="five" unicode="5" horiz-adv-x="541" 
d="M281 449c42 0 78.9961 -8.33203 110.996 -24.999s57.167 -40.834 75.5 -72.501s27.5 -70.5 27.5 -116.5c0 -50.667 -10 -94.334 -30 -131.001s-49.5 -64.834 -88.5 -84.501s-87.5 -29.5 -145.5 -29.5c-35.333 0 -68.666 3.33301 -99.999 10s-58.333 16.334 -81 29.001
v112c23.333 -13.333 51.333 -24.333 84 -33s63.334 -13 92.001 -13c28 0 52 4.5 72 13.5s35.333 23 46 42s16 43.167 16 72.5c0 40 -11.333 70.333 -34 91s-57.667 31 -105 31c-17.333 0 -35.666 -1.66699 -54.999 -5s-35.333 -6.66602 -48 -9.99902l-55 30l26 354h360v-110
h-245l-13 -165c10.667 2 22.834 4.16699 36.501 6.5s31.5 3.5 53.5 3.5z" />
    <glyph glyph-name="six" unicode="6" horiz-adv-x="541" 
d="M39 304c0 41.333 2.66699 82.002 8 122.002s15 77.833 29 113.5s33.5 67.334 58.5 95.001s56.833 49.334 95.5 65.001s85.334 23.5 140.001 23.5c13.333 0 28.666 -0.666992 45.999 -2s31.666 -3.33301 42.999 -6v-104c-12 4 -25.333 6.83301 -40 8.5s-30 2.5 -46 2.5
c-40.667 0 -74 -6.16699 -100 -18.5s-46.833 -29.833 -62.5 -52.5s-27.167 -48.834 -34.5 -78.501s-11.666 -62.5 -12.999 -98.5h6c8.66699 16 19.5 30.333 32.5 43s29 22.667 48 30s40.833 11 65.5 11c39.333 0 73.333 -8.83301 102 -26.5s50.667 -43 66 -76
s23 -73.167 23 -120.5c0 -50.667 -9.16699 -94.334 -27.5 -131.001s-44.333 -64.834 -78 -84.501s-73.5 -29.5 -119.5 -29.5c-34 0 -65.667 6.33301 -95 19s-55 32 -77 58s-39.167 58.667 -51.5 98s-18.5 85.666 -18.5 138.999zM278 93.002
c29.333 0 53.002 11.5 71.002 34.5s27 58.5 27 106.5c0 38.667 -7.83301 69.167 -23.5 91.5s-39.834 33.5 -72.501 33.5c-22 0 -41 -5.33301 -57 -16s-28.5 -24.5 -37.5 -41.5s-13.5 -34.833 -13.5 -53.5s2.16699 -37 6.5 -55s11 -34.667 20 -50s20.167 -27.5 33.5 -36.5
s28.666 -13.5 45.999 -13.5z" />
    <glyph glyph-name="seven" unicode="7" horiz-adv-x="541" 
d="M110 0l254 605h-330v109h472v-85l-255 -629h-141z" />
    <glyph glyph-name="eight" unicode="8" horiz-adv-x="541" 
d="M271 723c40.667 0 77.001 -6.33105 109.001 -18.998s57.333 -31.667 76 -57s28 -57 28 -95c0 -28.667 -5.5 -53.834 -16.5 -75.501s-25.5 -40.5 -43.5 -56.5s-38.667 -30.333 -62 -43c24.667 -13.333 47.834 -28.833 69.501 -46.5s39.167 -38.334 52.5 -62.001
s20 -51.5 20 -83.5c0 -39.333 -9.16699 -73.666 -27.5 -102.999s-44.833 -52 -79.5 -68s-76.334 -24 -125.001 -24c-52 0 -95.333 7.66699 -130 23s-60.834 37.333 -78.501 66s-26.5 62.667 -26.5 102c0 32.667 5.83301 61 17.5 85s27.5 44.833 47.5 62.5
s41.667 32.5 65 44.5c-20 13.333 -38.333 28.5 -55 45.5s-29.834 36.333 -39.501 58s-14.5 47.167 -14.5 76.5c0 37.333 9.33301 68.666 28 93.999s44.334 44.333 77.001 57s68.667 19 108 19zM162.001 187.002c0 -29.333 9 -53.4971 27 -72.4971s45 -28.5 81 -28.5
c24.667 0 45 4.16699 61 12.5s28.167 20.166 36.5 35.499s12.5 33 12.5 53s-5 37.667 -15 53s-22.833 29.166 -38.5 41.499s-32.5 23.166 -50.5 32.499l-13 7c-20.667 -10.667 -38.5 -22.5 -53.5 -35.5s-26.667 -27.5 -35 -43.5s-12.5 -34.333 -12.5 -55zM270.001 628.005
c-24.667 0 -45.168 -7.33301 -61.501 -22s-24.5 -35.334 -24.5 -62.001c0 -19.333 4 -36 12 -50s18.667 -26 32 -36s28 -19.667 44 -29c14.667 8.66699 28.5 18 41.5 28s23.5 22 31.5 36s12 31 12 51c0 26.667 -8.16699 47.334 -24.5 62.001s-37.166 22 -62.499 22z" />
    <glyph glyph-name="nine" unicode="9" horiz-adv-x="541" 
d="M504 409c0 -54 -5.00293 -105.998 -15.0029 -155.998s-27.167 -94.667 -51.5 -134s-58.166 -70.666 -101.499 -93.999s-98.333 -35 -165 -35c-13.333 0 -28.666 0.666992 -45.999 2s-32 3.33301 -44 6v104c12.667 -3.33301 25.834 -6 39.501 -8s27.5 -3 41.5 -3
c42.667 0 77.5 6.16699 104.5 18.5s48.667 29.666 65 51.999s28 48.666 35 78.999s11.167 62.833 12.5 97.5h-6c-8.66699 -15.333 -19.167 -29.333 -31.5 -42s-28 -22.667 -47 -30s-42.833 -11 -71.5 -11c-37.333 0 -70 8.66699 -98 26s-49.667 42.666 -65 75.999
s-23 73.333 -23 120c0 51.333 9.16699 95.5 27.5 132.5s44.333 65.333 78 85s73.5 29.5 119.5 29.5c34 0 65.667 -6.33301 95 -19s55 -32 77 -58s39.167 -58.833 51.5 -98.5s18.5 -86.167 18.5 -139.5zM263.997 621.002c-28.667 0 -52.167 -11.6689 -70.5 -35.002
s-27.5 -59 -27.5 -107c0 -38.667 7.83301 -69.167 23.5 -91.5s39.167 -33.5 70.5 -33.5c22.667 0 42.167 5.5 58.5 16.5s29 24.833 38 41.5s13.5 34.334 13.5 53.001c0 19.333 -2.16699 38.333 -6.5 57s-11 35.334 -20 50.001s-20 26.5 -33 35.5s-28.5 13.5 -46.5 13.5z" />
    <glyph glyph-name="colon" unicode=":" horiz-adv-x="264" 
d="M55 64c0 28.667 7.5 48.667 22.5 60s33.167 17 54.5 17c20.667 0 38.667 -5.66699 54 -17s23 -31.333 23 -60c0 -27.333 -7.66699 -47 -23 -59s-33.333 -18 -54 -18c-21.333 0 -39.5 6 -54.5 18s-22.5 31.667 -22.5 59zM55 476c0 28.667 7.5 48.834 22.5 60.501
s33.167 17.5 54.5 17.5c20.667 0 38.667 -5.83301 54 -17.5s23 -31.834 23 -60.501c0 -27.333 -7.66699 -47 -23 -59s-33.333 -18 -54 -18c-21.333 0 -39.5 6 -54.5 18s-22.5 31.667 -22.5 59z" />
    <glyph glyph-name="semicolon" unicode=";" horiz-adv-x="264" 
d="M205 105c-5.33301 -23.333 -12.5 -48.499 -21.5 -75.499s-18.5 -54 -28.5 -81s-20.333 -52.833 -31 -77.5h-96l14 61c4.66699 21.333 9 42.833 13 64.5l11.5 63c3.66699 20.333 6.5 39.166 8.5 56.499h123zM54 476.001c0 28.667 7.66699 48.834 23 60.501
s33.666 17.5 54.999 17.5s39.5 -5.83301 54.5 -17.5s22.5 -31.834 22.5 -60.501c0 -27.333 -7.5 -47 -22.5 -59s-33.167 -18 -54.5 -18s-39.666 6 -54.999 18s-23 31.667 -23 59z" />
    <glyph glyph-name="less" unicode="&#x3c;" horiz-adv-x="536" 
d="M494 105l-454 212v62l454 240v-103l-319 -163l319 -145v-103z" />
    <glyph glyph-name="equal" unicode="=" horiz-adv-x="536" 
d="M43 402v93h450v-93h-450zM43 209v93h450v-93h-450z" />
    <glyph glyph-name="greater" unicode="&#x3e;" horiz-adv-x="536" 
d="M40 208l319 144l-319 164v103l454 -240v-62l-454 -212v103z" />
    <glyph glyph-name="question" unicode="?" horiz-adv-x="442" 
d="M131 256c0 23.333 2.66504 43.834 7.99805 61.501s14 34.5 26 50.5s28.667 32.333 50 49c21.333 17.333 37.833 32.333 49.5 45s19.834 25.167 24.501 37.5s7 26.5 7 42.5c0 25.333 -7.83301 44.666 -23.5 57.999s-37.167 20 -64.5 20
c-26.667 0 -52.834 -4.16699 -78.501 -12.5s-51.5 -19.5 -77.5 -33.5l-47 94c30 16 62.333 29.333 97 40s73.334 16 116.001 16c64.667 0 114.667 -16.333 150 -49s53 -75 53 -127c0 -28.667 -4.33301 -53 -13 -73s-21 -38.667 -37 -56s-36 -36 -60 -56
c-19.333 -16 -34.166 -29.667 -44.499 -41s-17.5 -22.5 -21.5 -33.5s-6 -24.5 -6 -40.5v-25h-108v33zM111.998 64.001c0 28.667 7.5 48.667 22.5 60s33.5 17 55.5 17c20.667 0 38.667 -5.66699 54 -17s23 -31.333 23 -60c0 -27.333 -7.66699 -47 -23 -59
s-33.333 -18 -54 -18c-22 0 -40.5 6 -55.5 18s-22.5 31.667 -22.5 59z" />
    <glyph glyph-name="at" unicode="@" horiz-adv-x="844" 
d="M797 358c0 -30.667 -3.5 -61.001 -10.5 -91.001s-17.5 -57 -31.5 -81s-31.5 -43.167 -52.5 -57.5s-45.5 -21.5 -73.5 -21.5c-25.333 0 -47 6.83301 -65 20.5s-30.667 30.834 -38 51.501h-6c-12.667 -20 -29.5 -37 -50.5 -51s-46.5 -21 -76.5 -21
c-53.333 0 -94.166 17.5 -122.499 52.5s-42.5 80.833 -42.5 137.5c0 44.667 8.66699 84 26 118s42.333 60.833 75 80.5s71.667 29.5 117 29.5c29.333 0 58.5 -2.66699 87.5 -8s52.167 -11.333 69.5 -18l-9 -204c-0.666992 -8.66699 -1 -16.167 -1 -22.5v-12.5
c0 -30 3.83301 -50 11.5 -60s16.834 -15 27.501 -15c15.333 0 28.166 8 38.499 24s18.166 37 23.499 63s8 55 8 87c0 58 -10.5 107.333 -31.5 148s-50.333 71.667 -88 93s-81.5 32 -131.5 32c-50.667 0 -95 -8.66699 -133 -26s-70 -41.5 -96 -72.5s-45.667 -67.5 -59 -109.5
s-20 -88 -20 -138c0 -62 10.333 -114.5 31 -157.5s50.667 -75.667 90 -98s88 -33.5 146 -33.5c36.667 0 74.5 4.33301 113.5 13s74.5 19 106.5 31v-84c-29.333 -12.667 -62.333 -23 -99 -31s-75.667 -12 -117 -12c-76.667 0 -142.5 14.667 -197.5 44s-97 71.5 -126 126.5
s-43.5 121.167 -43.5 198.5c0 61.333 9.33301 118.166 28 170.499s45.5 98 80.5 137s77.167 69.333 126.5 91s105 32.5 167 32.5c68.667 0 129 -14.333 181 -43s92.833 -69.667 122.5 -123s44.5 -116.666 44.5 -189.999zM329 294.999c0 -38.667 7.00098 -66.667 21.001 -84
s32.667 -26 56 -26c30.667 0 52.667 12.833 66 38.5s21 59.167 23 100.5l6 115c-7.33301 2 -15.333 3.66699 -24 5s-18 2 -28 2c-28.667 0 -51.834 -7.33301 -69.501 -22s-30.5 -33.5 -38.5 -56.5s-12 -47.167 -12 -72.5z" />
    <glyph glyph-name="A" unicode="A" horiz-adv-x="642" 
d="M498 0l-55 189h-244l-55 -189h-144l240 717h161l241 -717h-144zM354 483c-2.66699 10.667 -6.16699 23.501 -10.5 38.501s-8.33301 30.5 -12 46.5l-10.5 45c-4.66699 -24.667 -10 -48.334 -16 -71.001l-16 -59l-56 -184h178z" />
    <glyph glyph-name="B" unicode="B" horiz-adv-x="625" 
d="M294 714c60 0 109.501 -5.83301 148.501 -17.5s68.167 -30.5 87.5 -56.5s29 -61 29 -105c0 -27.333 -4.66699 -52 -14 -74s-22.333 -40 -39 -54s-36.334 -23.333 -59.001 -28v-5c23.333 -4.66699 44.833 -13.167 64.5 -25.5s35.5 -30 47.5 -53s18 -53.167 18 -90.5
c0 -43.333 -10 -80.333 -30 -111s-48.167 -54 -84.5 -70s-79.833 -24 -130.5 -24h-248v714h210zM306.001 423c43.333 0 73.334 8 90.001 24s25 39.667 25 71c0 32 -9.83301 55 -29.5 69s-50.834 21 -93.501 21h-80v-185h88zM218.002 320v-212.998h98
c45.333 0 76.833 10 94.5 30s26.5 46.667 26.5 80c0 21.333 -3.83301 39.666 -11.5 54.999s-20.5 27.166 -38.5 35.499s-43 12.5 -75 12.5h-94z" />
    <glyph glyph-name="C" unicode="C" horiz-adv-x="600" 
d="M373 616c-28 0 -53.3291 -6.00098 -75.9961 -18.001s-41.834 -29.333 -57.501 -52s-27.5 -50 -35.5 -82s-12 -68 -12 -108c0 -54 6.66699 -100.167 20 -138.5s33.666 -67.833 60.999 -88.5s61.666 -31 102.999 -31c28.667 0 56.667 3.16699 84 9.5s55 14.833 83 25.5
v-109c-27.333 -12 -55.5 -20.667 -84.5 -26s-61.5 -8 -97.5 -8c-70 0 -127.833 15.167 -173.5 45.5s-79.5 73 -101.5 128s-33 119.5 -33 193.5c0 54 7 103.333 21 148s34.667 83.334 62 116.001s61 58 101 76s85.667 27 137 27c33.333 0 67.666 -4.16699 102.999 -12.5
s66.333 -19.833 93 -34.5l-45 -105c-23.333 11.333 -47.5 21.5 -72.5 30.5s-51.5 13.5 -79.5 13.5z" />
    <glyph glyph-name="D" unicode="D" horiz-adv-x="691" 
d="M637 364c0 -80 -14.168 -146.998 -42.501 -200.998s-69.166 -94.667 -122.499 -122s-117.333 -41 -192 -41h-196v714h215c70 0 130.333 -13.333 181 -40s89.5 -65.834 116.5 -117.501s40.5 -115.834 40.5 -192.501zM496.999 360.002c0 56.667 -7.5 103.332 -22.5 139.999
s-37.333 63.834 -67 81.501s-66.167 26.5 -109.5 26.5h-80v-501h65c72.667 0 126.5 21.167 161.5 63.5s52.5 105.5 52.5 189.5z" />
    <glyph glyph-name="E" unicode="E" horiz-adv-x="522" 
d="M469 0h-385v714h385v-107h-251v-182h235v-107h-235v-210h251v-108z" />
    <glyph glyph-name="F" unicode="F" horiz-adv-x="504" 
d="M216 0h-132v714h385v-107h-253v-210h235v-107h-235v-290z" />
    <glyph glyph-name="G" unicode="G" horiz-adv-x="686" 
d="M355 392l261.004 -0.00195312v-363c-34.667 -12.667 -71.834 -22.334 -111.501 -29.001s-83.834 -10 -132.501 -10c-66.667 0 -123.834 14.333 -171.501 43s-84.167 70.334 -109.5 125.001s-38 121.334 -38 200.001c0 74.667 13.667 139.334 41 194.001s67 97 119 127
s115.667 45 191 45c38 0 74.5 -3.83301 109.5 -11.5s66.833 -18.167 95.5 -31.5l-45 -105c-22.667 11.333 -47.834 20.833 -75.501 28.5s-56.5 11.5 -86.5 11.5c-45.333 0 -83.5 -10.667 -114.5 -32s-54.667 -51.5 -71 -90.5s-24.5 -84.833 -24.5 -137.5
c0 -50.667 6.83301 -95.5 20.5 -134.5s35 -69.333 64 -91s65.833 -32.5 110.5 -32.5c14 0 27 0.666992 39 2s23.167 3 33.5 5s19.5 4 27.5 6v172h-132v109z" />
    <glyph glyph-name="H" unicode="H" horiz-adv-x="713" 
d="M629 0h-135v317h-276v-317h-134v714h134v-288h276v288h135v-714z" />
    <glyph glyph-name="I" unicode="I" horiz-adv-x="364" 
d="M330 0h-297v73l82 32v503l-82 33v73h297v-73l-81 -33v-503l81 -32v-73z" />
    <glyph glyph-name="J" unicode="J" horiz-adv-x="298" 
d="M10 -202c-18 0 -33.833 1.16699 -47.5 3.5s-25.167 4.83301 -34.5 7.5v107c10 -2.66699 20.5 -5 31.5 -7s22.833 -3 35.5 -3c18 0 33.5 3.33301 46.5 10s23 19 30 37s10.5 43.667 10.5 77v684h135v-681c0 -56 -8.66699 -101.167 -26 -135.5s-41.5 -59.5 -72.5 -75.5
s-67.167 -24 -108.5 -24z" />
    <glyph glyph-name="K" unicode="K" horiz-adv-x="616" 
d="M616 0h-153l-184 316l-61 -53v-263h-134v714h134v-336l37.5 51l39.5 52l168 233h150l-237 -314z" />
    <glyph glyph-name="L" unicode="L" horiz-adv-x="523" 
d="M84 0v714h134v-606h275v-108h-409z" />
    <glyph glyph-name="M" unicode="M" horiz-adv-x="883" 
d="M374 0l-174 584.999h-4c0.666992 -13.333 1.66699 -32.166 3 -56.499s2.5 -50.666 3.5 -78.999s1.5 -54.833 1.5 -79.5v-370h-120v714h184l170 -561h3l173 561h185v-714h-126v376c0 22.667 0.333008 47.5 1 74.5s1.66699 52.667 3 77s2.33301 43.166 3 56.499h-4
l-179 -584h-123z" />
    <glyph glyph-name="N" unicode="N" horiz-adv-x="754" 
d="M670 0l-169 -0.000976562l-301 560h-4c0.666992 -14.667 1.33398 -30.167 2.00098 -46.5s1.5 -33 2.5 -50s1.83301 -34.167 2.5 -51.5s1 -34.666 1 -51.999v-360h-120v714h168l300 -556h4c-0.666992 13.333 -1.33398 27.833 -2.00098 43.5l-2 48.5l-2 51
c-0.666992 17.333 -1 34 -1 50v363h121v-714z" />
    <glyph glyph-name="O" unicode="O" horiz-adv-x="744" 
d="M690 358c0 -55.333 -6.5 -105.498 -19.5 -150.498s-32.5 -83.833 -58.5 -116.5s-59 -57.667 -99 -75s-87 -26 -141 -26c-54.667 0 -102 8.83301 -142 26.5s-73 42.667 -99 75s-45.5 71.166 -58.5 116.499s-19.5 95.666 -19.5 150.999c0 74 11.5 138.333 34.5 193
s58.167 97.167 105.5 127.5s107.333 45.5 180 45.5c72 0 131.333 -15.167 178 -45.5s81.5 -73 104.5 -128s34.5 -119.5 34.5 -193.5zM195 358.002c0 -54 6.00098 -100.332 18.001 -138.999s31.167 -68.334 57.5 -89.001s60.166 -31 101.499 -31s75 10.333 101 31
s45 50.334 57 89.001s18 85 18 139c0 80.667 -13.667 144 -41 190s-72 69 -134 69c-42 0 -76.167 -10.333 -102.5 -31s-45.5 -50.334 -57.5 -89.001s-18 -85 -18 -139z" />
    <glyph glyph-name="P" unicode="P" horiz-adv-x="585" 
d="M290 714c86.667 0 150.333 -19.3311 191 -57.998s61 -92 61 -160c0 -40.667 -8 -78.834 -24 -114.501s-43 -64.334 -81 -86.001s-89.667 -32.5 -155 -32.5h-64v-263h-134v714h206zM284.999 608.002l-67 0.000976562v-239h50c29.333 0 54.333 4.16699 75 12.5
s36.5 21.5 47.5 39.5s16.5 41.333 16.5 70c0 39.333 -10 68.666 -30 87.999s-50.667 29 -92 29z" />
    <glyph glyph-name="Q" unicode="Q" horiz-adv-x="743" 
d="M690 358c0 -55.333 -6.16699 -105.497 -18.5 -150.497s-31 -83.833 -56 -116.5s-56.5 -57.334 -94.5 -74.001l161 -187h-174l-123 160h-6h-7c-54.667 0 -102 8.83301 -142 26.5s-73 42.667 -99 75s-45.5 71.166 -58.5 116.499s-19.5 95.666 -19.5 150.999
c0 74 11.5 138.333 34.5 193s58.167 97.167 105.5 127.5s107.333 45.5 180 45.5c72 0 131.333 -15.167 178 -45.5s81.5 -73 104.5 -128s34.5 -119.5 34.5 -193.5zM195 358.003c0 -54 6.00098 -100.332 18.001 -138.999s31.167 -68.334 57.5 -89.001s60.166 -31 101.499 -31
s75 10.333 101 31s45 50.334 57 89.001s18 85 18 139c0 80.667 -13.667 144 -41 190s-72 69 -134 69c-42 0 -76.167 -10.333 -102.5 -31s-45.5 -50.334 -57.5 -89.001s-18 -85 -18 -139z" />
    <glyph glyph-name="R" unicode="R" horiz-adv-x="613" 
d="M283 714c59.333 0 108.168 -7.66602 146.501 -22.999s67 -38.5 86 -69.5s28.5 -70.167 28.5 -117.5c0 -34.667 -5.66699 -64.334 -17 -89.001s-26.333 -45.167 -45 -61.5s-39.334 -29.5 -62.001 -39.5l192 -314h-152l-155 282h-87v-282h-134v714h199zM277.002 607.001
l-59.001 -0.00195312v-220h61c29.333 0 53.5 4.33301 72.5 13s33.167 21.334 42.5 38.001s14 37.334 14 62.001c0 26 -4.66699 46.833 -14 62.5s-23.666 27 -42.999 34s-44 10.5 -74 10.5z" />
    <glyph glyph-name="S" unicode="S" horiz-adv-x="524" 
d="M487 195c0 -42 -9.5 -78.332 -28.5 -108.999s-47 -54.334 -84 -71.001s-82.833 -25 -137.5 -25c-26 0 -50.333 1.5 -73 4.5s-43.834 7.5 -63.501 13.5s-38.5 13.333 -56.5 22v120c30 -13.333 62.5 -25.5 97.5 -36.5s69.167 -16.5 102.5 -16.5
c25.333 0 46 3.83301 62 11.5s27.833 18.334 35.5 32.001s11.5 29.5 11.5 47.5c0 20 -4.83301 37 -14.5 51s-24.5 27 -44.5 39s-46 24.333 -78 37c-30 12.667 -57.667 27.667 -83 45s-45.333 39.666 -60 66.999s-22 61.333 -22 102s9.66699 75.667 29 105
s46.333 51.666 81 66.999s75 23 121 23c38 0 73.333 -4 106 -12s63.334 -19.333 92.001 -34l-42 -103c-27.333 12.667 -54.333 22.667 -81 30s-53 11 -79 11c-20.667 0 -38 -3.5 -52 -10.5s-24.5 -16.833 -31.5 -29.5s-10.5 -27.334 -10.5 -44.001
c0 -19.333 4.5 -35.666 13.5 -48.999s23.667 -25.833 44 -37.5s46.5 -25.167 78.5 -40.5c35.333 -16 65.5 -33 90.5 -51s44 -39.667 57 -65s19.5 -56.666 19.5 -93.999z" />
    <glyph glyph-name="T" unicode="T" horiz-adv-x="540" 
d="M338 0h-135v606h-186v108h506v-108h-185v-606z" />
    <glyph glyph-name="U" unicode="U" horiz-adv-x="703" 
d="M625 252c0 -49.333 -10.167 -93.833 -30.5 -133.5s-51 -71 -92 -94s-92.5 -34.5 -154.5 -34.5c-88 0 -155 24.167 -201 72.5s-69 112.166 -69 191.499v460h134v-447c0 -58 11.833 -100.5 35.5 -127.5s58.5 -40.5 104.5 -40.5c32.667 0 59 6.33301 79 19
s34.833 31.834 44.5 57.501s14.5 56.5 14.5 92.5v446h135v-462z" />
    <glyph glyph-name="V" unicode="V" horiz-adv-x="608" 
d="M608 714l-230 -713.999h-149l-229 714h143l125 -437l12.5 -46.5c5 -19 9.66699 -38.333 14 -58s7.5 -37.167 9.5 -52.5c2 15.333 5.16699 32.666 9.5 51.999l13.5 58c4.66699 19.333 9 35 13 47l124 437h144z" />
    <glyph glyph-name="W" unicode="W" horiz-adv-x="918" 
d="M909 714l-172.001 -714.001h-152l-97 410l-7.5 37l-9.5 45.5c-3.33301 15.667 -6 30.334 -8 44.001s-3.66699 23.834 -5 30.501c-0.666992 -6.66699 -2.16699 -16.834 -4.5 -30.501s-5 -28.334 -8 -44.001l-9 -46c-3 -15 -5.83301 -27.833 -8.5 -38.5l-96 -408h-152
l-172 714h134l88 -407l11.5 -59l12.5 -65.5c4 -21.667 6.66699 -40.5 8 -56.5c2.66699 16.667 6 36 10 58s8.16699 43.667 12.5 65l11.5 55l98 410h128l99 -413c4 -15.333 8.16699 -33.666 12.5 -54.999l12.5 -64c4 -21.333 7 -40 9 -56c2 16.667 4.83301 35.667 8.5 57
s7.83398 43 12.501 65s8.66699 41.667 12 59l88 407h133z" />
    <glyph glyph-name="X" unicode="X" horiz-adv-x="616" 
d="M615 0h-154l-156 285l-157 -285h-146l223 370l-209 344h149l144 -266l142 266h148l-211 -349z" />
    <glyph glyph-name="Y" unicode="Y" horiz-adv-x="579" 
d="M290 399l144 315h145l-222 -436v-278h-134v273l-223 441h146z" />
    <glyph glyph-name="Z" unicode="Z" horiz-adv-x="551" 
d="M524 0h-495v87l323 519h-314v108h477v-87l-323 -519h332v-108z" />
    <glyph glyph-name="bracketleft" unicode="[" horiz-adv-x="309" 
d="M286 -158h-221v872h221v-91h-107v-690h107v-91z" />
    <glyph glyph-name="backslash" unicode="\" horiz-adv-x="383" 
d="M127 714l250 -714h-121l-250 714h121z" />
    <glyph glyph-name="bracketright" unicode="]" horiz-adv-x="309" 
d="M23 -67h107v690h-107v91h221v-872h-221v91z" />
    <glyph glyph-name="asciicircum" unicode="^" horiz-adv-x="524" 
d="M18 259l200 459h64l226 -459h-105l-150 331l-132 -331h-103z" />
    <glyph glyph-name="underscore" unicode="_" horiz-adv-x="423" 
d="M425 -156h-427v66h427v-66z" />
    <glyph glyph-name="grave" unicode="`" horiz-adv-x="335" 
d="M189 766l33.001 -49.499c12.667 -18.333 25.5 -36 38.5 -53l34.5 -44.5v-13h-88c-12 8.66699 -25.833 19.5 -41.5 32.5s-31.5 26.833 -47.5 41.5l-44.5 42c-13.667 13.333 -24.834 24.666 -33.501 33.999v10h149z" />
    <glyph glyph-name="a" unicode="a" horiz-adv-x="560" 
d="M289 552c65.333 0 115.332 -15.168 149.999 -45.501s52 -77.833 52 -142.5v-364h-93l-26 75h-4c-14.667 -19.333 -29.667 -35.5 -45 -48.5s-32.833 -22.333 -52.5 -28s-43.834 -8.5 -72.501 -8.5c-30 0 -57 6 -81 18s-43 30.5 -57 55.5s-21 56.5 -21 94.5
c0 56 19.333 98.167 58 126.5s97 43.833 175 46.5l86 3v27c0 34.667 -7.16699 59.334 -21.5 74.001s-34.5 22 -60.5 22c-24 0 -48.167 -4 -72.5 -12s-48.166 -17.333 -71.499 -28l-41 88c26.667 14 56.834 25.333 90.501 34s69.5 13 107.5 13zM301.999 253.999
c-47.333 -2 -80.333 -11.501 -99 -28.501s-28 -39.833 -28 -68.5c0 -25.333 6.5 -43.666 19.5 -54.999s30.167 -17 51.5 -17c31.333 0 58 10.5 80 31.5s33 52.167 33 93.5v46z" />
    <glyph glyph-name="b" unicode="b" horiz-adv-x="592" 
d="M205 580c0 -21.333 -0.667969 -42.001 -2.00098 -62.001s-2.66602 -35.667 -3.99902 -47h6c13.333 22.667 31.666 41.834 54.999 57.501s54 23.5 92 23.5c58 0 105 -23.667 141 -71s54 -117 54 -209c0 -62 -8.33301 -114 -25 -156s-39.834 -73.5 -69.501 -94.5
s-64.5 -31.5 -104.5 -31.5c-37.333 0 -67.166 7.33301 -89.499 22s-40.166 31.667 -53.499 51h-10l-22 -63h-101v760h133v-180zM310.999 449.999c-26 0 -46.666 -6.00098 -61.999 -18.001s-26.5 -30.333 -33.5 -55s-10.5 -56 -10.5 -94v-11c0 -58 7.66699 -102.333 23 -133
s43.666 -46 84.999 -46c32 0 56.5 15.5 73.5 46.5s25.5 75.5 25.5 133.5c0 58.667 -8.5 102.834 -25.5 132.501s-42.167 44.5 -75.5 44.5z" />
    <glyph glyph-name="c" unicode="c" horiz-adv-x="480" 
d="M288 -10c-50 0 -93.167 9.83203 -129.5 29.499s-64.333 50 -84 91s-29.5 93.5 -29.5 157.5c0 66.667 10.833 120.834 32.5 162.501s51.5 72.334 89.5 92.001s81.667 29.5 131 29.5c30.667 0 59.5 -3.33301 86.5 -10s49.5 -14.667 67.5 -24l-40 -97
c-18 7.33301 -36 13.666 -54 18.999s-36.333 8 -55 8c-26.667 0 -49 -6.66699 -67 -20s-31.833 -33.166 -41.5 -59.499s-14.5 -59.5 -14.5 -99.5c0 -38.667 4.83301 -71 14.5 -97s23.5 -45.5 41.5 -58.5s40 -19.5 66 -19.5s50.167 3.66699 72.5 11s43.5 17.333 63.5 30v-109
c-20.667 -12.667 -42.667 -21.834 -66 -27.501s-51.333 -8.5 -84 -8.5z" />
    <glyph glyph-name="d" unicode="d" horiz-adv-x="592" 
d="M240 -10c-58 0 -104.999 23.499 -140.999 70.499s-54 116.833 -54 209.5s18.333 162.834 55 210.501s84.667 71.5 144 71.5c24.667 0 46.167 -3.5 64.5 -10.5s34.166 -16.5 47.499 -28.5s25 -25.333 35 -40h4c-1.33301 9.33301 -3 23.666 -5 42.999s-3 37.333 -3 54v190
h133v-760h-102l-25 71h-6c-8.66699 -14.667 -19.667 -28.167 -33 -40.5s-29.333 -22.166 -48 -29.499s-40.667 -11 -66 -11zM284.001 91.999c40.667 0 69.333 13.332 86 39.999s25 67 25 121v16c0 58.667 -7.83301 103.334 -23.5 134.001s-45.167 46 -88.5 46
c-33.333 0 -58.833 -15.833 -76.5 -47.5s-26.5 -76.167 -26.5 -133.5s8.83301 -101 26.5 -131s43.5 -45 77.5 -45z" />
    <glyph glyph-name="e" unicode="e" horiz-adv-x="554" 
d="M285 552c46.667 0 86.832 -9.83105 120.499 -29.498s59.834 -47.667 78.501 -84s28 -80.5 28 -132.5v-64h-332c1.33301 -49.333 13.5 -87.5 36.5 -114.5s55.5 -40.5 97.5 -40.5c32.667 0 62.167 3.5 88.5 10.5s53.5 17.167 81.5 30.5v-101
c-25.333 -12.667 -51.666 -22 -78.999 -28s-61 -9 -101 -9c-50.667 0 -95.5 10.167 -134.5 30.5s-69.5 51.166 -91.5 92.499s-33 92.666 -33 153.999c0 62 10 114.167 30 156.5s48.167 74.333 84.5 96s78.166 32.5 125.499 32.5zM286.998 459.002
c-29.333 0 -53.333 -10.8311 -72 -32.498s-29.667 -53.834 -33 -96.501h204c0 25.333 -3.66699 47.666 -11 66.999s-18.333 34.5 -33 45.5s-33 16.5 -55 16.5z" />
    <glyph glyph-name="f" unicode="f" horiz-adv-x="357" 
d="M349 447l-119.999 -0.00390625v-447h-133v447h-78v60l79 36v37c0 46.667 6.66699 83.334 20 110.001s33 45.834 59 57.501s57.667 17.5 95 17.5c24.667 0 47.167 -2.16699 67.5 -6.5s38.5 -9.16602 54.5 -14.499l-32 -94c-10 3.33301 -21 6.5 -33 9.5s-25 4.5 -39 4.5
c-20.667 0 -35.834 -7.66699 -45.501 -23s-14.5 -36.666 -14.5 -63.999v-35h120v-95z" />
    <glyph glyph-name="g" unicode="g" horiz-adv-x="592" 
d="M243 552c33.333 0 62.3301 -6.66699 86.9971 -20s45.334 -33.333 62.001 -60h5l11 70h112v-546c0 -51.333 -9.16699 -94.5 -27.5 -129.5s-46.166 -61.5 -83.499 -79.5s-84.333 -27 -141 -27c-38 0 -72.5 2.5 -103.5 7.5s-60.5 13.5 -88.5 25.5v104
c20 -8.66699 40 -16.167 60 -22.5s41 -11.166 63 -14.499s45.333 -5 70 -5c38.667 0 68.167 11.667 88.5 35s30.5 56.666 30.5 99.999v14c0 10 0.333008 21.667 1 35s1.66699 24 3 32h-5c-15.333 -28 -35 -48.5 -59 -61.5s-53 -19.5 -87 -19.5
c-60.667 0 -108.5 24.667 -143.5 74s-52.5 118 -52.5 206c0 59.333 8 110 24 152s38.833 74.167 68.5 96.5s64.834 33.5 105.501 33.5zM282.997 449c-22.667 0 -41.665 -6.83105 -56.998 -20.498s-26.833 -33.834 -34.5 -60.501s-11.5 -60 -11.5 -100
c0 -58.667 8.66699 -103 26 -133s43.666 -45 78.999 -45c19.333 0 36 2.83301 50 8.5s25.333 15 34 28s15.334 29.667 20.001 50s7 44.833 7 73.5v19c0 43.333 -3.83301 78.166 -11.5 104.499s-19.834 45.5 -36.501 57.5s-38.334 18 -65.001 18z" />
    <glyph glyph-name="h" unicode="h" horiz-adv-x="609" 
d="M205 579c0 -21.333 -0.832031 -42.168 -2.49902 -62.501s-3.16699 -35.5 -4.5 -45.5h8c10.667 18.667 23.667 33.834 39 45.501s32.166 20.5 50.499 26.5s38.166 9 59.499 9c37.333 0 69.833 -7 97.5 -21s49.167 -35.5 64.5 -64.5s23 -66.833 23 -113.5v-353h-133v328
c0 41.333 -7.16699 72 -21.5 92s-36.166 30 -65.499 30c-28.667 0 -51.5 -7.16699 -68.5 -21.5s-29 -35.333 -36 -63s-10.5 -61.167 -10.5 -100.5v-265h-133v760h133v-181z" />
    <glyph glyph-name="i" unicode="i" horiz-adv-x="277" 
d="M205 542v-542h-132v542h132zM140 751c19.333 0 36 -4.83301 50 -14.5s21 -26.834 21 -51.501c0 -24 -7 -41.167 -21 -51.5s-30.667 -15.5 -50 -15.5c-20.667 0 -38 5.16699 -52 15.5s-21 27.5 -21 51.5c0 24.667 7 41.834 21 51.501s31.333 14.5 52 14.5z" />
    <glyph glyph-name="j" unicode="j" horiz-adv-x="277" 
d="M33 -240c-15.333 0 -31.001 1.16699 -47.001 3.5s-29 5.16602 -39 8.49902v100c10 -2.66699 19.833 -5 29.5 -7s20.167 -3 31.5 -3c18 0 33.333 5.83301 46 17.5s19 33.834 19 66.501v596h131v-609c0 -33.333 -5.5 -63 -16.5 -89s-29.167 -46.5 -54.5 -61.5
s-58.666 -22.5 -99.999 -22.5zM66.999 685c0 24.667 7 41.834 21 51.501s31 14.5 51 14.5c19.333 0 36.166 -4.83301 50.499 -14.5s21.5 -26.834 21.5 -51.501c0 -24 -7.16699 -41.167 -21.5 -51.5s-31.166 -15.5 -50.499 -15.5c-20 0 -37 5.16699 -51 15.5
s-21 27.5 -21 51.5z" />
    <glyph glyph-name="k" unicode="k" horiz-adv-x="566" 
d="M204 399c0 -17.333 -0.667969 -35.501 -2.00098 -54.501s-3 -37.5 -5 -55.5h4c3.33301 8 8.33301 16.833 15 26.5s13.834 19.334 21.501 29.001s15.167 18.5 22.5 26.5l141 171h150l-197 -234l209 -308h-153l-147 232l-59 -52v-180h-132v760h132v-361z" />
    <glyph glyph-name="l" unicode="l" horiz-adv-x="277" 
d="M205 0h-133v760h133v-760z" />
    <glyph glyph-name="m" unicode="m" horiz-adv-x="913" 
d="M667 552c58.667 0 102.665 -15.665 131.998 -46.998s44 -82 44 -152v-353h-131v329c0 40 -6.66699 70.167 -20 90.5s-34 30.5 -62 30.5c-38.667 0 -66 -14.333 -82 -43s-24 -70.334 -24 -125.001v-282h-132v329c0 26.667 -3 49 -9 67s-14.833 31.5 -26.5 40.5
s-27.167 13.5 -46.5 13.5c-26.667 0 -47.667 -7.16699 -63 -21.5s-26.166 -35.166 -32.499 -62.499s-9.5 -61 -9.5 -101v-265h-133v542h102l19 -71h6c10 18.667 22.667 34 38 46s32.5 20.833 51.5 26.5s39.5 8.5 61.5 8.5c38 0 69.833 -6.83301 95.5 -20.5
s45.5 -34.834 59.5 -63.501h7c16.667 29.333 38.834 50.666 66.501 63.999s57.167 20 88.5 20z" />
    <glyph glyph-name="n" unicode="n" horiz-adv-x="609" 
d="M357 552c56.667 0 101.333 -15.667 134 -47s49 -82 49 -152v-353h-133v328c0 40.667 -7 71.167 -21 91.5s-36 30.5 -66 30.5c-44.667 0 -75 -15.833 -91 -47.5s-24 -77.5 -24 -137.5v-265h-133v542h102l19 -71h6c10.667 18.667 24.167 34 40.5 46s34.5 20.833 54.5 26.5
s41 8.5 63 8.5z" />
    <glyph glyph-name="o" unicode="o" horiz-adv-x="582" 
d="M538 272c0 -45.333 -5.66602 -85.334 -16.999 -120.001s-27.833 -64.167 -49.5 -88.5s-47.834 -42.666 -78.501 -54.999s-65 -18.5 -103 -18.5c-35.333 0 -68 6.16699 -98 18.5s-56 30.666 -78 54.999s-39 53.833 -51 88.5s-18 74.667 -18 120c0 60 10 110.833 30 152.5
s48.5 73.334 85.5 95.001s81.167 32.5 132.5 32.5c47.333 0 89.5 -11 126.5 -33s66 -53.667 87 -95s31.5 -92 31.5 -152zM180.001 271.999c0 -38 3.83203 -70.5 11.499 -97.5s19.667 -47.5 36 -61.5s37.833 -21 64.5 -21c26 0 47.167 7 63.5 21s28.333 34.5 36 61.5
s11.5 59.5 11.5 97.5c0 38.667 -3.83301 71.167 -11.5 97.5s-19.667 46.333 -36 60s-37.833 20.5 -64.5 20.5c-39.333 0 -67.666 -15.333 -84.999 -46s-26 -74.667 -26 -132z" />
    <glyph glyph-name="p" unicode="p" horiz-adv-x="592" 
d="M352 552c59.333 0 106.668 -23.498 142.001 -70.498s53 -116.833 53 -209.5c0 -61.333 -8.33301 -113 -25 -155s-40 -73.667 -70 -95s-64.667 -32 -104 -32c-24.667 0 -46.167 3.5 -64.5 10.5s-33.833 16 -46.5 27s-23.334 22.833 -32.001 35.5h-7
c2 -12 3.66699 -25.5 5 -40.5s2 -29.167 2 -42.5v-220h-133v782h108l18 -72h7c8.66699 15.333 19.667 29.166 33 41.499s29.333 22.166 48 29.499s40.667 11 66 11zM310.002 450.002c-25.333 0 -45.832 -5.83203 -61.499 -17.499s-26.834 -29.5 -33.501 -53.5
s-10 -54 -10 -90v-16c0 -38.667 3.16699 -71.334 9.5 -98.001s17.333 -47 33 -61s37.167 -21 64.5 -21c22.667 0 41.334 7.33301 56.001 22s25.667 35.5 33 62.5s11 59.167 11 96.5c0 56 -8.33301 99.333 -25 130s-42.334 46 -77.001 46z" />
    <glyph glyph-name="q" unicode="q" horiz-adv-x="592" 
d="M387 -11c0 12.667 0.499023 26.502 1.49902 41.502s2.5 28.5 4.5 40.5h-6c-13.333 -22.667 -31.666 -41.834 -54.999 -57.501s-54 -23.5 -92 -23.5c-58 0 -105 23.5 -141 70.5s-54 116.833 -54 209.5c0 62 8.33301 114 25 156s40 73.5 70 94.5s64.333 31.5 103 31.5
c38 0 68.833 -7.83301 92.5 -23.5s42.5 -34.834 56.5 -57.501h4l12 71h112v-782h-133v229zM284.999 90.002c27.333 0 49.001 5.83203 65.001 17.499s27.5 29.5 34.5 53.5s10.5 54 10.5 90v18c0 58.667 -7.83301 103.334 -23.5 134.001s-45.167 46 -88.5 46
c-34.667 0 -60.5 -15.833 -77.5 -47.5s-25.5 -76.167 -25.5 -133.5c0 -58 8.66699 -102.167 26 -132.5s43.666 -45.5 78.999 -45.5z" />
    <glyph glyph-name="r" unicode="r" horiz-adv-x="418" 
d="M349 552c9.33301 0 19.001 -0.334961 29.001 -1.00195s18.333 -2 25 -4l-12 -117c-6.66699 1.33301 -14.5 2.5 -23.5 3.5s-18.5 1.5 -28.5 1.5c-16.667 0 -32.834 -3.16699 -48.501 -9.5s-30 -15.666 -43 -27.999s-23.333 -28.166 -31 -47.499s-11.5 -42.333 -11.5 -69
v-281h-133v542h102l18 -94h7c10 19.333 22.5 36.833 37.5 52.5s32 28.167 51 37.5s39.5 14 61.5 14z" />
    <glyph glyph-name="s" unicode="s" horiz-adv-x="468" 
d="M429 157c0 -36 -7.99902 -66.5 -23.999 -91.5s-39.667 -43.833 -71 -56.5s-70.666 -19 -117.999 -19c-36 0 -67.333 2.66699 -94 8s-52.334 13.666 -77.001 24.999v107c26.667 -12.667 55.5 -23.334 86.5 -32.001s59.167 -13 84.5 -13c30 0 51.667 5.33301 65 16
s20 25 20 43c0 10.667 -3 20.334 -9 29.001s-17.333 17.834 -34 27.501s-41 21.834 -73 36.501c-31.333 14 -57.333 28 -78 42s-36.334 30.833 -47.001 50.5s-16 44.5 -16 74.5c0 48.667 18.5 85.5 55.5 110.5s85.5 37.5 145.5 37.5c32.667 0 63.167 -3.16699 91.5 -9.5
s56.833 -16.5 85.5 -30.5l-39 -93c-16 7.33301 -32.167 13.833 -48.5 19.5s-32.166 10.167 -47.499 13.5s-30 5 -44 5c-23.333 0 -41 -4.16699 -53 -12.5s-18 -19.833 -18 -34.5c0 -11.333 3.16699 -21.166 9.5 -29.499s17.666 -16.833 33.999 -25.5
s39.833 -19.334 70.5 -32.001s56.667 -25.834 78 -39.501s37.5 -30.5 48.5 -50.5s16.5 -45.333 16.5 -76z" />
    <glyph glyph-name="t" unicode="t" horiz-adv-x="392" 
d="M284 91c14.667 0 28.833 1.50098 42.5 4.50098s26.5 6.5 38.5 10.5v-94c-14 -6 -31.167 -11.167 -51.5 -15.5s-42.5 -6.5 -66.5 -6.5c-30 0 -57.167 5.16699 -81.5 15.5s-43.333 28.166 -57 53.499s-20.5 60.666 -20.5 105.999v282h-68v55l76 44l40 115h84v-119h140v-95
h-140v-281c0 -25.333 5.83301 -44.166 17.5 -56.499s27.167 -18.5 46.5 -18.5z" />
    <glyph glyph-name="u" unicode="u" horiz-adv-x="609" 
d="M536 542v-541.997h-101l-18 70h-7c-10.667 -18.667 -24.5 -33.834 -41.5 -45.501s-35.333 -20.334 -55 -26.001s-40.5 -8.5 -62.5 -8.5c-36.667 0 -68.667 7 -96 21s-48.5 35.5 -63.5 64.5s-22.5 66.5 -22.5 112.5v354h133v-329c0 -40 6.83301 -70.167 20.5 -90.5
s35.5 -30.5 65.5 -30.5s53.333 7.16699 70 21.5s28.5 35.166 35.5 62.499s10.5 61 10.5 101v265h132z" />
    <glyph glyph-name="v" unicode="v" horiz-adv-x="527" 
d="M195 0l-194.999 542.001h139l97 -313c4.66699 -12.667 8.5 -26.5 11.5 -41.5l8.5 -44c2.66699 -14.333 4 -26.833 4 -37.5h4c1.33301 11.333 3.16602 24.166 5.49902 38.499s5.5 28.833 9.5 43.5l11 41l98 313h139l-195 -542h-137z" />
    <glyph glyph-name="w" unicode="w" horiz-adv-x="797" 
d="M428 294l-15.999 73c-5.33301 24.667 -9.33301 46 -12 64h-3c-2 -18 -5.5 -39.667 -10.5 -65s-10.5 -50.333 -16.5 -75l-73 -291h-153l-134 543h131l59 -282l10 -54c3.33301 -18 6.33301 -35.167 9 -51.5s4.66699 -30.833 6 -43.5h4c1.33301 12 3.66602 27 6.99902 45
s6.83301 35.833 10.5 53.5l8.5 41.5l72 291h145l70 -291c2.66699 -11.333 5.66699 -25.5 9 -42.5s6.5 -34.167 9.5 -51.5s4.83301 -32.333 5.5 -45h3c2 17.333 5.5 39.5 10.5 66.5s10.5 54.167 16.5 81.5l63 282h128l-137 -543h-154z" />
    <glyph glyph-name="x" unicode="x" horiz-adv-x="543" 
d="M184 277l-167 265h151l104 -184l104 184h150l-169 -265l177 -277h-150l-112 197l-113 -197h-150z" />
    <glyph glyph-name="y" unicode="y" horiz-adv-x="528" 
d="M0 542l142.002 0.00292969l97 -306c4.66699 -12.667 8.5 -25.334 11.5 -38.001s5.66699 -25.334 8 -38.001s4.16602 -25.334 5.49902 -38.001h3c2.66699 16.667 6.16699 35 10.5 55s9.5 39.667 15.5 59l95 306h140l-215 -613c-12.667 -36 -28.5 -66.667 -47.5 -92
s-42 -44.5 -69 -57.5s-59.167 -19.5 -96.5 -19.5c-15.333 0 -28.833 0.833008 -40.5 2.5s-21.834 3.5 -30.501 5.5v100c6.66699 -1.33301 15 -2.66602 25 -3.99902s20.333 -2 31 -2c19.333 0 35.833 4.16699 49.5 12.5s25.167 19.666 34.5 33.999s16.333 30.833 21 49.5
l14 44z" />
    <glyph glyph-name="z" unicode="z" horiz-adv-x="459" 
d="M429 0h-400v77l242 369h-228v96h377v-85l-235 -360h244v-97z" />
    <glyph glyph-name="braceleft" unicode="{" horiz-adv-x="377" 
d="M344 -158c-51.333 0 -92 5.1709 -122 15.5039s-51.5 26.166 -64.5 47.499s-19.5 48.666 -19.5 81.999v151c0 22 -4.83301 39.5 -14.5 52.5s-23.167 22.5 -40.5 28.5s-37.333 9 -60 9v100c23.333 0 43.5 3 60.5 9s30.333 15.667 40 29s14.5 30.333 14.5 51v153
c0 24.667 3.5 46.167 10.5 64.5s18.667 33.166 35 44.499s37.5 20 63.5 26s58.333 9 97 9v-96c-16.667 0 -31.834 -2.5 -45.501 -7.5s-24.5 -13 -32.5 -24s-12 -26.5 -12 -46.5v-145c0 -32 -9 -57.5 -27 -76.5s-44.667 -31.5 -80 -37.5v-6
c35.333 -5.33301 62 -17.5 80 -36.5s27 -44.5 27 -76.5v-146c0 -20 4 -35.5 12 -46.5s18.833 -18.833 32.5 -23.5s28.834 -7.33398 45.501 -8.00098v-96z" />
    <glyph glyph-name="bar" unicode="|" horiz-adv-x="505" 
d="M204 758h97v-990h-97v990z" />
    <glyph glyph-name="braceright" unicode="}" horiz-adv-x="377" 
d="M33 -62c17.333 0.666992 32.834 3.33105 46.501 7.99805s24.5 12.667 32.5 24s12 26.666 12 45.999v146c0 32 9 57.333 27 76s44.333 31 79 37v6c-34.667 6 -61 18.333 -79 37s-27 44 -27 76v146c0 20 -4 35.5 -12 46.5s-18.833 19 -32.5 24s-29.167 7.5 -46.5 7.5v96
c39.333 0 72.166 -3 98.499 -9s47.333 -14.667 63 -26s27 -26.166 34 -44.499s10.5 -40.166 10.5 -65.499v-151c0 -21.333 4.83301 -38.666 14.5 -51.999s23.167 -23 40.5 -29s37.666 -9 60.999 -9v-100c-23.333 0 -43.666 -3 -60.999 -9s-30.833 -15.5 -40.5 -28.5
s-14.5 -30.5 -14.5 -52.5v-152c0 -33.333 -6.5 -60.5 -19.5 -81.5s-34.5 -36.667 -64.5 -47s-70.667 -15.5 -122 -15.5v96z" />
    <glyph glyph-name="asciitilde" unicode="~" horiz-adv-x="536" 
d="M251 308c-22.667 10.667 -41.998 17.833 -57.998 21.5s-31.333 5.5 -46 5.5c-17.333 0 -35.666 -5.66699 -54.999 -17s-36.666 -25.333 -51.999 -42v100c15.333 17.333 32.666 30.5 51.999 39.5s41 13.5 65 13.5c18.667 0 37.167 -2 55.5 -6s42.166 -12.667 71.499 -26
c23.333 -10.667 43 -17.834 59 -21.501s31 -5.5 45 -5.5c17.333 0 35.666 5.66699 54.999 17s36.666 25.333 51.999 42v-99c-15.333 -17.333 -32.833 -30.666 -52.5 -39.999s-41.167 -14 -64.5 -14c-18 0 -36.333 2 -55 6s-42.667 12.667 -72 26z" />
    <glyph glyph-name="uni00A0" unicode="&#xa0;" horiz-adv-x="244" 
 />
    <glyph glyph-name="exclamdown" unicode="&#xa1;" horiz-adv-x="266" 
d="M79 309h108l21 -490h-152zM211 469c0 -28.667 -7.66699 -48.667 -23 -60s-33.666 -17 -54.999 -17s-39.666 5.66699 -54.999 17s-23 31 -23 59s7.66699 48 23 60s33.666 18 54.999 18s39.666 -6 54.999 -18s23 -31.667 23 -59z" />
    <glyph glyph-name="cent" unicode="&#xa2;" horiz-adv-x="542" 
d="M342 646c26.667 -1.33301 51.5 -5.1709 74.5 -11.5039s43.833 -13.5 62.5 -21.5l-40 -100c-20 8.66699 -39.667 15.834 -59 21.501s-38.333 8.5 -57 8.5c-25.333 0 -46.833 -6.66699 -64.5 -20s-30.834 -33.333 -39.501 -60s-13 -60 -13 -100s4.5 -72.833 13.5 -98.5
s22.167 -44.834 39.5 -57.501s38.333 -19 63 -19c27.333 0 52.333 3.16699 75 9.5s45.334 14.833 68.001 25.5v-107c-18.667 -9.33301 -37.667 -16.666 -57 -21.999s-41.333 -8.66602 -66 -9.99902v-94h-80v98c-39.333 6 -73.333 19.333 -102 40s-50.667 50.334 -66 89.001
s-23 87 -23 145c0 62 8 112.333 24 151s38.333 68.334 67 89.001s62 34 100 40v82h80v-78z" />
    <glyph glyph-name="sterling" unicode="&#xa3;" horiz-adv-x="542" 
d="M322 724c34 0 65.999 -3.99902 95.999 -11.999s57 -17.667 81 -29l-40 -96c-21.333 9.33301 -42.666 17.333 -63.999 24s-42 10 -62 10c-24 0 -43.333 -7.66699 -58 -23s-22 -41 -22 -77v-111h174v-91h-174v-83c0 -24.667 -3.5 -45.334 -10.5 -62.001
s-15.5 -30 -25.5 -40s-20.667 -18.333 -32 -25h333v-109h-480v103c18 6.66699 33.167 15.167 45.5 25.5s21.833 24 28.5 41s10 38.833 10 65.5v84h-82v91h82v115c0 46 8.5 83.5 25.5 112.5s40.667 50.667 71 65s64.833 21.5 103.5 21.5z" />
    <glyph glyph-name="currency" unicode="&#xa4;" horiz-adv-x="536" 
d="M85 353c0 18.667 2.16699 36.6689 6.5 54.002s10.5 33 18.5 47l-59 65l64 62l60 -63c12.667 9.33301 27 16.666 43 21.999s32.333 8 49 8s32.5 -2.5 47.5 -7.5s29.833 -12.5 44.5 -22.5l59 63l65 -61l-60 -65c8 -14 14.333 -29.833 19 -47.5s7 -35.834 7 -54.501
c0 -19.333 -2.16699 -37.5 -6.5 -54.5s-10.833 -33.167 -19.5 -48.5l58 -63l-63 -61l-59 62c-14 -8.66699 -28.667 -15.667 -44 -21s-31.333 -8 -48 -8c-17.333 0 -34 2.5 -50 7.5s-30.667 12.167 -44 21.5l-58 -61l-63 61l58 63c-8 15.333 -14.167 31.5 -18.5 48.5
s-6.5 34.833 -6.5 53.5zM176 353.002c0 -19.333 4 -37 12 -53s19 -28.833 33 -38.5s29.333 -14.5 46 -14.5s32 4.83301 46 14.5s25.167 22.5 33.5 38.5s12.5 33.667 12.5 53c0 20 -4.16699 38.167 -12.5 54.5s-19.5 29.166 -33.5 38.499s-29.333 14 -46 14
s-32 -4.66699 -46 -14s-25 -22.166 -33 -38.499s-12 -34.5 -12 -54.5z" />
    <glyph glyph-name="yen" unicode="&#xa5;" horiz-adv-x="541" 
d="M270 399l127 315h137l-178 -369h99v-78h-123v-73h123v-78h-123v-116h-124v116h-124v78h124v73h-124v78h97l-175 369h137z" />
    <glyph glyph-name="brokenbar" unicode="&#xa6;" horiz-adv-x="505" 
d="M204 758h97v-391h-97v391zM204 159h97v-391h-97v391z" />
    <glyph glyph-name="section" unicode="&#xa7;" horiz-adv-x="470" 
d="M56 393c0 30 7.16699 55.1689 21.5 75.502s30.5 35.833 48.5 46.5c-20.667 13.333 -36.834 29.333 -48.501 48s-17.5 40.667 -17.5 66c0 41.333 16.5 74.333 49.5 99s78.5 37 136.5 37c32.667 0 62.334 -3.5 89.001 -10.5s52 -16.167 76 -27.5l-35 -84
c-21.333 10.667 -42.833 19.667 -64.5 27s-44.5 11 -68.5 11c-27.333 0 -46.833 -4.16699 -58.5 -12.5s-17.5 -20.833 -17.5 -37.5c0 -11.333 3.16699 -21.5 9.5 -30.5s17 -17.833 32 -26.5s35.167 -18.334 60.5 -29.001c32 -12.667 59.333 -26.5 82 -41.5
s39.667 -32.333 51 -52s17 -42.834 17 -69.501c0 -22 -3 -41.167 -9 -57.5s-14 -30.333 -24 -42s-20.667 -21.5 -32 -29.5c18.667 -12.667 33.5 -27.667 44.5 -45s16.5 -38.333 16.5 -63c0 -47.333 -17.667 -84.666 -53 -111.999s-85 -41 -149 -41
c-33.333 0 -63.166 3.16699 -89.499 9.5s-49.833 15.5 -70.5 27.5v91c16 -8 33.167 -15.5 51.5 -22.5s37 -12.667 56 -17s36.833 -6.5 53.5 -6.5c35.333 0 59.666 6.16699 72.999 18.5s20 27.166 20 44.499c0 11.333 -2.33301 21.333 -7 30s-14.167 17.5 -28.5 26.5
s-35.5 19.5 -63.5 31.5c-31.333 14 -58.333 28.167 -81 42.5s-40.167 31.5 -52.5 51.5s-18.5 44.667 -18.5 74zM157 403.002c0 -14 3.66797 -26.999 11.001 -38.999s18.833 -23.333 34.5 -34s36.5 -22 62.5 -34l13 -5c9.33301 8 18.166 18.167 26.499 30.5
s12.5 28.166 12.5 47.499c0 14.667 -3.33301 28 -10 40s-18.167 23.5 -34.5 34.5s-39.5 22.167 -69.5 33.5c-12 -4.66699 -22.667 -13.5 -32 -26.5s-14 -28.833 -14 -47.5z" />
    <glyph glyph-name="dieresis" unicode="&#xa8;" horiz-adv-x="560" 
d="M124 684c0 21.333 6 36.666 18 45.999s26.667 14 44 14c16 0 30.167 -4.66699 42.5 -14s18.5 -24.666 18.5 -45.999c0 -20 -6.16699 -34.833 -18.5 -44.5s-26.5 -14.5 -42.5 -14.5c-17.333 0 -32 4.83301 -44 14.5s-18 24.5 -18 44.5zM317 684
c0 21.333 6 36.666 18 45.999s26.333 14 43 14c17.333 0 32.166 -4.66699 44.499 -14s18.5 -24.666 18.5 -45.999c0 -20 -6.16699 -34.833 -18.5 -44.5s-27.166 -14.5 -44.499 -14.5c-16.667 0 -31 4.83301 -43 14.5s-18 24.5 -18 44.5z" />
    <glyph glyph-name="copyright" unicode="&#xa9;" horiz-adv-x="780" 
d="M409 515c-33.333 0 -59.166 -13.999 -77.499 -41.999s-27.5 -66.667 -27.5 -116c0 -50.667 8.16699 -89.834 24.5 -117.501s43.166 -41.5 80.499 -41.5c16 0 33.333 2.16699 52 6.5s36.334 9.83301 53.001 16.5v-64c-16.667 -6.66699 -33.334 -12.334 -50.001 -17.001
s-36.334 -7 -59.001 -7c-64 0 -112 20.5 -144 61.5s-48 95.167 -48 162.5c0 43.333 7.33301 81.833 22 115.5s36.334 60 65.001 79s64 28.5 106 28.5c22 0 43.667 -2.66699 65 -8s41.333 -12.666 60 -21.999l-32 -61c-15.333 8.66699 -30.5 15.167 -45.5 19.5
s-29.833 6.5 -44.5 6.5zM45 357.001c0 50.667 8.83301 98.167 26.5 142.5s42.334 83.333 74.001 117s68.334 60 110.001 79s86.5 28.5 134.5 28.5s92.833 -9.5 134.5 -28.5s78.334 -45.333 110.001 -79s56.334 -72.667 74.001 -117s26.5 -91.833 26.5 -142.5
s-8.83301 -98.167 -26.5 -142.5s-42.334 -83.333 -74.001 -117s-68.334 -60 -110.001 -79s-86.5 -28.5 -134.5 -28.5s-92.833 9.5 -134.5 28.5s-78.334 45.333 -110.001 79s-56.334 72.667 -74.001 117s-26.5 91.833 -26.5 142.5zM102 357.001c0 -43.333 7.5 -84 22.5 -122
s35.667 -71.333 62 -100s56.833 -51.167 91.5 -67.5s72 -24.5 112 -24.5c39.333 0 76.5 8.16699 111.5 24.5s65.667 38.833 92 67.5s46.833 62 61.5 100s22 78.667 22 122s-7.5 84 -22.5 122s-35.5 71.333 -61.5 100s-56.5 51.167 -91.5 67.5s-72.167 24.5 -111.5 24.5
c-40 0 -77.333 -8.16699 -112 -24.5s-65.167 -38.833 -91.5 -67.5s-47 -62 -62 -100s-22.5 -78.667 -22.5 -122z" />
    <glyph glyph-name="ordfeminine" unicode="&#xaa;" horiz-adv-x="356" 
d="M184 722c42 0 74.1699 -10.8369 96.5029 -32.5039s33.5 -52.5 33.5 -92.5v-218h-59l-16 50c-12.667 -17.333 -28 -31 -46 -41s-39.333 -15 -64 -15c-20 0 -38 3.83301 -54 11.5s-28.333 19.334 -37 35.001s-13 35.167 -13 58.5c0 24.667 5.83301 44.834 17.5 60.501
s29.167 27.334 52.5 35.001s51.666 12.167 84.999 13.5l47 2v13c0 18 -5.33301 31.333 -16 40s-25 13 -43 13c-15.333 0 -30.833 -2.66699 -46.5 -8s-32.5 -12 -50.5 -20l-27 59c12.667 6.66699 26.167 12.834 40.5 18.501s29.666 10 45.999 13s34.166 4.5 53.499 4.5z
M184.003 532.996c-28.667 -1.33301 -47.5 -7.16797 -56.5 -17.501s-13.5 -22.5 -13.5 -36.5s3.5 -24.333 10.5 -31s16.5 -10 28.5 -10c24.667 0 43.167 7.33301 55.5 22s18.5 33.334 18.5 56.001v20z" />
    <glyph glyph-name="guillemotleft" unicode="&#xab;" horiz-adv-x="563" 
d="M37 276l168 214l95 -49l-128 -171l128 -170l-95 -50l-168 213v13zM263 276l169 214l95 -49l-129 -171l129 -170l-95 -50l-169 213v13z" />
    <glyph glyph-name="logicalnot" unicode="&#xac;" horiz-adv-x="536" 
d="M495 399v-275h-97v182h-358v93h455z" />
    <glyph glyph-name="uni00AD" unicode="&#xad;" horiz-adv-x="322" 
d="M29 215v106h244v-106h-244z" />
    <glyph glyph-name="registered" unicode="&#xae;" horiz-adv-x="780" 
d="M376 373c22.667 0 40.333 6.66699 53 20s19 30.333 19 51c0 23.333 -6 40.333 -18 51s-30 16 -54 16h-34v-138h34zM537.999 446c0 -31.333 -7.16699 -56.168 -21.5 -74.501s-30.833 -31.5 -49.5 -39.5l103 -194h-97l-86 173h-45v-173h-89v437h124
c56 0 96.833 -10.667 122.5 -32s38.5 -53.666 38.5 -96.999zM44.999 356.998c0 50.667 8.83301 98.167 26.5 142.5s42.334 83.333 74.001 117s68.334 60 110.001 79s86.5 28.5 134.5 28.5s92.833 -9.5 134.5 -28.5s78.334 -45.333 110.001 -79s56.334 -72.667 74.001 -117
s26.5 -91.833 26.5 -142.5s-8.83301 -98.167 -26.5 -142.5s-42.334 -83.333 -74.001 -117s-68.334 -60 -110.001 -79s-86.5 -28.5 -134.5 -28.5s-92.833 9.5 -134.5 28.5s-78.334 45.333 -110.001 79s-56.334 72.667 -74.001 117s-26.5 91.833 -26.5 142.5zM101.999 356.998
c0 -43.333 7.5 -84 22.5 -122s35.667 -71.333 62 -100s56.833 -51.167 91.5 -67.5s72 -24.5 112 -24.5c39.333 0 76.5 8.16699 111.5 24.5s65.667 38.833 92 67.5s46.833 62 61.5 100s22 78.667 22 122s-7.5 84 -22.5 122s-35.5 71.333 -61.5 100s-56.5 51.167 -91.5 67.5
s-72.167 24.5 -111.5 24.5c-40 0 -77.333 -8.16699 -112 -24.5s-65.167 -38.833 -91.5 -67.5s-47 -62 -62 -100s-22.5 -78.667 -22.5 -122z" />
    <glyph glyph-name="overscore" unicode="&#xaf;" horiz-adv-x="470" 
d="M473 760h-476v86h476v-86z" />
    <glyph glyph-name="degree" unicode="&#xb0;" horiz-adv-x="401" 
d="M43 561c0 30.667 7.00098 58.167 21.001 82.5s33 43.833 57 58.5s50.333 22 79 22c29.333 0 55.833 -7.33301 79.5 -22s42.667 -34.167 57 -58.5s21.5 -51.833 21.5 -82.5s-7.16699 -58.334 -21.5 -83.001s-33.333 -44.167 -57 -58.5s-49.834 -21.5 -78.501 -21.5
c-29.333 0 -56 7.16699 -80 21.5s-43 33.833 -57 58.5s-21 52.334 -21 83.001zM126.001 561c0 -22.667 7.33496 -42.166 22.002 -58.499s32.334 -24.5 53.001 -24.5c13.333 0 25.666 3.83301 36.999 11.5s20.166 17.667 26.499 30s9.5 26.166 9.5 41.499
c0 23.333 -7.16699 43 -21.5 59s-31.5 24 -51.5 24c-20.667 0 -38.334 -8 -53.001 -24s-22 -35.667 -22 -59z" />
    <glyph glyph-name="plusminus" unicode="&#xb1;" horiz-adv-x="536" 
d="M40 0v93h455v-93h-455zM315 419h180v-93h-180v-195h-96v195h-179v93h179v196h96v-196z" />
    <glyph glyph-name="uni00B2" unicode="&#xb2;" horiz-adv-x="353" 
d="M317 416l-289.997 0.00195312v71l104 109c20.667 22 36.5 40.167 47.5 54.5s18.833 27.333 23.5 39s7 23.5 7 35.5c0 16 -4 28 -12 36s-19.333 12 -34 12c-13.333 0 -26.833 -3.5 -40.5 -10.5s-28.834 -17.833 -45.501 -32.5l-51 64c19.333 18 41.166 32.5 65.499 43.5
s52.833 16.5 85.5 16.5c42 0 74.833 -10.5 98.5 -31.5s35.5 -50.833 35.5 -89.5c0 -20.667 -4.33301 -39.834 -13 -57.501s-21.334 -35.834 -38.001 -54.501l-58 -64l-54 -57h169v-84z" />
    <glyph glyph-name="uni00B3" unicode="&#xb3;" horiz-adv-x="353" 
d="M171 853c42.667 0 76.165 -10.167 100.498 -30.5s36.5 -47.5 36.5 -81.5c0 -24 -6 -44.333 -18 -61s-30.333 -29.334 -55 -38.001v-5c28.667 -5.33301 50.334 -17.166 65.001 -35.499s22 -39.833 22 -64.5c0 -39.333 -14.167 -70.666 -42.5 -93.999
s-70.166 -35 -125.499 -35c-24 0 -46.667 2.5 -68 7.5s-41.666 13.167 -60.999 24.5v81c20.667 -11.333 41.834 -20.833 63.501 -28.5s43.167 -11.5 64.5 -11.5c24 0 42 5.33301 54 16s18 25.667 18 45c0 17.333 -6 31.5 -18 42.5s-33 16.5 -63 16.5h-52v69h45
c30 0 50.333 5.83301 61 17.5s16 25.5 16 41.5s-4.5 28.333 -13.5 37s-21.5 13 -37.5 13c-16.667 0 -32.167 -3.16699 -46.5 -9.5s-29.833 -15.833 -46.5 -28.5l-45 61c19.333 15.333 40.666 27.666 63.999 36.999s50.666 14 81.999 14z" />
    <glyph glyph-name="acute" unicode="&#xb4;" horiz-adv-x="335" 
d="M295 756c-8.66699 -9.33301 -20 -20.667 -34 -34l-45 -42l-47 -41.5c-15.333 -13 -29 -23.833 -41 -32.5h-88v13l34.5 44.5l39 53c13 18.333 23.833 34.833 32.5 49.5h149v-10z" />
    <glyph glyph-name="uni00B5" unicode="&#xb5;" horiz-adv-x="612" 
d="M540 542l-0.00292969 -542h-102l-19 73h-6c-8 -18 -18.167 -33.167 -30.5 -45.5s-26 -21.666 -41 -27.999s-31.833 -9.5 -50.5 -9.5c-20 0 -37.167 4 -51.5 12s-26.833 18.667 -37.5 32h-2c0.666992 -6.66699 1.33398 -16.667 2.00098 -30s1.33398 -27.833 2.00098 -43.5
s1 -30.5 1 -44.5v-156h-133v782h133v-329c0 -39.333 7.16699 -69.333 21.5 -90s36.5 -31 66.5 -31c28.667 0 51.334 7.16699 68.001 21.5s28.5 35.166 35.5 62.499s10.5 61 10.5 101v265h133z" />
    <glyph glyph-name="paragraph" unicode="&#xb6;" horiz-adv-x="612" 
d="M532 -127l-72 0.00195312v805h-82v-805h-71v400c-9.33301 -2.66699 -19.166 -4.83398 -29.499 -6.50098s-21.833 -2.5 -34.5 -2.5c-38.667 0 -72.5 7.66699 -101.5 23s-51.5 41 -67.5 77s-24 84.333 -24 145c0 64 8.66699 114.167 26 150.5s41.666 62.166 72.999 77.499
s67.333 23 108 23h275v-887z" />
    <glyph glyph-name="periodcentered" unicode="&#xb7;" horiz-adv-x="279" 
d="M55 352c0 28.667 7.5 48.667 22.5 60s33.167 17 54.5 17c20.667 0 38.667 -5.66699 54 -17s23 -31.333 23 -60c0 -27.333 -7.66699 -47 -23 -59s-33.333 -18 -54 -18c-21.333 0 -39.5 6 -54.5 18s-22.5 31.667 -22.5 59z" />
    <glyph glyph-name="cedilla" unicode="&#xb8;" horiz-adv-x="235" 
d="M223 -128c0 -24 -5 -44.3311 -15 -60.998s-25 -29.334 -45 -38.001s-45.333 -13 -76 -13c-14.667 0 -28.167 0.833008 -40.5 2.5s-22.5 3.5 -30.5 5.5v72c8 -2 17.5 -3.83301 28.5 -5.5s20.833 -2.5 29.5 -2.5c14.667 0 26.334 2.5 35.001 7.5s13 14.167 13 27.5
c0 14 -6.5 25.5 -19.5 34.5s-32.167 15.5 -57.5 19.5l35 79h77l-15 -39c13.333 -3.33301 26.166 -9 38.499 -17s22.5 -17.833 30.5 -29.5s12 -25.834 12 -42.501z" />
    <glyph glyph-name="uni00B9" unicode="&#xb9;" horiz-adv-x="353" 
d="M251 844v-428.002h-100v240c0 9.33301 0.166992 20.333 0.5 33s0.833008 24.834 1.5 36.501s1.33398 20.5 2.00098 26.5l-17 -19c-6.66699 -7.33301 -13.334 -13.666 -20.001 -18.999l-41 -33l-49 57l138 106h85z" />
    <glyph glyph-name="ordmasculine" unicode="&#xba;" horiz-adv-x="362" 
d="M336 548c0 -56 -14.168 -99.167 -42.501 -129.5s-66.166 -45.5 -113.499 -45.5c-44.667 0 -81.5 15.167 -110.5 45.5s-43.5 73.5 -43.5 129.5s14 99 42 129s66 45 114 45c30 0 56.667 -6.66699 80 -20s41.5 -33 54.5 -59s19.5 -57.667 19.5 -95zM113.999 548
c0 -34.667 5.33301 -60.834 16 -78.501s27.667 -26.5 51 -26.5c22.667 0 39.167 8.83301 49.5 26.5s15.5 43.834 15.5 78.501c0 35.333 -5.16699 61.5 -15.5 78.5s-26.833 25.5 -49.5 25.5c-23.333 0 -40.333 -8.5 -51 -25.5s-16 -43.167 -16 -78.5z" />
    <glyph glyph-name="guillemotright" unicode="&#xbb;" horiz-adv-x="563" 
d="M526 263l-169 -213l-94 50l128 170l-128 171l94 49l169 -214v-13zM300 263l-169 -213l-95 50l128 170l-128 171l95 49l169 -214v-13z" />
    <glyph glyph-name="onequarter" unicode="&#xbc;" horiz-adv-x="770" 
d="M142 0l378 714h105l-377 -714h-106zM139 526c0 9.33301 0.166016 20.3301 0.499023 32.9971s0.833008 24.834 1.5 36.501s1.33398 20.5 2.00098 26.5c-4 -5.33301 -9.33301 -11.666 -16 -18.999s-13 -13.666 -19 -18.999l-42 -33l-49 57l138 106h85v-428h-101v240z
M602.999 -0.00292969v82h-177v67l175 282h103v-275h57v-74h-57v-82h-101zM507.999 155.997h94.999v85c0 13.333 0.333008 28.333 1 45l2 49c-4.66699 -8 -10.667 -20.333 -18 -37s-13.666 -30 -18.999 -40z" />
    <glyph glyph-name="onehalf" unicode="&#xbd;" horiz-adv-x="804" 
d="M136 0l377 714h105l-377 -714h-105zM136 526l0.000976562 24.498c0 9 0.166992 18 0.5 27s0.833008 17.5 1.5 25.5s1 14.333 1 19c-4 -5.33301 -9.33301 -11.666 -16 -18.999s-13.334 -13.666 -20.001 -18.999l-41 -33l-49 57l138 106h85v-428h-100v240z
M478.001 -0.00195312l0.00195312 71l103 109c21.333 22 37.5 40.167 48.5 54.5s18.667 27.333 23 39s6.5 23.5 6.5 35.5c0 16 -4 28 -12 36s-19 12 -33 12s-28 -3.5 -42 -10.5s-29 -17.833 -45 -32.5l-50 64c20.667 18 43.167 32.5 67.5 43.5s52.166 16.5 83.499 16.5
c40.667 0 73.167 -10.5 97.5 -31.5s36.5 -50.833 36.5 -89.5c0 -20.667 -3.33301 -40.167 -10 -58.5s-16.834 -36.5 -30.501 -54.5s-32.167 -37.333 -55.5 -58l-67 -62h169v-84h-290z" />
    <glyph glyph-name="threequarters" unicode="&#xbe;" horiz-adv-x="795" 
d="M183 0l377 714h105l-377 -714h-105zM161 278c-24.667 0 -47.5029 2.5 -68.5029 7.5s-41.167 13.167 -60.5 24.5v81c20 -11.333 40.667 -20.833 62 -28.5s43 -11.5 65 -11.5c24.667 0 42.834 5.33301 54.501 16s17.5 25.667 17.5 45c0 17.333 -6.5 31.5 -19.5 42.5
s-33.5 16.5 -61.5 16.5h-51v69h44c28.667 0 48.834 5.83301 60.501 17.5s17.5 25.5 17.5 41.5s-4.5 28.333 -13.5 37s-21.833 13 -38.5 13c-16 0 -31.167 -3.16699 -45.5 -9.5s-30.166 -15.833 -47.499 -28.5l-44 61c20.667 15.333 42.667 27.666 66 36.999s50 14 80 14
c42 0 75.333 -10.167 100 -30.5s37 -47.5 37 -81.5c0 -24 -6.16699 -44.333 -18.5 -61s-30.5 -29.334 -54.5 -38.001v-5c28 -5.33301 49.333 -17.166 64 -35.499s22 -39.833 22 -64.5c0 -39.333 -14 -70.666 -42 -93.999s-69.667 -35 -125 -35zM628.997 0v82h-176v67
l174 282h103v-275h57v-74h-57v-82h-101zM533.997 156h94.999v85c0 13.333 0.166992 28.333 0.5 45s0.833008 33 1.5 49c-4 -8 -9.66699 -20.333 -17 -37s-13.666 -30 -18.999 -40z" />
    <glyph glyph-name="questiondown" unicode="&#xbf;" horiz-adv-x="461" 
d="M331 276c0 -23.333 -2.66504 -43.834 -7.99805 -61.501s-14 -34.5 -26 -50.5s-28.667 -32.333 -50 -49c-21.333 -17.333 -37.833 -32.333 -49.5 -45s-19.834 -25.167 -24.501 -37.5s-7 -26.5 -7 -42.5c0 -25.333 7.83301 -44.666 23.5 -57.999s37.167 -20 64.5 -20
c26.667 0 52.834 4.16699 78.501 12.5s51.5 19.5 77.5 33.5l47 -94c-30 -16 -62.333 -29.333 -97 -40s-73.334 -16 -116.001 -16c-64.667 0 -114.667 16.333 -150 49s-53 75 -53 127c0 28.667 4.33301 53 13 73s21 38.667 37 56s36 36 60 56
c19.333 16 34.166 29.667 44.499 41s17.5 22.5 21.5 33.5s6 24.5 6 40.5v25h108v-33zM350.002 467.999c0 -28.667 -7.5 -48.667 -22.5 -60s-33.5 -17 -55.5 -17c-20.667 0 -38.667 5.66699 -54 17s-23 31.333 -23 60c0 27.333 7.66699 47 23 59s33.333 18 54 18
c22 0 40.5 -6 55.5 -18s22.5 -31.667 22.5 -59z" />
    <glyph glyph-name="Agrave" unicode="&#xc0;" horiz-adv-x="642" 
d="M498 0l-55 189h-244l-55 -189h-144l240 717h161l241 -717h-144zM354 483c-2.66699 10.667 -6.16699 23.501 -10.5 38.501s-8.33301 30.5 -12 46.5l-10.5 45c-4.66699 -24.667 -10 -48.334 -16 -71.001l-16 -59l-56 -184h178zM301 938.001l33.001 -49.499
c12.667 -18.333 25.5 -36 38.5 -53l34.5 -44.5v-13h-88c-12 8.66699 -25.833 19.5 -41.5 32.5s-31.5 26.833 -47.5 41.5l-44.5 42c-13.667 13.333 -24.834 24.666 -33.501 33.999v10h149z" />
    <glyph glyph-name="Aacute" unicode="&#xc1;" horiz-adv-x="642" 
d="M498 0l-55 189h-244l-55 -189h-144l240 717h161l241 -717h-144zM354 483c-2.66699 10.667 -6.16699 23.501 -10.5 38.501s-8.33301 30.5 -12 46.5l-10.5 45c-4.66699 -24.667 -10 -48.334 -16 -71.001l-16 -59l-56 -184h178zM511 928.001
c-8.66699 -9.33301 -20 -20.667 -34 -34l-45 -42l-47 -41.5c-15.333 -13 -29 -23.833 -41 -32.5h-88v13l34.5 44.5l39 53c13 18.333 23.833 34.833 32.5 49.5h149v-10z" />
    <glyph glyph-name="Acircumflex" unicode="&#xc2;" horiz-adv-x="642" 
d="M498 0l-55 189h-244l-55 -189h-144l240 717h161l241 -717h-144zM354 483c-2.66699 10.667 -6.16699 23.501 -10.5 38.501s-8.33301 30.5 -12 46.5l-10.5 45c-4.66699 -24.667 -10 -48.334 -16 -71.001l-16 -59l-56 -184h178zM391 938.001
c9.33301 -14.667 21 -31.168 35 -49.501s28.5 -36.166 43.5 -53.499l39.5 -45v-12h-88c-16.667 10.667 -33.5 23.5 -50.5 38.5s-33.833 31.5 -50.5 49.5c-16.667 -18 -33.167 -34.333 -49.5 -49s-32.833 -27.667 -49.5 -39h-88v12l40 45.5l43.5 53
c14.333 18.333 25.5 34.833 33.5 49.5h141z" />
    <glyph glyph-name="Atilde" unicode="&#xc3;" horiz-adv-x="642" 
d="M498 0l-55 189h-244l-55 -189h-144l240 717h161l241 -717h-144zM354 483c-2.66699 10.667 -6.16699 23.501 -10.5 38.501s-8.33301 30.5 -12 46.5l-10.5 45c-4.66699 -24.667 -10 -48.334 -16 -71.001l-16 -59l-56 -184h178zM506 921.001
c-4 -46.667 -16.1699 -82.167 -36.5029 -106.5s-45.833 -36.5 -76.5 -36.5c-13.333 0 -26.5 2.66699 -39.5 8s-25.667 11.666 -38 18.999s-24.333 13.666 -36 18.999s-22.834 8 -33.501 8c-10 0 -18.833 -4.5 -26.5 -13.5s-13.5 -22.833 -17.5 -41.5h-66
c2 24 6.16699 44.833 12.5 62.5s14.333 32.5 24 44.5s21 21 34 27s27.5 9 43.5 9c12.667 0 25.334 -2.66699 38.001 -8s25.334 -11.666 38.001 -18.999s24.834 -13.666 36.501 -18.999s22.834 -8 33.501 -8c10 0 18.833 4.66699 26.5 14s13.5 23 17.5 41h66z" />
    <glyph glyph-name="Adieresis" unicode="&#xc4;" horiz-adv-x="642" 
d="M498 0l-55 189h-244l-55 -189h-144l240 717h161l241 -717h-144zM354 483c-2.66699 10.667 -6.16699 23.501 -10.5 38.501s-8.33301 30.5 -12 46.5l-10.5 45c-4.66699 -24.667 -10 -48.334 -16 -71.001l-16 -59l-56 -184h178zM163 856.001c0 21.333 6 36.666 18 45.999
s26.667 14 44 14c16 0 30.167 -4.66699 42.5 -14s18.5 -24.666 18.5 -45.999c0 -20 -6.16699 -34.833 -18.5 -44.5s-26.5 -14.5 -42.5 -14.5c-17.333 0 -32 4.83301 -44 14.5s-18 24.5 -18 44.5zM356 856.001c0 21.333 6 36.666 18 45.999s26.333 14 43 14
c17.333 0 32.166 -4.66699 44.499 -14s18.5 -24.666 18.5 -45.999c0 -20 -6.16699 -34.833 -18.5 -44.5s-27.166 -14.5 -44.499 -14.5c-16.667 0 -31 4.83301 -43 14.5s-18 24.5 -18 44.5z" />
    <glyph glyph-name="Aring" unicode="&#xc5;" horiz-adv-x="642" 
d="M498 0l-55 189h-244l-55 -189h-144l240 717h161l241 -717h-144zM354 483c-2.66699 10.667 -6.16699 23.501 -10.5 38.501s-8.33301 30.5 -12 46.5l-10.5 45c-4.66699 -24.667 -10 -48.334 -16 -71.001l-16 -59l-56 -184h178zM310 655.001
c-32.667 0 -59.333 9.99902 -80 29.999s-31 47.667 -31 83c0 34.667 10.333 61.834 31 81.501s47.667 29.5 81 29.5c32 0 59.167 -9.83301 81.5 -29.5s33.5 -46.5 33.5 -80.5c0 -36 -11 -64 -33 -84s-49.667 -30 -83 -30zM311.001 717c13.333 0 24.166 4.5 32.499 13.5
s12.5 21.5 12.5 37.5c0 15.333 -4.16699 27.5 -12.5 36.5s-19.166 13.5 -32.499 13.5c-12.667 0 -23.334 -4.5 -32.001 -13.5s-13 -21.167 -13 -36.5c0 -16 3.83301 -28.5 11.5 -37.5s18.834 -13.5 33.501 -13.5z" />
    <glyph glyph-name="AE" unicode="&#xc6;" horiz-adv-x="870" 
d="M817 0h-382v189h-221l-73 -189h-143l304 714h515v-107h-248v-182h232v-107h-232v-210h248v-108zM260 299h175v304h-55z" />
    <glyph glyph-name="Ccedilla" unicode="&#xc7;" horiz-adv-x="600" 
d="M373 616c-28 0 -53.3291 -6.00098 -75.9961 -18.001s-41.834 -29.333 -57.501 -52s-27.5 -50 -35.5 -82s-12 -68 -12 -108c0 -54 6.66699 -100.167 20 -138.5s33.666 -67.833 60.999 -88.5s61.666 -31 102.999 -31c28.667 0 56.667 3.16699 84 9.5s55 14.833 83 25.5
v-109c-27.333 -12 -55.5 -20.667 -84.5 -26s-61.5 -8 -97.5 -8c-70 0 -127.833 15.167 -173.5 45.5s-79.5 73 -101.5 128s-33 119.5 -33 193.5c0 54 7 103.333 21 148s34.667 83.334 62 116.001s61 58 101 76s85.667 27 137 27c33.333 0 67.666 -4.16699 102.999 -12.5
s66.333 -19.833 93 -34.5l-45 -105c-23.333 11.333 -47.5 21.5 -72.5 30.5s-51.5 13.5 -79.5 13.5zM497.004 -128.001c0 -24 -5 -44.3311 -15 -60.998s-25 -29.334 -45 -38.001s-45.333 -13 -76 -13c-14.667 0 -28.167 0.833008 -40.5 2.5s-22.5 3.5 -30.5 5.5v72
c8 -2 17.5 -3.83301 28.5 -5.5s20.833 -2.5 29.5 -2.5c14.667 0 26.334 2.5 35.001 7.5s13 14.167 13 27.5c0 14 -6.5 25.5 -19.5 34.5s-32.167 15.5 -57.5 19.5l35 79h77l-15 -39c13.333 -3.33301 26.166 -9 38.499 -17s22.5 -17.833 30.5 -29.5s12 -25.834 12 -42.501z
" />
    <glyph glyph-name="Egrave" unicode="&#xc8;" horiz-adv-x="522" 
d="M469 0h-385v714h385v-107h-251v-182h235v-107h-235v-210h251v-108zM262 938l33.001 -49.499c12.667 -18.333 25.5 -36 38.5 -53l34.5 -44.5v-13h-88c-12 8.66699 -25.833 19.5 -41.5 32.5s-31.5 26.833 -47.5 41.5l-44.5 42
c-13.667 13.333 -24.834 24.666 -33.501 33.999v10h149z" />
    <glyph glyph-name="Eacute" unicode="&#xc9;" horiz-adv-x="522" 
d="M469 0h-385v714h385v-107h-251v-182h235v-107h-235v-210h251v-108zM471 928c-8.66699 -9.33301 -20 -20.667 -34 -34l-45 -42l-47 -41.5c-15.333 -13 -29 -23.833 -41 -32.5h-88v13l34.5 44.5l39 53c13 18.333 23.833 34.833 32.5 49.5h149v-10z" />
    <glyph glyph-name="Ecircumflex" unicode="&#xca;" horiz-adv-x="522" 
d="M469 0h-385v714h385v-107h-251v-182h235v-107h-235v-210h251v-108zM351 938c9.33301 -14.667 21 -31.168 35 -49.501s28.5 -36.166 43.5 -53.499l39.5 -45v-12h-88c-16.667 10.667 -33.5 23.5 -50.5 38.5s-33.833 31.5 -50.5 49.5c-16.667 -18 -33.167 -34.333 -49.5 -49
s-32.833 -27.667 -49.5 -39h-88v12l40 45.5l43.5 53c14.333 18.333 25.5 34.833 33.5 49.5h141z" />
    <glyph glyph-name="Edieresis" unicode="&#xcb;" horiz-adv-x="522" 
d="M469 0h-385v714h385v-107h-251v-182h235v-107h-235v-210h251v-108zM123 856c0 21.333 6 36.666 18 45.999s26.667 14 44 14c16 0 30.167 -4.66699 42.5 -14s18.5 -24.666 18.5 -45.999c0 -20 -6.16699 -34.833 -18.5 -44.5s-26.5 -14.5 -42.5 -14.5
c-17.333 0 -32 4.83301 -44 14.5s-18 24.5 -18 44.5zM316 856c0 21.333 6 36.666 18 45.999s26.333 14 43 14c17.333 0 32.166 -4.66699 44.499 -14s18.5 -24.666 18.5 -45.999c0 -20 -6.16699 -34.833 -18.5 -44.5s-27.166 -14.5 -44.499 -14.5
c-16.667 0 -31 4.83301 -43 14.5s-18 24.5 -18 44.5z" />
    <glyph glyph-name="Igrave" unicode="&#xcc;" horiz-adv-x="364" 
d="M330 0h-297v73l82 32v503l-82 33v73h297v-73l-81 -33v-503l81 -32v-73zM163 938l33.001 -49.499c12.667 -18.333 25.5 -36 38.5 -53l34.5 -44.5v-13h-88c-12 8.66699 -25.833 19.5 -41.5 32.5s-31.5 26.833 -47.5 41.5l-44.5 42
c-13.667 13.333 -24.834 24.666 -33.501 33.999v10h149z" />
    <glyph glyph-name="Iacute" unicode="&#xcd;" horiz-adv-x="364" 
d="M330 0h-297v73l82 32v503l-82 33v73h297v-73l-81 -33v-503l81 -32v-73zM373 928c-8.66699 -9.33301 -20 -20.667 -34 -34l-45 -42l-47 -41.5c-15.333 -13 -29 -23.833 -41 -32.5h-88v13l34.5 44.5l39 53c13 18.333 23.833 34.833 32.5 49.5h149v-10z" />
    <glyph glyph-name="Icircumflex" unicode="&#xce;" horiz-adv-x="364" 
d="M330 0h-297v73l82 32v503l-82 33v73h297v-73l-81 -33v-503l81 -32v-73zM253 938c9.33301 -14.667 21 -31.168 35 -49.501s28.5 -36.166 43.5 -53.499l39.5 -45v-12h-88c-16.667 10.667 -33.5 23.5 -50.5 38.5s-33.833 31.5 -50.5 49.5
c-16.667 -18 -33.167 -34.333 -49.5 -49s-32.833 -27.667 -49.5 -39h-88v12l40 45.5l43.5 53c14.333 18.333 25.5 34.833 33.5 49.5h141z" />
    <glyph glyph-name="Idieresis" unicode="&#xcf;" horiz-adv-x="364" 
d="M330 0h-297v73l82 32v503l-82 33v73h297v-73l-81 -33v-503l81 -32v-73zM25 856c0 21.333 6 36.666 18 45.999s26.667 14 44 14c16 0 30.167 -4.66699 42.5 -14s18.5 -24.666 18.5 -45.999c0 -20 -6.16699 -34.833 -18.5 -44.5s-26.5 -14.5 -42.5 -14.5
c-17.333 0 -32 4.83301 -44 14.5s-18 24.5 -18 44.5zM218 856c0 21.333 6 36.666 18 45.999s26.333 14 43 14c17.333 0 32.166 -4.66699 44.499 -14s18.5 -24.666 18.5 -45.999c0 -20 -6.16699 -34.833 -18.5 -44.5s-27.166 -14.5 -44.499 -14.5
c-16.667 0 -31 4.83301 -43 14.5s-18 24.5 -18 44.5z" />
    <glyph glyph-name="Eth" unicode="&#xd0;" horiz-adv-x="691" 
d="M299 714c70 0 130.168 -13.3311 180.501 -39.998s89.166 -65.834 116.499 -117.501s41 -115.834 41 -192.501c0 -80 -14.167 -147 -42.5 -201s-69.333 -94.667 -123 -122s-117.5 -41 -191.5 -41h-194v300h-64v106h64v308h213zM298.001 608.002h-78v-202h125v-106h-125
v-193h63c71.333 0 124.833 21.333 160.5 64s53.5 105.667 53.5 189c0 86 -17.167 148.833 -51.5 188.5s-83.5 59.5 -147.5 59.5z" />
    <glyph glyph-name="Ntilde" unicode="&#xd1;" horiz-adv-x="754" 
d="M670 0l-169 -0.000976562l-301 560h-4c0.666992 -14.667 1.33398 -30.167 2.00098 -46.5s1.5 -33 2.5 -50s1.83301 -34.167 2.5 -51.5s1 -34.666 1 -51.999v-360h-120v714h168l300 -556h4c-0.666992 13.333 -1.33398 27.833 -2.00098 43.5l-2 48.5l-2 51
c-0.666992 17.333 -1 34 -1 50v363h121v-714zM562 920.999c-4 -46.667 -16.1699 -82.167 -36.5029 -106.5s-45.833 -36.5 -76.5 -36.5c-13.333 0 -26.5 2.66699 -39.5 8s-25.667 11.666 -38 18.999s-24.333 13.666 -36 18.999s-22.834 8 -33.501 8
c-10 0 -18.833 -4.5 -26.5 -13.5s-13.5 -22.833 -17.5 -41.5h-66c2 24 6.16699 44.833 12.5 62.5s14.333 32.5 24 44.5s21 21 34 27s27.5 9 43.5 9c12.667 0 25.334 -2.66699 38.001 -8s25.334 -11.666 38.001 -18.999s24.834 -13.666 36.501 -18.999s22.834 -8 33.501 -8
c10 0 18.833 4.66699 26.5 14s13.5 23 17.5 41h66z" />
    <glyph glyph-name="Ograve" unicode="&#xd2;" horiz-adv-x="744" 
d="M690 358c0 -55.333 -6.5 -105.498 -19.5 -150.498s-32.5 -83.833 -58.5 -116.5s-59 -57.667 -99 -75s-87 -26 -141 -26c-54.667 0 -102 8.83301 -142 26.5s-73 42.667 -99 75s-45.5 71.166 -58.5 116.499s-19.5 95.666 -19.5 150.999c0 74 11.5 138.333 34.5 193
s58.167 97.167 105.5 127.5s107.333 45.5 180 45.5c72 0 131.333 -15.167 178 -45.5s81.5 -73 104.5 -128s34.5 -119.5 34.5 -193.5zM195 358.002c0 -54 6.00098 -100.332 18.001 -138.999s31.167 -68.334 57.5 -89.001s60.166 -31 101.499 -31s75 10.333 101 31
s45 50.334 57 89.001s18 85 18 139c0 80.667 -13.667 144 -41 190s-72 69 -134 69c-42 0 -76.167 -10.333 -102.5 -31s-45.5 -50.334 -57.5 -89.001s-18 -85 -18 -139zM352.001 949.003l33.001 -49.499c12.667 -18.333 25.5 -36 38.5 -53l34.5 -44.5v-13h-88
c-12 8.66699 -25.833 19.5 -41.5 32.5s-31.5 26.833 -47.5 41.5l-44.5 42c-13.667 13.333 -24.834 24.666 -33.501 33.999v10h149z" />
    <glyph glyph-name="Oacute" unicode="&#xd3;" horiz-adv-x="744" 
d="M690 358c0 -55.333 -6.5 -105.498 -19.5 -150.498s-32.5 -83.833 -58.5 -116.5s-59 -57.667 -99 -75s-87 -26 -141 -26c-54.667 0 -102 8.83301 -142 26.5s-73 42.667 -99 75s-45.5 71.166 -58.5 116.499s-19.5 95.666 -19.5 150.999c0 74 11.5 138.333 34.5 193
s58.167 97.167 105.5 127.5s107.333 45.5 180 45.5c72 0 131.333 -15.167 178 -45.5s81.5 -73 104.5 -128s34.5 -119.5 34.5 -193.5zM195 358.002c0 -54 6.00098 -100.332 18.001 -138.999s31.167 -68.334 57.5 -89.001s60.166 -31 101.499 -31s75 10.333 101 31
s45 50.334 57 89.001s18 85 18 139c0 80.667 -13.667 144 -41 190s-72 69 -134 69c-42 0 -76.167 -10.333 -102.5 -31s-45.5 -50.334 -57.5 -89.001s-18 -85 -18 -139zM562.001 939.003c-8.66699 -9.33301 -20 -20.667 -34 -34l-45 -42l-47 -41.5
c-15.333 -13 -29 -23.833 -41 -32.5h-88v13l34.5 44.5l39 53c13 18.333 23.833 34.833 32.5 49.5h149v-10z" />
    <glyph glyph-name="Ocircumflex" unicode="&#xd4;" horiz-adv-x="744" 
d="M690 358c0 -55.333 -6.5 -105.498 -19.5 -150.498s-32.5 -83.833 -58.5 -116.5s-59 -57.667 -99 -75s-87 -26 -141 -26c-54.667 0 -102 8.83301 -142 26.5s-73 42.667 -99 75s-45.5 71.166 -58.5 116.499s-19.5 95.666 -19.5 150.999c0 74 11.5 138.333 34.5 193
s58.167 97.167 105.5 127.5s107.333 45.5 180 45.5c72 0 131.333 -15.167 178 -45.5s81.5 -73 104.5 -128s34.5 -119.5 34.5 -193.5zM195 358.002c0 -54 6.00098 -100.332 18.001 -138.999s31.167 -68.334 57.5 -89.001s60.166 -31 101.499 -31s75 10.333 101 31
s45 50.334 57 89.001s18 85 18 139c0 80.667 -13.667 144 -41 190s-72 69 -134 69c-42 0 -76.167 -10.333 -102.5 -31s-45.5 -50.334 -57.5 -89.001s-18 -85 -18 -139zM442.001 949.003c9.33301 -14.667 21 -31.168 35 -49.501s28.5 -36.166 43.5 -53.499l39.5 -45v-12h-88
c-16.667 10.667 -33.5 23.5 -50.5 38.5s-33.833 31.5 -50.5 49.5c-16.667 -18 -33.167 -34.333 -49.5 -49s-32.833 -27.667 -49.5 -39h-88v12l40 45.5l43.5 53c14.333 18.333 25.5 34.833 33.5 49.5h141z" />
    <glyph glyph-name="Otilde" unicode="&#xd5;" horiz-adv-x="744" 
d="M690 358c0 -55.333 -6.5 -105.498 -19.5 -150.498s-32.5 -83.833 -58.5 -116.5s-59 -57.667 -99 -75s-87 -26 -141 -26c-54.667 0 -102 8.83301 -142 26.5s-73 42.667 -99 75s-45.5 71.166 -58.5 116.499s-19.5 95.666 -19.5 150.999c0 74 11.5 138.333 34.5 193
s58.167 97.167 105.5 127.5s107.333 45.5 180 45.5c72 0 131.333 -15.167 178 -45.5s81.5 -73 104.5 -128s34.5 -119.5 34.5 -193.5zM195 358.002c0 -54 6.00098 -100.332 18.001 -138.999s31.167 -68.334 57.5 -89.001s60.166 -31 101.499 -31s75 10.333 101 31
s45 50.334 57 89.001s18 85 18 139c0 80.667 -13.667 144 -41 190s-72 69 -134 69c-42 0 -76.167 -10.333 -102.5 -31s-45.5 -50.334 -57.5 -89.001s-18 -85 -18 -139zM557.001 932.003c-4 -46.667 -16.1699 -82.167 -36.5029 -106.5s-45.833 -36.5 -76.5 -36.5
c-13.333 0 -26.5 2.66699 -39.5 8s-25.667 11.666 -38 18.999s-24.333 13.666 -36 18.999s-22.834 8 -33.501 8c-10 0 -18.833 -4.5 -26.5 -13.5s-13.5 -22.833 -17.5 -41.5h-66c2 24 6.16699 44.833 12.5 62.5s14.333 32.5 24 44.5s21 21 34 27s27.5 9 43.5 9
c12.667 0 25.334 -2.66699 38.001 -8s25.334 -11.666 38.001 -18.999s24.834 -13.666 36.501 -18.999s22.834 -8 33.501 -8c10 0 18.833 4.66699 26.5 14s13.5 23 17.5 41h66z" />
    <glyph glyph-name="Odieresis" unicode="&#xd6;" horiz-adv-x="744" 
d="M690 358c0 -55.333 -6.5 -105.498 -19.5 -150.498s-32.5 -83.833 -58.5 -116.5s-59 -57.667 -99 -75s-87 -26 -141 -26c-54.667 0 -102 8.83301 -142 26.5s-73 42.667 -99 75s-45.5 71.166 -58.5 116.499s-19.5 95.666 -19.5 150.999c0 74 11.5 138.333 34.5 193
s58.167 97.167 105.5 127.5s107.333 45.5 180 45.5c72 0 131.333 -15.167 178 -45.5s81.5 -73 104.5 -128s34.5 -119.5 34.5 -193.5zM195 358.002c0 -54 6.00098 -100.332 18.001 -138.999s31.167 -68.334 57.5 -89.001s60.166 -31 101.499 -31s75 10.333 101 31
s45 50.334 57 89.001s18 85 18 139c0 80.667 -13.667 144 -41 190s-72 69 -134 69c-42 0 -76.167 -10.333 -102.5 -31s-45.5 -50.334 -57.5 -89.001s-18 -85 -18 -139zM214.001 867.003c0 21.333 6 36.666 18 45.999s26.667 14 44 14c16 0 30.167 -4.66699 42.5 -14
s18.5 -24.666 18.5 -45.999c0 -20 -6.16699 -34.833 -18.5 -44.5s-26.5 -14.5 -42.5 -14.5c-17.333 0 -32 4.83301 -44 14.5s-18 24.5 -18 44.5zM407.001 867.003c0 21.333 6 36.666 18 45.999s26.333 14 43 14c17.333 0 32.166 -4.66699 44.499 -14
s18.5 -24.666 18.5 -45.999c0 -20 -6.16699 -34.833 -18.5 -44.5s-27.166 -14.5 -44.499 -14.5c-16.667 0 -31 4.83301 -43 14.5s-18 24.5 -18 44.5z" />
    <glyph glyph-name="multiply" unicode="&#xd7;" horiz-adv-x="536" 
d="M409 575l67 -65l-143 -157l141 -156l-65 -66l-143 156l-141 -155l-66 65l140 156l-141 155l67 67l141 -156z" />
    <glyph glyph-name="Oslash" unicode="&#xd8;" horiz-adv-x="744" 
d="M690 358c0 -55.333 -6.5 -105.501 -19.5 -150.501s-32.5 -83.833 -58.5 -116.5s-59 -57.667 -99 -75s-87 -26 -141 -26c-31.333 0 -60 3.16699 -86 9.5s-49.667 15.833 -71 28.5l-42 -67l-73 48l43 69c-30.667 32.667 -53.334 72.834 -68.001 120.501
s-22 101.167 -22 160.5c0 74 11.5 138.333 34.5 193s58.167 97.167 105.5 127.5s107.333 45.5 180 45.5c30.667 0 59.334 -3.33301 86.001 -10s50.667 -16 72 -28l40 63l72 -47l-42 -67c30 -32 52.333 -71.5 67 -118.5s22 -100.167 22 -159.5zM548 357.999
c0 34 -2.16699 64.999 -6.5 92.999s-11.166 52.333 -20.499 73l-239 -399c12 -8.66699 25.667 -15.167 41 -19.5s31.666 -6.5 48.999 -6.5c41.333 0 75 10.333 101 31s45 50.334 57 89.001s18 85 18 139zM195 357.998c0 -34 2.16602 -65.168 6.49902 -93.501
s11.5 -53.166 21.5 -74.499l241 400c-12.667 8.66699 -26.667 15.334 -42 20.001s-31.666 7 -48.999 7c-42 0 -76.167 -10.333 -102.5 -31s-45.5 -50.334 -57.5 -89.001s-18 -85 -18 -139z" />
    <glyph glyph-name="Ugrave" unicode="&#xd9;" horiz-adv-x="703" 
d="M625 252c0 -49.333 -10.167 -93.833 -30.5 -133.5s-51 -71 -92 -94s-92.5 -34.5 -154.5 -34.5c-88 0 -155 24.167 -201 72.5s-69 112.166 -69 191.499v460h134v-447c0 -58 11.833 -100.5 35.5 -127.5s58.5 -40.5 104.5 -40.5c32.667 0 59 6.33301 79 19
s34.833 31.834 44.5 57.501s14.5 56.5 14.5 92.5v446h135v-462zM332 938l33.001 -49.499c12.667 -18.333 25.5 -36 38.5 -53l34.5 -44.5v-13h-88c-12 8.66699 -25.833 19.5 -41.5 32.5s-31.5 26.833 -47.5 41.5l-44.5 42c-13.667 13.333 -24.834 24.666 -33.501 33.999v10
h149z" />
    <glyph glyph-name="Uacute" unicode="&#xda;" horiz-adv-x="703" 
d="M625 252c0 -49.333 -10.167 -93.833 -30.5 -133.5s-51 -71 -92 -94s-92.5 -34.5 -154.5 -34.5c-88 0 -155 24.167 -201 72.5s-69 112.166 -69 191.499v460h134v-447c0 -58 11.833 -100.5 35.5 -127.5s58.5 -40.5 104.5 -40.5c32.667 0 59 6.33301 79 19
s34.833 31.834 44.5 57.501s14.5 56.5 14.5 92.5v446h135v-462zM542 928c-8.66699 -9.33301 -20 -20.667 -34 -34l-45 -42l-47 -41.5c-15.333 -13 -29 -23.833 -41 -32.5h-88v13l34.5 44.5l39 53c13 18.333 23.833 34.833 32.5 49.5h149v-10z" />
    <glyph glyph-name="Ucircumflex" unicode="&#xdb;" horiz-adv-x="703" 
d="M625 252c0 -49.333 -10.167 -93.833 -30.5 -133.5s-51 -71 -92 -94s-92.5 -34.5 -154.5 -34.5c-88 0 -155 24.167 -201 72.5s-69 112.166 -69 191.499v460h134v-447c0 -58 11.833 -100.5 35.5 -127.5s58.5 -40.5 104.5 -40.5c32.667 0 59 6.33301 79 19
s34.833 31.834 44.5 57.501s14.5 56.5 14.5 92.5v446h135v-462zM422 938c9.33301 -14.667 21 -31.168 35 -49.501s28.5 -36.166 43.5 -53.499l39.5 -45v-12h-88c-16.667 10.667 -33.5 23.5 -50.5 38.5s-33.833 31.5 -50.5 49.5c-16.667 -18 -33.167 -34.333 -49.5 -49
s-32.833 -27.667 -49.5 -39h-88v12l40 45.5l43.5 53c14.333 18.333 25.5 34.833 33.5 49.5h141z" />
    <glyph glyph-name="Udieresis" unicode="&#xdc;" horiz-adv-x="703" 
d="M625 252c0 -49.333 -10.167 -93.833 -30.5 -133.5s-51 -71 -92 -94s-92.5 -34.5 -154.5 -34.5c-88 0 -155 24.167 -201 72.5s-69 112.166 -69 191.499v460h134v-447c0 -58 11.833 -100.5 35.5 -127.5s58.5 -40.5 104.5 -40.5c32.667 0 59 6.33301 79 19
s34.833 31.834 44.5 57.501s14.5 56.5 14.5 92.5v446h135v-462zM194 856c0 21.333 6 36.666 18 45.999s26.667 14 44 14c16 0 30.167 -4.66699 42.5 -14s18.5 -24.666 18.5 -45.999c0 -20 -6.16699 -34.833 -18.5 -44.5s-26.5 -14.5 -42.5 -14.5
c-17.333 0 -32 4.83301 -44 14.5s-18 24.5 -18 44.5zM387 856c0 21.333 6 36.666 18 45.999s26.333 14 43 14c17.333 0 32.166 -4.66699 44.499 -14s18.5 -24.666 18.5 -45.999c0 -20 -6.16699 -34.833 -18.5 -44.5s-27.166 -14.5 -44.499 -14.5
c-16.667 0 -31 4.83301 -43 14.5s-18 24.5 -18 44.5z" />
    <glyph glyph-name="Yacute" unicode="&#xdd;" horiz-adv-x="579" 
d="M290 399l144 315h145l-222 -436v-278h-134v273l-223 441h146zM480 928c-8.66699 -9.33301 -20 -20.667 -34 -34l-45 -42l-47 -41.5c-15.333 -13 -29 -23.833 -41 -32.5h-88v13l34.5 44.5l39 53c13 18.333 23.833 34.833 32.5 49.5h149v-10z" />
    <glyph glyph-name="Thorn" unicode="&#xde;" horiz-adv-x="583" 
d="M542 378c0 -40 -7.83203 -77.501 -23.499 -112.501s-42.334 -63.333 -80.001 -85s-89.167 -32.5 -154.5 -32.5h-66v-148h-134v714h134v-117h75c86 0 149 -19.667 189 -59s60 -92.666 60 -159.999zM267.001 251.999c30 0 55.5 4.16895 76.5 12.502
s36.667 21.666 47 39.999s15.5 42.166 15.5 71.499c0 39.333 -9.83301 68.5 -29.5 87.5s-51.5 28.5 -95.5 28.5h-63v-240h49z" />
    <glyph glyph-name="germandbls" unicode="&#xdf;" horiz-adv-x="654" 
d="M557 610c0 -24 -4.33203 -44.832 -12.999 -62.499s-19.334 -33 -32.001 -46s-25.334 -24.667 -38.001 -35s-23.334 -20 -32.001 -29s-13 -18.5 -13 -28.5c0 -8.66699 3 -16.667 9 -24s15.667 -15.833 29 -25.5l54 -38.5c21.333 -15.333 39.166 -30.5 53.499 -45.5
s25.333 -32 33 -51s11.5 -41.5 11.5 -67.5c0 -37.333 -7.83301 -68.5 -23.5 -93.5s-38.167 -43.5 -67.5 -55.5s-65 -18 -107 -18c-33.333 0 -61.5 2.66699 -84.5 8s-43.833 13.333 -62.5 24v103c10.667 -6.66699 23.334 -13.334 38.001 -20.001s30.167 -12 46.5 -16
s31.5 -6 45.5 -6c26 0 45.667 6 59 18s20 29.333 20 52c0 13.333 -2.16699 25 -6.5 35s-12.666 20.333 -24.999 31s-30.5 23.667 -54.5 39c-25.333 16.667 -45.5 31.834 -60.5 45.501s-25.667 27.667 -32 42s-9.5 30.166 -9.5 47.499c0 20.667 4.33301 38.334 13 53.001
s19.334 27.5 32.001 38.5l37.5 31.5c12.333 10 22.833 21 31.5 33s13 26.333 13 43c0 23.333 -9.66699 41.333 -29 54s-44.333 19 -75 19c-22.667 0 -42.5 -3.33301 -59.5 -10s-30.167 -17.334 -39.5 -32.001s-14 -34.667 -14 -60v-563h-133v567
c0 46 10.833 83.667 32.5 113s51 50.833 88 64.5s78.833 20.5 125.5 20.5s88 -5.83301 124 -17.5s64.167 -29 84.5 -52s30.5 -51.5 30.5 -85.5z" />
    <glyph glyph-name="agrave" unicode="&#xe0;" horiz-adv-x="560" 
d="M289 552c65.333 0 115.332 -15.168 149.999 -45.501s52 -77.833 52 -142.5v-364h-93l-26 75h-4c-14.667 -19.333 -29.667 -35.5 -45 -48.5s-32.833 -22.333 -52.5 -28s-43.834 -8.5 -72.501 -8.5c-30 0 -57 6 -81 18s-43 30.5 -57 55.5s-21 56.5 -21 94.5
c0 56 19.333 98.167 58 126.5s97 43.833 175 46.5l86 3v27c0 34.667 -7.16699 59.334 -21.5 74.001s-34.5 22 -60.5 22c-24 0 -48.167 -4 -72.5 -12s-48.166 -17.333 -71.499 -28l-41 88c26.667 14 56.834 25.333 90.501 34s69.5 13 107.5 13zM301.999 253.999
c-47.333 -2 -80.333 -11.501 -99 -28.501s-28 -39.833 -28 -68.5c0 -25.333 6.5 -43.666 19.5 -54.999s30.167 -17 51.5 -17c31.333 0 58 10.5 80 31.5s33 52.167 33 93.5v46zM260.999 772.998l33.001 -49.499c12.667 -18.333 25.5 -36 38.5 -53l34.5 -44.5v-13h-88
c-12 8.66699 -25.833 19.5 -41.5 32.5s-31.5 26.833 -47.5 41.5l-44.5 42c-13.667 13.333 -24.834 24.666 -33.501 33.999v10h149z" />
    <glyph glyph-name="aacute" unicode="&#xe1;" horiz-adv-x="560" 
d="M289 552c65.333 0 115.332 -15.168 149.999 -45.501s52 -77.833 52 -142.5v-364h-93l-26 75h-4c-14.667 -19.333 -29.667 -35.5 -45 -48.5s-32.833 -22.333 -52.5 -28s-43.834 -8.5 -72.501 -8.5c-30 0 -57 6 -81 18s-43 30.5 -57 55.5s-21 56.5 -21 94.5
c0 56 19.333 98.167 58 126.5s97 43.833 175 46.5l86 3v27c0 34.667 -7.16699 59.334 -21.5 74.001s-34.5 22 -60.5 22c-24 0 -48.167 -4 -72.5 -12s-48.166 -17.333 -71.499 -28l-41 88c26.667 14 56.834 25.333 90.501 34s69.5 13 107.5 13zM301.999 253.999
c-47.333 -2 -80.333 -11.501 -99 -28.501s-28 -39.833 -28 -68.5c0 -25.333 6.5 -43.666 19.5 -54.999s30.167 -17 51.5 -17c31.333 0 58 10.5 80 31.5s33 52.167 33 93.5v46zM469.999 762.998c-8.66699 -9.33301 -20 -20.667 -34 -34l-45 -42l-47 -41.5
c-15.333 -13 -29 -23.833 -41 -32.5h-88v13l34.5 44.5l39 53c13 18.333 23.833 34.833 32.5 49.5h149v-10z" />
    <glyph glyph-name="acircumflex" unicode="&#xe2;" horiz-adv-x="560" 
d="M289 552c65.333 0 115.332 -15.168 149.999 -45.501s52 -77.833 52 -142.5v-364h-93l-26 75h-4c-14.667 -19.333 -29.667 -35.5 -45 -48.5s-32.833 -22.333 -52.5 -28s-43.834 -8.5 -72.501 -8.5c-30 0 -57 6 -81 18s-43 30.5 -57 55.5s-21 56.5 -21 94.5
c0 56 19.333 98.167 58 126.5s97 43.833 175 46.5l86 3v27c0 34.667 -7.16699 59.334 -21.5 74.001s-34.5 22 -60.5 22c-24 0 -48.167 -4 -72.5 -12s-48.166 -17.333 -71.499 -28l-41 88c26.667 14 56.834 25.333 90.501 34s69.5 13 107.5 13zM301.999 253.999
c-47.333 -2 -80.333 -11.501 -99 -28.501s-28 -39.833 -28 -68.5c0 -25.333 6.5 -43.666 19.5 -54.999s30.167 -17 51.5 -17c31.333 0 58 10.5 80 31.5s33 52.167 33 93.5v46zM349.999 772.998c9.33301 -14.667 21 -31.168 35 -49.501s28.5 -36.166 43.5 -53.499l39.5 -45
v-12h-88c-16.667 10.667 -33.5 23.5 -50.5 38.5s-33.833 31.5 -50.5 49.5c-16.667 -18 -33.167 -34.333 -49.5 -49s-32.833 -27.667 -49.5 -39h-88v12l40 45.5l43.5 53c14.333 18.333 25.5 34.833 33.5 49.5h141z" />
    <glyph glyph-name="atilde" unicode="&#xe3;" horiz-adv-x="560" 
d="M289 552c65.333 0 115.332 -15.168 149.999 -45.501s52 -77.833 52 -142.5v-364h-93l-26 75h-4c-14.667 -19.333 -29.667 -35.5 -45 -48.5s-32.833 -22.333 -52.5 -28s-43.834 -8.5 -72.501 -8.5c-30 0 -57 6 -81 18s-43 30.5 -57 55.5s-21 56.5 -21 94.5
c0 56 19.333 98.167 58 126.5s97 43.833 175 46.5l86 3v27c0 34.667 -7.16699 59.334 -21.5 74.001s-34.5 22 -60.5 22c-24 0 -48.167 -4 -72.5 -12s-48.166 -17.333 -71.499 -28l-41 88c26.667 14 56.834 25.333 90.501 34s69.5 13 107.5 13zM301.999 253.999
c-47.333 -2 -80.333 -11.501 -99 -28.501s-28 -39.833 -28 -68.5c0 -25.333 6.5 -43.666 19.5 -54.999s30.167 -17 51.5 -17c31.333 0 58 10.5 80 31.5s33 52.167 33 93.5v46zM464.999 755.998c-4 -46.667 -16.1699 -82.167 -36.5029 -106.5s-45.833 -36.5 -76.5 -36.5
c-13.333 0 -26.5 2.66699 -39.5 8s-25.667 11.666 -38 18.999s-24.333 13.666 -36 18.999s-22.834 8 -33.501 8c-10 0 -18.833 -4.5 -26.5 -13.5s-13.5 -22.833 -17.5 -41.5h-66c2 24 6.16699 44.833 12.5 62.5s14.333 32.5 24 44.5s21 21 34 27s27.5 9 43.5 9
c12.667 0 25.334 -2.66699 38.001 -8s25.334 -11.666 38.001 -18.999s24.834 -13.666 36.501 -18.999s22.834 -8 33.501 -8c10 0 18.833 4.66699 26.5 14s13.5 23 17.5 41h66z" />
    <glyph glyph-name="adieresis" unicode="&#xe4;" horiz-adv-x="560" 
d="M289 552c65.333 0 115.332 -15.168 149.999 -45.501s52 -77.833 52 -142.5v-364h-93l-26 75h-4c-14.667 -19.333 -29.667 -35.5 -45 -48.5s-32.833 -22.333 -52.5 -28s-43.834 -8.5 -72.501 -8.5c-30 0 -57 6 -81 18s-43 30.5 -57 55.5s-21 56.5 -21 94.5
c0 56 19.333 98.167 58 126.5s97 43.833 175 46.5l86 3v27c0 34.667 -7.16699 59.334 -21.5 74.001s-34.5 22 -60.5 22c-24 0 -48.167 -4 -72.5 -12s-48.166 -17.333 -71.499 -28l-41 88c26.667 14 56.834 25.333 90.501 34s69.5 13 107.5 13zM301.999 253.999
c-47.333 -2 -80.333 -11.501 -99 -28.501s-28 -39.833 -28 -68.5c0 -25.333 6.5 -43.666 19.5 -54.999s30.167 -17 51.5 -17c31.333 0 58 10.5 80 31.5s33 52.167 33 93.5v46zM121.999 690.998c0 21.333 6 36.666 18 45.999s26.667 14 44 14c16 0 30.167 -4.66699 42.5 -14
s18.5 -24.666 18.5 -45.999c0 -20 -6.16699 -34.833 -18.5 -44.5s-26.5 -14.5 -42.5 -14.5c-17.333 0 -32 4.83301 -44 14.5s-18 24.5 -18 44.5zM314.999 690.998c0 21.333 6 36.666 18 45.999s26.333 14 43 14c17.333 0 32.166 -4.66699 44.499 -14
s18.5 -24.666 18.5 -45.999c0 -20 -6.16699 -34.833 -18.5 -44.5s-27.166 -14.5 -44.499 -14.5c-16.667 0 -31 4.83301 -43 14.5s-18 24.5 -18 44.5z" />
    <glyph glyph-name="aring" unicode="&#xe5;" horiz-adv-x="560" 
d="M289 552c65.333 0 115.332 -15.168 149.999 -45.501s52 -77.833 52 -142.5v-364h-93l-26 75h-4c-14.667 -19.333 -29.667 -35.5 -45 -48.5s-32.833 -22.333 -52.5 -28s-43.834 -8.5 -72.501 -8.5c-30 0 -57 6 -81 18s-43 30.5 -57 55.5s-21 56.5 -21 94.5
c0 56 19.333 98.167 58 126.5s97 43.833 175 46.5l86 3v27c0 34.667 -7.16699 59.334 -21.5 74.001s-34.5 22 -60.5 22c-24 0 -48.167 -4 -72.5 -12s-48.166 -17.333 -71.499 -28l-41 88c26.667 14 56.834 25.333 90.501 34s69.5 13 107.5 13zM301.999 253.999
c-47.333 -2 -80.333 -11.501 -99 -28.501s-28 -39.833 -28 -68.5c0 -25.333 6.5 -43.666 19.5 -54.999s30.167 -17 51.5 -17c31.333 0 58 10.5 80 31.5s33 52.167 33 93.5v46zM277.999 611.998c-32.667 0 -59.333 9.99902 -80 29.999s-31 47.667 -31 83
c0 34.667 10.333 61.834 31 81.501s47.667 29.5 81 29.5c32 0 59.167 -9.83301 81.5 -29.5s33.5 -46.5 33.5 -80.5c0 -36 -11 -64 -33 -84s-49.667 -30 -83 -30zM279 673.997c13.333 0 24.166 4.5 32.499 13.5s12.5 21.5 12.5 37.5c0 15.333 -4.16699 27.5 -12.5 36.5
s-19.166 13.5 -32.499 13.5c-12.667 0 -23.334 -4.5 -32.001 -13.5s-13 -21.167 -13 -36.5c0 -16 3.83301 -28.5 11.5 -37.5s18.834 -13.5 33.501 -13.5z" />
    <glyph glyph-name="ae" unicode="&#xe6;" horiz-adv-x="850" 
d="M594 552c42.667 0 80.0029 -9.83398 112.003 -29.501s57 -47.667 75 -84s27 -80.166 27 -131.499v-65h-325c1.33301 -50 13.166 -88.333 35.499 -115s54.166 -40 95.499 -40c29.333 0 57.333 3.5 84 10.5s54 17.167 82 30.5v-101c-25.333 -12.667 -51.5 -22 -78.5 -28
s-59.833 -9 -98.5 -9c-27.333 0 -53.333 3.83301 -78 11.5s-46.834 19.334 -66.501 35.001s-36.834 35.5 -51.501 59.5c-18 -23.333 -36 -42.833 -54 -58.5s-39 -27.5 -63 -35.5s-53.333 -12 -88 -12c-29.333 0 -56.333 6 -81 18s-44.5 30.5 -59.5 55.5
s-22.5 56.5 -22.5 94.5c0 37.333 8.66699 68.5 26 93.5s43 44.167 77 57.5s75.333 20.666 124 21.999l85 3v38c0 30.667 -7.5 52.5 -22.5 65.5s-34.5 19.5 -58.5 19.5s-48.167 -3.66699 -72.5 -11s-47.5 -16.666 -69.5 -27.999l-40 87c26 14 55.667 25.333 89 34
s67.333 13 102 13s64.834 -5.83301 90.501 -17.5s47.167 -29.834 64.5 -54.501c19.333 24 42 42 68 54s56.667 18 92 18zM297.003 253.999c-46 -2 -77.833 -11.501 -95.5 -28.501s-26.5 -39.833 -26.5 -68.5c0 -25.333 6.33301 -43.666 19 -54.999s29 -17 49 -17
c20.667 0 39 4.66699 55 14s28.833 23.333 38.5 42s14.5 41.667 14.5 69v46zM590.003 458.998c-30.667 0 -55.167 -10.8311 -73.5 -32.498s-28.833 -53.834 -31.5 -96.501h197c0 25.333 -3.5 47.666 -10.5 66.999s-17.333 34.5 -31 45.5s-30.5 16.5 -50.5 16.5z" />
    <glyph glyph-name="ccedilla" unicode="&#xe7;" horiz-adv-x="480" 
d="M288 -10c-50 0 -93.167 9.83203 -129.5 29.499s-64.333 50 -84 91s-29.5 93.5 -29.5 157.5c0 66.667 10.833 120.834 32.5 162.501s51.5 72.334 89.5 92.001s81.667 29.5 131 29.5c30.667 0 59.5 -3.33301 86.5 -10s49.5 -14.667 67.5 -24l-40 -97
c-18 7.33301 -36 13.666 -54 18.999s-36.333 8 -55 8c-26.667 0 -49 -6.66699 -67 -20s-31.833 -33.166 -41.5 -59.499s-14.5 -59.5 -14.5 -99.5c0 -38.667 4.83301 -71 14.5 -97s23.5 -45.5 41.5 -58.5s40 -19.5 66 -19.5s50.167 3.66699 72.5 11s43.5 17.333 63.5 30v-109
c-20.667 -12.667 -42.667 -21.834 -66 -27.501s-51.333 -8.5 -84 -8.5zM414 -128.001c0 -24 -5 -44.3311 -15 -60.998s-25 -29.334 -45 -38.001s-45.333 -13 -76 -13c-14.667 0 -28.167 0.833008 -40.5 2.5s-22.5 3.5 -30.5 5.5v72c8 -2 17.5 -3.83301 28.5 -5.5
s20.833 -2.5 29.5 -2.5c14.667 0 26.334 2.5 35.001 7.5s13 14.167 13 27.5c0 14 -6.5 25.5 -19.5 34.5s-32.167 15.5 -57.5 19.5l35 79h77l-15 -39c13.333 -3.33301 26.166 -9 38.499 -17s22.5 -17.833 30.5 -29.5s12 -25.834 12 -42.501z" />
    <glyph glyph-name="egrave" unicode="&#xe8;" horiz-adv-x="554" 
d="M285 552c46.667 0 86.832 -9.83105 120.499 -29.498s59.834 -47.667 78.501 -84s28 -80.5 28 -132.5v-64h-332c1.33301 -49.333 13.5 -87.5 36.5 -114.5s55.5 -40.5 97.5 -40.5c32.667 0 62.167 3.5 88.5 10.5s53.5 17.167 81.5 30.5v-101
c-25.333 -12.667 -51.666 -22 -78.999 -28s-61 -9 -101 -9c-50.667 0 -95.5 10.167 -134.5 30.5s-69.5 51.166 -91.5 92.499s-33 92.666 -33 153.999c0 62 10 114.167 30 156.5s48.167 74.333 84.5 96s78.166 32.5 125.499 32.5zM286.998 459.002
c-29.333 0 -53.333 -10.8311 -72 -32.498s-29.667 -53.834 -33 -96.501h204c0 25.333 -3.66699 47.666 -11 66.999s-18.333 34.5 -33 45.5s-33 16.5 -55 16.5zM258.998 766.004l33.001 -49.499c12.667 -18.333 25.5 -36 38.5 -53l34.5 -44.5v-13h-88
c-12 8.66699 -25.833 19.5 -41.5 32.5s-31.5 26.833 -47.5 41.5l-44.5 42c-13.667 13.333 -24.834 24.666 -33.501 33.999v10h149z" />
    <glyph glyph-name="eacute" unicode="&#xe9;" horiz-adv-x="554" 
d="M285 552c46.667 0 86.832 -9.83105 120.499 -29.498s59.834 -47.667 78.501 -84s28 -80.5 28 -132.5v-64h-332c1.33301 -49.333 13.5 -87.5 36.5 -114.5s55.5 -40.5 97.5 -40.5c32.667 0 62.167 3.5 88.5 10.5s53.5 17.167 81.5 30.5v-101
c-25.333 -12.667 -51.666 -22 -78.999 -28s-61 -9 -101 -9c-50.667 0 -95.5 10.167 -134.5 30.5s-69.5 51.166 -91.5 92.499s-33 92.666 -33 153.999c0 62 10 114.167 30 156.5s48.167 74.333 84.5 96s78.166 32.5 125.499 32.5zM286.998 459.002
c-29.333 0 -53.333 -10.8311 -72 -32.498s-29.667 -53.834 -33 -96.501h204c0 25.333 -3.66699 47.666 -11 66.999s-18.333 34.5 -33 45.5s-33 16.5 -55 16.5zM467.998 756.004c-8.66699 -9.33301 -20 -20.667 -34 -34l-45 -42l-47 -41.5c-15.333 -13 -29 -23.833 -41 -32.5
h-88v13l34.5 44.5l39 53c13 18.333 23.833 34.833 32.5 49.5h149v-10z" />
    <glyph glyph-name="ecircumflex" unicode="&#xea;" horiz-adv-x="554" 
d="M285 552c46.667 0 86.832 -9.83105 120.499 -29.498s59.834 -47.667 78.501 -84s28 -80.5 28 -132.5v-64h-332c1.33301 -49.333 13.5 -87.5 36.5 -114.5s55.5 -40.5 97.5 -40.5c32.667 0 62.167 3.5 88.5 10.5s53.5 17.167 81.5 30.5v-101
c-25.333 -12.667 -51.666 -22 -78.999 -28s-61 -9 -101 -9c-50.667 0 -95.5 10.167 -134.5 30.5s-69.5 51.166 -91.5 92.499s-33 92.666 -33 153.999c0 62 10 114.167 30 156.5s48.167 74.333 84.5 96s78.166 32.5 125.499 32.5zM286.998 459.002
c-29.333 0 -53.333 -10.8311 -72 -32.498s-29.667 -53.834 -33 -96.501h204c0 25.333 -3.66699 47.666 -11 66.999s-18.333 34.5 -33 45.5s-33 16.5 -55 16.5zM347.998 766.004c9.33301 -14.667 21 -31.168 35 -49.501s28.5 -36.166 43.5 -53.499l39.5 -45v-12h-88
c-16.667 10.667 -33.5 23.5 -50.5 38.5s-33.833 31.5 -50.5 49.5c-16.667 -18 -33.167 -34.333 -49.5 -49s-32.833 -27.667 -49.5 -39h-88v12l40 45.5l43.5 53c14.333 18.333 25.5 34.833 33.5 49.5h141z" />
    <glyph glyph-name="edieresis" unicode="&#xeb;" horiz-adv-x="554" 
d="M285 552c46.667 0 86.832 -9.83105 120.499 -29.498s59.834 -47.667 78.501 -84s28 -80.5 28 -132.5v-64h-332c1.33301 -49.333 13.5 -87.5 36.5 -114.5s55.5 -40.5 97.5 -40.5c32.667 0 62.167 3.5 88.5 10.5s53.5 17.167 81.5 30.5v-101
c-25.333 -12.667 -51.666 -22 -78.999 -28s-61 -9 -101 -9c-50.667 0 -95.5 10.167 -134.5 30.5s-69.5 51.166 -91.5 92.499s-33 92.666 -33 153.999c0 62 10 114.167 30 156.5s48.167 74.333 84.5 96s78.166 32.5 125.499 32.5zM286.998 459.002
c-29.333 0 -53.333 -10.8311 -72 -32.498s-29.667 -53.834 -33 -96.501h204c0 25.333 -3.66699 47.666 -11 66.999s-18.333 34.5 -33 45.5s-33 16.5 -55 16.5zM119.998 684.004c0 21.333 6 36.666 18 45.999s26.667 14 44 14c16 0 30.167 -4.66699 42.5 -14
s18.5 -24.666 18.5 -45.999c0 -20 -6.16699 -34.833 -18.5 -44.5s-26.5 -14.5 -42.5 -14.5c-17.333 0 -32 4.83301 -44 14.5s-18 24.5 -18 44.5zM312.998 684.004c0 21.333 6 36.666 18 45.999s26.333 14 43 14c17.333 0 32.166 -4.66699 44.499 -14
s18.5 -24.666 18.5 -45.999c0 -20 -6.16699 -34.833 -18.5 -44.5s-27.166 -14.5 -44.499 -14.5c-16.667 0 -31 4.83301 -43 14.5s-18 24.5 -18 44.5z" />
    <glyph glyph-name="igrave" unicode="&#xec;" horiz-adv-x="277" 
d="M205 0h-133v542h133v-542zM119 766l33.001 -49.499c12.667 -18.333 25.5 -36 38.5 -53l34.5 -44.5v-13h-88c-12 8.66699 -25.833 19.5 -41.5 32.5s-31.5 26.833 -47.5 41.5l-44.5 42c-13.667 13.333 -24.834 24.666 -33.501 33.999v10h149z" />
    <glyph glyph-name="iacute" unicode="&#xed;" horiz-adv-x="277" 
d="M205 0h-133v542h133v-542zM329 756c-8.66699 -9.33301 -20 -20.667 -34 -34l-45 -42l-47 -41.5c-15.333 -13 -29 -23.833 -41 -32.5h-88v13l34.5 44.5l39 53c13 18.333 23.833 34.833 32.5 49.5h149v-10z" />
    <glyph glyph-name="icircumflex" unicode="&#xee;" horiz-adv-x="277" 
d="M205 0h-133v542h133v-542zM209 766c9.33301 -14.667 21 -31.168 35 -49.501s28.5 -36.166 43.5 -53.499l39.5 -45v-12h-88c-16.667 10.667 -33.5 23.5 -50.5 38.5s-33.833 31.5 -50.5 49.5c-16.667 -18 -33.167 -34.333 -49.5 -49s-32.833 -27.667 -49.5 -39h-88v12
l40 45.5l43.5 53c14.333 18.333 25.5 34.833 33.5 49.5h141z" />
    <glyph glyph-name="idieresis" unicode="&#xef;" horiz-adv-x="277" 
d="M205 0h-133v542h133v-542zM-19 684c0 21.333 6 36.666 18 45.999s26.667 14 44 14c16 0 30.167 -4.66699 42.5 -14s18.5 -24.666 18.5 -45.999c0 -20 -6.16699 -34.833 -18.5 -44.5s-26.5 -14.5 -42.5 -14.5c-17.333 0 -32 4.83301 -44 14.5s-18 24.5 -18 44.5zM174 684
c0 21.333 6 36.666 18 45.999s26.333 14 43 14c17.333 0 32.166 -4.66699 44.499 -14s18.5 -24.666 18.5 -45.999c0 -20 -6.16699 -34.833 -18.5 -44.5s-27.166 -14.5 -44.499 -14.5c-16.667 0 -31 4.83301 -43 14.5s-18 24.5 -18 44.5z" />
    <glyph glyph-name="eth" unicode="&#xf0;" horiz-adv-x="584" 
d="M211 765c22 -10.667 42.999 -21.6641 62.999 -32.9971s38.667 -23.666 56 -36.999l103 67l44 -67l-79 -53c29.333 -28.667 54.5 -61.167 75.5 -97.5s37 -76.5 48 -120.5s16.5 -92.667 16.5 -146c0 -62 -10.167 -114.5 -30.5 -157.5s-49 -75.5 -86 -97.5
s-81.167 -33 -132.5 -33c-47.333 0 -89.333 9.66699 -126 29s-65.5 47.5 -86.5 84.5s-31.5 81.5 -31.5 133.5c0 51.333 9.33301 95.166 28 131.499s44.667 64.166 78 83.499s71.333 29 114 29c21.333 0 40.333 -1.83301 57 -5.5s31 -9.33398 43 -17.001
s21.667 -17.5 29 -29.5l4 2c-9.33301 31.333 -21.666 59.666 -36.999 84.999s-33.333 49 -54 71l-105 -71l-44 68l84 57c-10.667 8 -22.5 16 -35.5 24l-38.5 24zM290.999 386.003c-26.667 0 -48.168 -5.83496 -64.501 -17.502s-28.333 -28.5 -36 -50.5
s-11.5 -49.667 -11.5 -83c0 -29.333 3.83301 -55.166 11.5 -77.499s19.834 -39.833 36.501 -52.5s38 -19 64 -19c40 0 68.667 14.5 86 43.5s26 71.5 26 127.5c0 17.333 -2.33301 33.833 -7 49.5s-11.5 29.334 -20.5 41.001s-20.5 21 -34.5 28s-30.667 10.5 -50 10.5z" />
    <glyph glyph-name="ntilde" unicode="&#xf1;" horiz-adv-x="609" 
d="M357 552c56.667 0 101.333 -15.667 134 -47s49 -82 49 -152v-353h-133v328c0 40.667 -7 71.167 -21 91.5s-36 30.5 -66 30.5c-44.667 0 -75 -15.833 -91 -47.5s-24 -77.5 -24 -137.5v-265h-133v542h102l19 -71h6c10.667 18.667 24.167 34 40.5 46s34.5 20.833 54.5 26.5
s41 8.5 63 8.5zM488.999 749c-4 -46.667 -16.1699 -82.167 -36.5029 -106.5s-45.833 -36.5 -76.5 -36.5c-13.333 0 -26.5 2.66699 -39.5 8s-25.667 11.666 -38 18.999s-24.333 13.666 -36 18.999s-22.834 8 -33.501 8c-10 0 -18.833 -4.5 -26.5 -13.5
s-13.5 -22.833 -17.5 -41.5h-66c2 24 6.16699 44.833 12.5 62.5s14.333 32.5 24 44.5s21 21 34 27s27.5 9 43.5 9c12.667 0 25.334 -2.66699 38.001 -8s25.334 -11.666 38.001 -18.999s24.834 -13.666 36.501 -18.999s22.834 -8 33.501 -8c10 0 18.833 4.66699 26.5 14
s13.5 23 17.5 41h66z" />
    <glyph glyph-name="ograve" unicode="&#xf2;" horiz-adv-x="582" 
d="M538 272c0 -45.333 -5.66602 -85.334 -16.999 -120.001s-27.833 -64.167 -49.5 -88.5s-47.834 -42.666 -78.501 -54.999s-65 -18.5 -103 -18.5c-35.333 0 -68 6.16699 -98 18.5s-56 30.666 -78 54.999s-39 53.833 -51 88.5s-18 74.667 -18 120c0 60 10 110.833 30 152.5
s48.5 73.334 85.5 95.001s81.167 32.5 132.5 32.5c47.333 0 89.5 -11 126.5 -33s66 -53.667 87 -95s31.5 -92 31.5 -152zM180.001 271.999c0 -38 3.83203 -70.5 11.499 -97.5s19.667 -47.5 36 -61.5s37.833 -21 64.5 -21c26 0 47.167 7 63.5 21s28.333 34.5 36 61.5
s11.5 59.5 11.5 97.5c0 38.667 -3.83301 71.167 -11.5 97.5s-19.667 46.333 -36 60s-37.833 20.5 -64.5 20.5c-39.333 0 -67.666 -15.333 -84.999 -46s-26 -74.667 -26 -132zM272 765.999l33.001 -49.499c12.667 -18.333 25.5 -36 38.5 -53l34.5 -44.5v-13h-88
c-12 8.66699 -25.833 19.5 -41.5 32.5s-31.5 26.833 -47.5 41.5l-44.5 42c-13.667 13.333 -24.834 24.666 -33.501 33.999v10h149z" />
    <glyph glyph-name="oacute" unicode="&#xf3;" horiz-adv-x="582" 
d="M538 272c0 -45.333 -5.66602 -85.334 -16.999 -120.001s-27.833 -64.167 -49.5 -88.5s-47.834 -42.666 -78.501 -54.999s-65 -18.5 -103 -18.5c-35.333 0 -68 6.16699 -98 18.5s-56 30.666 -78 54.999s-39 53.833 -51 88.5s-18 74.667 -18 120c0 60 10 110.833 30 152.5
s48.5 73.334 85.5 95.001s81.167 32.5 132.5 32.5c47.333 0 89.5 -11 126.5 -33s66 -53.667 87 -95s31.5 -92 31.5 -152zM180.001 271.999c0 -38 3.83203 -70.5 11.499 -97.5s19.667 -47.5 36 -61.5s37.833 -21 64.5 -21c26 0 47.167 7 63.5 21s28.333 34.5 36 61.5
s11.5 59.5 11.5 97.5c0 38.667 -3.83301 71.167 -11.5 97.5s-19.667 46.333 -36 60s-37.833 20.5 -64.5 20.5c-39.333 0 -67.666 -15.333 -84.999 -46s-26 -74.667 -26 -132zM482 755.999c-8.66699 -9.33301 -20 -20.667 -34 -34l-45 -42l-47 -41.5
c-15.333 -13 -29 -23.833 -41 -32.5h-88v13l34.5 44.5l39 53c13 18.333 23.833 34.833 32.5 49.5h149v-10z" />
    <glyph glyph-name="ocircumflex" unicode="&#xf4;" horiz-adv-x="582" 
d="M538 272c0 -45.333 -5.66602 -85.334 -16.999 -120.001s-27.833 -64.167 -49.5 -88.5s-47.834 -42.666 -78.501 -54.999s-65 -18.5 -103 -18.5c-35.333 0 -68 6.16699 -98 18.5s-56 30.666 -78 54.999s-39 53.833 -51 88.5s-18 74.667 -18 120c0 60 10 110.833 30 152.5
s48.5 73.334 85.5 95.001s81.167 32.5 132.5 32.5c47.333 0 89.5 -11 126.5 -33s66 -53.667 87 -95s31.5 -92 31.5 -152zM180.001 271.999c0 -38 3.83203 -70.5 11.499 -97.5s19.667 -47.5 36 -61.5s37.833 -21 64.5 -21c26 0 47.167 7 63.5 21s28.333 34.5 36 61.5
s11.5 59.5 11.5 97.5c0 38.667 -3.83301 71.167 -11.5 97.5s-19.667 46.333 -36 60s-37.833 20.5 -64.5 20.5c-39.333 0 -67.666 -15.333 -84.999 -46s-26 -74.667 -26 -132zM362 765.999c9.33301 -14.667 21 -31.168 35 -49.501s28.5 -36.166 43.5 -53.499l39.5 -45v-12
h-88c-16.667 10.667 -33.5 23.5 -50.5 38.5s-33.833 31.5 -50.5 49.5c-16.667 -18 -33.167 -34.333 -49.5 -49s-32.833 -27.667 -49.5 -39h-88v12l40 45.5l43.5 53c14.333 18.333 25.5 34.833 33.5 49.5h141z" />
    <glyph glyph-name="otilde" unicode="&#xf5;" horiz-adv-x="582" 
d="M538 272c0 -45.333 -5.66602 -85.334 -16.999 -120.001s-27.833 -64.167 -49.5 -88.5s-47.834 -42.666 -78.501 -54.999s-65 -18.5 -103 -18.5c-35.333 0 -68 6.16699 -98 18.5s-56 30.666 -78 54.999s-39 53.833 -51 88.5s-18 74.667 -18 120c0 60 10 110.833 30 152.5
s48.5 73.334 85.5 95.001s81.167 32.5 132.5 32.5c47.333 0 89.5 -11 126.5 -33s66 -53.667 87 -95s31.5 -92 31.5 -152zM180.001 271.999c0 -38 3.83203 -70.5 11.499 -97.5s19.667 -47.5 36 -61.5s37.833 -21 64.5 -21c26 0 47.167 7 63.5 21s28.333 34.5 36 61.5
s11.5 59.5 11.5 97.5c0 38.667 -3.83301 71.167 -11.5 97.5s-19.667 46.333 -36 60s-37.833 20.5 -64.5 20.5c-39.333 0 -67.666 -15.333 -84.999 -46s-26 -74.667 -26 -132zM477 748.999c-4 -46.667 -16.1699 -82.167 -36.5029 -106.5s-45.833 -36.5 -76.5 -36.5
c-13.333 0 -26.5 2.66699 -39.5 8s-25.667 11.666 -38 18.999s-24.333 13.666 -36 18.999s-22.834 8 -33.501 8c-10 0 -18.833 -4.5 -26.5 -13.5s-13.5 -22.833 -17.5 -41.5h-66c2 24 6.16699 44.833 12.5 62.5s14.333 32.5 24 44.5s21 21 34 27s27.5 9 43.5 9
c12.667 0 25.334 -2.66699 38.001 -8s25.334 -11.666 38.001 -18.999s24.834 -13.666 36.501 -18.999s22.834 -8 33.501 -8c10 0 18.833 4.66699 26.5 14s13.5 23 17.5 41h66z" />
    <glyph glyph-name="odieresis" unicode="&#xf6;" horiz-adv-x="582" 
d="M538 272c0 -45.333 -5.66602 -85.334 -16.999 -120.001s-27.833 -64.167 -49.5 -88.5s-47.834 -42.666 -78.501 -54.999s-65 -18.5 -103 -18.5c-35.333 0 -68 6.16699 -98 18.5s-56 30.666 -78 54.999s-39 53.833 -51 88.5s-18 74.667 -18 120c0 60 10 110.833 30 152.5
s48.5 73.334 85.5 95.001s81.167 32.5 132.5 32.5c47.333 0 89.5 -11 126.5 -33s66 -53.667 87 -95s31.5 -92 31.5 -152zM180.001 271.999c0 -38 3.83203 -70.5 11.499 -97.5s19.667 -47.5 36 -61.5s37.833 -21 64.5 -21c26 0 47.167 7 63.5 21s28.333 34.5 36 61.5
s11.5 59.5 11.5 97.5c0 38.667 -3.83301 71.167 -11.5 97.5s-19.667 46.333 -36 60s-37.833 20.5 -64.5 20.5c-39.333 0 -67.666 -15.333 -84.999 -46s-26 -74.667 -26 -132zM134 683.999c0 21.333 6 36.666 18 45.999s26.667 14 44 14c16 0 30.167 -4.66699 42.5 -14
s18.5 -24.666 18.5 -45.999c0 -20 -6.16699 -34.833 -18.5 -44.5s-26.5 -14.5 -42.5 -14.5c-17.333 0 -32 4.83301 -44 14.5s-18 24.5 -18 44.5zM327 683.999c0 21.333 6 36.666 18 45.999s26.333 14 43 14c17.333 0 32.166 -4.66699 44.499 -14s18.5 -24.666 18.5 -45.999
c0 -20 -6.16699 -34.833 -18.5 -44.5s-27.166 -14.5 -44.499 -14.5c-16.667 0 -31 4.83301 -43 14.5s-18 24.5 -18 44.5z" />
    <glyph glyph-name="divide" unicode="&#xf7;" horiz-adv-x="536" 
d="M40 306v93h455v-93h-455zM267 113c-17.333 0 -32 5.5 -44 16.5s-18 28.5 -18 52.5c0 25.333 6 43.166 18 53.499s26.667 15.5 44 15.5c16.667 0 31.167 -5.16699 43.5 -15.5s18.5 -28.166 18.5 -53.499c0 -24 -6.16699 -41.5 -18.5 -52.5s-26.833 -16.5 -43.5 -16.5z
M267 454c-17.333 0 -32 5.5 -44 16.5s-18 28.5 -18 52.5c0 25.333 6 43.166 18 53.499s26.667 15.5 44 15.5c16.667 0 31.167 -5.16699 43.5 -15.5s18.5 -28.166 18.5 -53.499c0 -24 -6.16699 -41.5 -18.5 -52.5s-26.833 -16.5 -43.5 -16.5z" />
    <glyph glyph-name="oslash" unicode="&#xf8;" horiz-adv-x="591" 
d="M546 272c0 -60 -10.167 -110.999 -30.5 -152.999s-49.333 -74 -87 -96s-82.5 -33 -134.5 -33c-20.667 0 -40.334 2.33301 -59.001 7s-36.334 11 -53.001 19l-35 -51l-68 46l37 54c-22.667 24.667 -40.167 54.167 -52.5 88.5s-18.5 73.833 -18.5 118.5
c0 90 22.333 159.167 67 207.5s106.334 72.5 185.001 72.5c20.667 0 40.834 -2.5 60.501 -7.5s37.834 -12.167 54.501 -21.5l31 46l67 -47l-33 -50c21.333 -23.333 38.166 -51.833 50.499 -85.5s18.5 -71.834 18.5 -114.501zM177 272.001
c0 -19.333 0.831055 -37.333 2.49805 -54s4.83398 -31.667 9.50098 -45l164 260c-8.66699 5.33301 -17.667 9.5 -27 12.5s-19.666 4.5 -30.999 4.5c-42 0 -72.167 -15.333 -90.5 -46s-27.5 -74.667 -27.5 -132zM413.998 272.001c0 18 -0.833008 34.333 -2.5 49
s-4.5 28 -8.5 40l-160 -256c7.33301 -4 15.5 -7.16699 24.5 -9.5s18.5 -3.5 28.5 -3.5c28 0 50.667 7 68 21s30 34.5 38 61.5s12 59.5 12 97.5z" />
    <glyph glyph-name="ugrave" unicode="&#xf9;" horiz-adv-x="609" 
d="M536 542v-541.997h-101l-18 70h-7c-10.667 -18.667 -24.5 -33.834 -41.5 -45.501s-35.333 -20.334 -55 -26.001s-40.5 -8.5 -62.5 -8.5c-36.667 0 -68.667 7 -96 21s-48.5 35.5 -63.5 64.5s-22.5 66.5 -22.5 112.5v354h133v-329c0 -40 6.83301 -70.167 20.5 -90.5
s35.5 -30.5 65.5 -30.5s53.333 7.16699 70 21.5s28.5 35.166 35.5 62.499s10.5 61 10.5 101v265h132zM285 766.003l33.001 -49.499c12.667 -18.333 25.5 -36 38.5 -53l34.5 -44.5v-13h-88c-12 8.66699 -25.833 19.5 -41.5 32.5s-31.5 26.833 -47.5 41.5l-44.5 42
c-13.667 13.333 -24.834 24.666 -33.501 33.999v10h149z" />
    <glyph glyph-name="uacute" unicode="&#xfa;" horiz-adv-x="609" 
d="M536 542v-541.997h-101l-18 70h-7c-10.667 -18.667 -24.5 -33.834 -41.5 -45.501s-35.333 -20.334 -55 -26.001s-40.5 -8.5 -62.5 -8.5c-36.667 0 -68.667 7 -96 21s-48.5 35.5 -63.5 64.5s-22.5 66.5 -22.5 112.5v354h133v-329c0 -40 6.83301 -70.167 20.5 -90.5
s35.5 -30.5 65.5 -30.5s53.333 7.16699 70 21.5s28.5 35.166 35.5 62.499s10.5 61 10.5 101v265h132zM494 756.003c-8.66699 -9.33301 -20 -20.667 -34 -34l-45 -42l-47 -41.5c-15.333 -13 -29 -23.833 -41 -32.5h-88v13l34.5 44.5l39 53c13 18.333 23.833 34.833 32.5 49.5
h149v-10z" />
    <glyph glyph-name="ucircumflex" unicode="&#xfb;" horiz-adv-x="609" 
d="M536 542v-541.997h-101l-18 70h-7c-10.667 -18.667 -24.5 -33.834 -41.5 -45.501s-35.333 -20.334 -55 -26.001s-40.5 -8.5 -62.5 -8.5c-36.667 0 -68.667 7 -96 21s-48.5 35.5 -63.5 64.5s-22.5 66.5 -22.5 112.5v354h133v-329c0 -40 6.83301 -70.167 20.5 -90.5
s35.5 -30.5 65.5 -30.5s53.333 7.16699 70 21.5s28.5 35.166 35.5 62.499s10.5 61 10.5 101v265h132zM374 766.003c9.33301 -14.667 21 -31.168 35 -49.501s28.5 -36.166 43.5 -53.499l39.5 -45v-12h-88c-16.667 10.667 -33.5 23.5 -50.5 38.5s-33.833 31.5 -50.5 49.5
c-16.667 -18 -33.167 -34.333 -49.5 -49s-32.833 -27.667 -49.5 -39h-88v12l40 45.5l43.5 53c14.333 18.333 25.5 34.833 33.5 49.5h141z" />
    <glyph glyph-name="udieresis" unicode="&#xfc;" horiz-adv-x="609" 
d="M536 542v-541.997h-101l-18 70h-7c-10.667 -18.667 -24.5 -33.834 -41.5 -45.501s-35.333 -20.334 -55 -26.001s-40.5 -8.5 -62.5 -8.5c-36.667 0 -68.667 7 -96 21s-48.5 35.5 -63.5 64.5s-22.5 66.5 -22.5 112.5v354h133v-329c0 -40 6.83301 -70.167 20.5 -90.5
s35.5 -30.5 65.5 -30.5s53.333 7.16699 70 21.5s28.5 35.166 35.5 62.499s10.5 61 10.5 101v265h132zM146 684.003c0 21.333 6 36.666 18 45.999s26.667 14 44 14c16 0 30.167 -4.66699 42.5 -14s18.5 -24.666 18.5 -45.999c0 -20 -6.16699 -34.833 -18.5 -44.5
s-26.5 -14.5 -42.5 -14.5c-17.333 0 -32 4.83301 -44 14.5s-18 24.5 -18 44.5zM339 684.003c0 21.333 6 36.666 18 45.999s26.333 14 43 14c17.333 0 32.166 -4.66699 44.499 -14s18.5 -24.666 18.5 -45.999c0 -20 -6.16699 -34.833 -18.5 -44.5
s-27.166 -14.5 -44.499 -14.5c-16.667 0 -31 4.83301 -43 14.5s-18 24.5 -18 44.5z" />
    <glyph glyph-name="yacute" unicode="&#xfd;" horiz-adv-x="528" 
d="M0 542l142.002 0.00292969l97 -306c4.66699 -12.667 8.5 -25.334 11.5 -38.001s5.66699 -25.334 8 -38.001s4.16602 -25.334 5.49902 -38.001h3c2.66699 16.667 6.16699 35 10.5 55s9.5 39.667 15.5 59l95 306h140l-215 -613c-12.667 -36 -28.5 -66.667 -47.5 -92
s-42 -44.5 -69 -57.5s-59.167 -19.5 -96.5 -19.5c-15.333 0 -28.833 0.833008 -40.5 2.5s-21.834 3.5 -30.501 5.5v100c6.66699 -1.33301 15 -2.66602 25 -3.99902s20.333 -2 31 -2c19.333 0 35.833 4.16699 49.5 12.5s25.167 19.666 34.5 33.999s16.333 30.833 21 49.5
l14 44zM454.002 756.003c-8.66699 -9.33301 -20 -20.667 -34 -34l-45 -42l-47 -41.5c-15.333 -13 -29 -23.833 -41 -32.5h-88v13l34.5 44.5l39 53c13 18.333 23.833 34.833 32.5 49.5h149v-10z" />
    <glyph glyph-name="thorn" unicode="&#xfe;" horiz-adv-x="592" 
d="M547 272c0 -61.333 -8.16895 -113 -24.502 -155s-39.5 -73.667 -69.5 -95s-64.667 -32 -104 -32c-23.333 0 -44.166 3.16699 -62.499 9.5s-34.166 15 -47.499 26s-24.666 22.833 -33.999 35.5h-7c1.33301 -6 2.5 -13.833 3.5 -23.5s1.83301 -19.5 2.5 -29.5
s1 -18.667 1 -26v-222h-133v1000h133v-203c0 -14 -0.833008 -29.5 -2.5 -46.5s-2.83398 -30.167 -3.50098 -39.5h6c9.33301 15.333 20.666 29 33.999 41s29.333 21.667 48 29s40.334 11 65.001 11c58 0 105 -23.667 141 -71s54 -117 54 -209zM411.998 274
c0 58.667 -7.99805 102.667 -23.998 132s-41.667 44 -77 44c-38.667 0 -66 -13.167 -82 -39.5s-24 -66.5 -24 -120.5v-17c0 -58 7.66699 -102.5 23 -133.5s43.666 -46.5 84.999 -46.5c23.333 0 42.166 7 56.499 21s25 34.5 32 61.5s10.5 59.833 10.5 98.5z" />
    <glyph glyph-name="ydieresis" unicode="&#xff;" horiz-adv-x="528" 
d="M0 542l142.002 0.00292969l97 -306c4.66699 -12.667 8.5 -25.334 11.5 -38.001s5.66699 -25.334 8 -38.001s4.16602 -25.334 5.49902 -38.001h3c2.66699 16.667 6.16699 35 10.5 55s9.5 39.667 15.5 59l95 306h140l-215 -613c-12.667 -36 -28.5 -66.667 -47.5 -92
s-42 -44.5 -69 -57.5s-59.167 -19.5 -96.5 -19.5c-15.333 0 -28.833 0.833008 -40.5 2.5s-21.834 3.5 -30.501 5.5v100c6.66699 -1.33301 15 -2.66602 25 -3.99902s20.333 -2 31 -2c19.333 0 35.833 4.16699 49.5 12.5s25.167 19.666 34.5 33.999s16.333 30.833 21 49.5
l14 44zM106.002 684.003c0 21.333 6 36.666 18 45.999s26.667 14 44 14c16 0 30.167 -4.66699 42.5 -14s18.5 -24.666 18.5 -45.999c0 -20 -6.16699 -34.833 -18.5 -44.5s-26.5 -14.5 -42.5 -14.5c-17.333 0 -32 4.83301 -44 14.5s-18 24.5 -18 44.5zM299.002 684.003
c0 21.333 6 36.666 18 45.999s26.333 14 43 14c17.333 0 32.166 -4.66699 44.499 -14s18.5 -24.666 18.5 -45.999c0 -20 -6.16699 -34.833 -18.5 -44.5s-27.166 -14.5 -44.499 -14.5c-16.667 0 -31 4.83301 -43 14.5s-18 24.5 -18 44.5z" />
    <glyph glyph-name="Amacron" unicode="&#x100;" horiz-adv-x="642" 
d="M498 0l-55 189h-244l-55 -189h-144l240 717h161l241 -717h-144zM354 483c-2.66699 10.667 -6.16699 23.501 -10.5 38.501s-8.33301 30.5 -12 46.5l-10.5 45c-4.66699 -24.667 -10 -48.334 -16 -71.001l-16 -59l-56 -184h178zM474 869.001v-91h-307v91h307z" />
    <glyph glyph-name="amacron" unicode="&#x101;" horiz-adv-x="560" 
d="M289 552c65.333 0 115.332 -15.168 149.999 -45.501s52 -77.833 52 -142.5v-364h-93l-26 75h-4c-14.667 -19.333 -29.667 -35.5 -45 -48.5s-32.833 -22.333 -52.5 -28s-43.834 -8.5 -72.501 -8.5c-30 0 -57 6 -81 18s-43 30.5 -57 55.5s-21 56.5 -21 94.5
c0 56 19.333 98.167 58 126.5s97 43.833 175 46.5l86 3v27c0 34.667 -7.16699 59.334 -21.5 74.001s-34.5 22 -60.5 22c-24 0 -48.167 -4 -72.5 -12s-48.166 -17.333 -71.499 -28l-41 88c26.667 14 56.834 25.333 90.501 34s69.5 13 107.5 13zM301.999 253.999
c-47.333 -2 -80.333 -11.501 -99 -28.501s-28 -39.833 -28 -68.5c0 -25.333 6.5 -43.666 19.5 -54.999s30.167 -17 51.5 -17c31.333 0 58 10.5 80 31.5s33 52.167 33 93.5v46zM432.999 703.998v-91h-307v91h307z" />
    <glyph glyph-name="Abreve" unicode="&#x102;" horiz-adv-x="642" 
d="M498 0l-55 189h-244l-55 -189h-144l240 717h161l241 -717h-144zM354 483c-2.66699 10.667 -6.16699 23.501 -10.5 38.501s-8.33301 30.5 -12 46.5l-10.5 45c-4.66699 -24.667 -10 -48.334 -16 -71.001l-16 -59l-56 -184h178zM491 931.001
c-2 -30 -10.166 -56.5 -24.499 -79.5s-33.833 -41 -58.5 -54s-54.334 -19.5 -89.001 -19.5c-53.333 0 -94 14 -122 42s-43.333 65 -46 111h74c2.66699 -18 8 -31.5 16 -40.5s18.667 -14.667 32 -17s29 -3.5 47 -3.5c22.667 0 43.167 3.66699 61.5 11s29.5 24 33.5 50h76z
" />
    <glyph glyph-name="abreve" unicode="&#x103;" horiz-adv-x="560" 
d="M289 552c65.333 0 115.332 -15.168 149.999 -45.501s52 -77.833 52 -142.5v-364h-93l-26 75h-4c-14.667 -19.333 -29.667 -35.5 -45 -48.5s-32.833 -22.333 -52.5 -28s-43.834 -8.5 -72.501 -8.5c-30 0 -57 6 -81 18s-43 30.5 -57 55.5s-21 56.5 -21 94.5
c0 56 19.333 98.167 58 126.5s97 43.833 175 46.5l86 3v27c0 34.667 -7.16699 59.334 -21.5 74.001s-34.5 22 -60.5 22c-24 0 -48.167 -4 -72.5 -12s-48.166 -17.333 -71.499 -28l-41 88c26.667 14 56.834 25.333 90.501 34s69.5 13 107.5 13zM301.999 253.999
c-47.333 -2 -80.333 -11.501 -99 -28.501s-28 -39.833 -28 -68.5c0 -25.333 6.5 -43.666 19.5 -54.999s30.167 -17 51.5 -17c31.333 0 58 10.5 80 31.5s33 52.167 33 93.5v46zM449.999 765.998c-2 -30 -10.166 -56.5 -24.499 -79.5s-33.833 -41 -58.5 -54
s-54.334 -19.5 -89.001 -19.5c-53.333 0 -94 14 -122 42s-43.333 65 -46 111h74c2.66699 -18 8 -31.5 16 -40.5s18.667 -14.667 32 -17s29 -3.5 47 -3.5c22.667 0 43.167 3.66699 61.5 11s29.5 24 33.5 50h76z" />
    <glyph glyph-name="Aogonek" unicode="&#x104;" horiz-adv-x="642" 
d="M498 0l-55 189h-244l-55 -189h-144l240 717h161l241 -717h-144zM354 483c-2.66699 10.667 -6.16699 23.501 -10.5 38.501s-8.33301 30.5 -12 46.5l-10.5 45c-4.66699 -24.667 -10 -48.334 -16 -71.001l-16 -59l-56 -184h178zM562 -112.999
c0 -14 3.5 -24.501 10.5 -31.501s16.167 -10.5 27.5 -10.5c10 0 19.5 1 28.5 3s16.167 3.66699 21.5 5v-75c-9.33301 -2.66699 -19.5 -5 -30.5 -7s-23.833 -3 -38.5 -3c-22.667 0 -42.5 4.33301 -59.5 13s-30 20.834 -39 36.501s-13.5 34.167 -13.5 55.5
c0 19.333 4.16699 38 12.5 56s20 34.333 35 49s32.167 27.334 51.5 38.001l58 -16c-20.667 -21.333 -36.5 -40.833 -47.5 -58.5s-16.5 -35.834 -16.5 -54.501z" />
    <glyph glyph-name="aogonek" unicode="&#x105;" horiz-adv-x="560" 
d="M289 552c65.333 0 115.332 -15.168 149.999 -45.501s52 -77.833 52 -142.5v-364h-93l-26 75h-4c-14.667 -19.333 -29.667 -35.5 -45 -48.5s-32.833 -22.333 -52.5 -28s-43.834 -8.5 -72.501 -8.5c-30 0 -57 6 -81 18s-43 30.5 -57 55.5s-21 56.5 -21 94.5
c0 56 19.333 98.167 58 126.5s97 43.833 175 46.5l86 3v27c0 34.667 -7.16699 59.334 -21.5 74.001s-34.5 22 -60.5 22c-24 0 -48.167 -4 -72.5 -12s-48.166 -17.333 -71.499 -28l-41 88c26.667 14 56.834 25.333 90.501 34s69.5 13 107.5 13zM301.999 253.999
c-47.333 -2 -80.333 -11.501 -99 -28.501s-28 -39.833 -28 -68.5c0 -25.333 6.5 -43.666 19.5 -54.999s30.167 -17 51.5 -17c31.333 0 58 10.5 80 31.5s33 52.167 33 93.5v46zM430.999 -113.002c0 -14 3.5 -24.501 10.5 -31.501s16.167 -10.5 27.5 -10.5c10 0 19.5 1 28.5 3
s16.167 3.66699 21.5 5v-75c-9.33301 -2.66699 -19.5 -5 -30.5 -7s-23.833 -3 -38.5 -3c-22.667 0 -42.5 4.33301 -59.5 13s-30 20.834 -39 36.501s-13.5 34.167 -13.5 55.5c0 19.333 4.16699 38 12.5 56s20 34.333 35 49s32.167 27.334 51.5 38.001l58 -16
c-20.667 -21.333 -36.5 -40.833 -47.5 -58.5s-16.5 -35.834 -16.5 -54.501z" />
    <glyph glyph-name="Cacute" unicode="&#x106;" horiz-adv-x="600" 
d="M373 616c-28 0 -53.3291 -6.00098 -75.9961 -18.001s-41.834 -29.333 -57.501 -52s-27.5 -50 -35.5 -82s-12 -68 -12 -108c0 -54 6.66699 -100.167 20 -138.5s33.666 -67.833 60.999 -88.5s61.666 -31 102.999 -31c28.667 0 56.667 3.16699 84 9.5s55 14.833 83 25.5
v-109c-27.333 -12 -55.5 -20.667 -84.5 -26s-61.5 -8 -97.5 -8c-70 0 -127.833 15.167 -173.5 45.5s-79.5 73 -101.5 128s-33 119.5 -33 193.5c0 54 7 103.333 21 148s34.667 83.334 62 116.001s61 58 101 76s85.667 27 137 27c33.333 0 67.666 -4.16699 102.999 -12.5
s66.333 -19.833 93 -34.5l-45 -105c-23.333 11.333 -47.5 21.5 -72.5 30.5s-51.5 13.5 -79.5 13.5zM542.004 927.999c-8.66699 -9.33301 -20 -20.667 -34 -34l-45 -42l-47 -41.5c-15.333 -13 -29 -23.833 -41 -32.5h-88v13l34.5 44.5l39 53
c13 18.333 23.833 34.833 32.5 49.5h149v-10z" />
    <glyph glyph-name="cacute" unicode="&#x107;" horiz-adv-x="480" 
d="M288 -10c-50 0 -93.167 9.83203 -129.5 29.499s-64.333 50 -84 91s-29.5 93.5 -29.5 157.5c0 66.667 10.833 120.834 32.5 162.501s51.5 72.334 89.5 92.001s81.667 29.5 131 29.5c30.667 0 59.5 -3.33301 86.5 -10s49.5 -14.667 67.5 -24l-40 -97
c-18 7.33301 -36 13.666 -54 18.999s-36.333 8 -55 8c-26.667 0 -49 -6.66699 -67 -20s-31.833 -33.166 -41.5 -59.499s-14.5 -59.5 -14.5 -99.5c0 -38.667 4.83301 -71 14.5 -97s23.5 -45.5 41.5 -58.5s40 -19.5 66 -19.5s50.167 3.66699 72.5 11s43.5 17.333 63.5 30v-109
c-20.667 -12.667 -42.667 -21.834 -66 -27.501s-51.333 -8.5 -84 -8.5zM461 755.999c-8.66699 -9.33301 -20 -20.667 -34 -34l-45 -42l-47 -41.5c-15.333 -13 -29 -23.833 -41 -32.5h-88v13l34.5 44.5l39 53c13 18.333 23.833 34.833 32.5 49.5h149v-10z" />
    <glyph glyph-name="Ccircumflex" unicode="&#x108;" horiz-adv-x="600" 
d="M373 616c-28 0 -53.3291 -6.00098 -75.9961 -18.001s-41.834 -29.333 -57.501 -52s-27.5 -50 -35.5 -82s-12 -68 -12 -108c0 -54 6.66699 -100.167 20 -138.5s33.666 -67.833 60.999 -88.5s61.666 -31 102.999 -31c28.667 0 56.667 3.16699 84 9.5s55 14.833 83 25.5
v-109c-27.333 -12 -55.5 -20.667 -84.5 -26s-61.5 -8 -97.5 -8c-70 0 -127.833 15.167 -173.5 45.5s-79.5 73 -101.5 128s-33 119.5 -33 193.5c0 54 7 103.333 21 148s34.667 83.334 62 116.001s61 58 101 76s85.667 27 137 27c33.333 0 67.666 -4.16699 102.999 -12.5
s66.333 -19.833 93 -34.5l-45 -105c-23.333 11.333 -47.5 21.5 -72.5 30.5s-51.5 13.5 -79.5 13.5zM422.004 937.999c9.33301 -14.667 21 -31.168 35 -49.501s28.5 -36.166 43.5 -53.499l39.5 -45v-12h-88c-16.667 10.667 -33.5 23.5 -50.5 38.5s-33.833 31.5 -50.5 49.5
c-16.667 -18 -33.167 -34.333 -49.5 -49s-32.833 -27.667 -49.5 -39h-88v12l40 45.5l43.5 53c14.333 18.333 25.5 34.833 33.5 49.5h141z" />
    <glyph glyph-name="ccircumflex" unicode="&#x109;" horiz-adv-x="480" 
d="M288 -10c-50 0 -93.167 9.83203 -129.5 29.499s-64.333 50 -84 91s-29.5 93.5 -29.5 157.5c0 66.667 10.833 120.834 32.5 162.501s51.5 72.334 89.5 92.001s81.667 29.5 131 29.5c30.667 0 59.5 -3.33301 86.5 -10s49.5 -14.667 67.5 -24l-40 -97
c-18 7.33301 -36 13.666 -54 18.999s-36.333 8 -55 8c-26.667 0 -49 -6.66699 -67 -20s-31.833 -33.166 -41.5 -59.499s-14.5 -59.5 -14.5 -99.5c0 -38.667 4.83301 -71 14.5 -97s23.5 -45.5 41.5 -58.5s40 -19.5 66 -19.5s50.167 3.66699 72.5 11s43.5 17.333 63.5 30v-109
c-20.667 -12.667 -42.667 -21.834 -66 -27.501s-51.333 -8.5 -84 -8.5zM341 765.999c9.33301 -14.667 21 -31.168 35 -49.501s28.5 -36.166 43.5 -53.499l39.5 -45v-12h-88c-16.667 10.667 -33.5 23.5 -50.5 38.5s-33.833 31.5 -50.5 49.5
c-16.667 -18 -33.167 -34.333 -49.5 -49s-32.833 -27.667 -49.5 -39h-88v12l40 45.5l43.5 53c14.333 18.333 25.5 34.833 33.5 49.5h141z" />
    <glyph glyph-name="Cdot" unicode="&#x10a;" horiz-adv-x="600" 
d="M373 616c-28 0 -53.3291 -6.00098 -75.9961 -18.001s-41.834 -29.333 -57.501 -52s-27.5 -50 -35.5 -82s-12 -68 -12 -108c0 -54 6.66699 -100.167 20 -138.5s33.666 -67.833 60.999 -88.5s61.666 -31 102.999 -31c28.667 0 56.667 3.16699 84 9.5s55 14.833 83 25.5
v-109c-27.333 -12 -55.5 -20.667 -84.5 -26s-61.5 -8 -97.5 -8c-70 0 -127.833 15.167 -173.5 45.5s-79.5 73 -101.5 128s-33 119.5 -33 193.5c0 54 7 103.333 21 148s34.667 83.334 62 116.001s61 58 101 76s85.667 27 137 27c33.333 0 67.666 -4.16699 102.999 -12.5
s66.333 -19.833 93 -34.5l-45 -105c-23.333 11.333 -47.5 21.5 -72.5 30.5s-51.5 13.5 -79.5 13.5zM352.004 922.999c19.333 0 36.166 -4.83301 50.499 -14.5s21.5 -26.834 21.5 -51.501c0 -24 -7.16699 -41.167 -21.5 -51.5s-31.166 -15.5 -50.499 -15.5
c-20.667 0 -38 5.16699 -52 15.5s-21 27.5 -21 51.5c0 24.667 7 41.834 21 51.501s31.333 14.5 52 14.5z" />
    <glyph glyph-name="cdot" unicode="&#x10b;" horiz-adv-x="480" 
d="M288 -10c-50 0 -93.167 9.83203 -129.5 29.499s-64.333 50 -84 91s-29.5 93.5 -29.5 157.5c0 66.667 10.833 120.834 32.5 162.501s51.5 72.334 89.5 92.001s81.667 29.5 131 29.5c30.667 0 59.5 -3.33301 86.5 -10s49.5 -14.667 67.5 -24l-40 -97
c-18 7.33301 -36 13.666 -54 18.999s-36.333 8 -55 8c-26.667 0 -49 -6.66699 -67 -20s-31.833 -33.166 -41.5 -59.499s-14.5 -59.5 -14.5 -99.5c0 -38.667 4.83301 -71 14.5 -97s23.5 -45.5 41.5 -58.5s40 -19.5 66 -19.5s50.167 3.66699 72.5 11s43.5 17.333 63.5 30v-109
c-20.667 -12.667 -42.667 -21.834 -66 -27.501s-51.333 -8.5 -84 -8.5zM271 750.999c19.333 0 36.166 -4.83301 50.499 -14.5s21.5 -26.834 21.5 -51.501c0 -24 -7.16699 -41.167 -21.5 -51.5s-31.166 -15.5 -50.499 -15.5c-20.667 0 -38 5.16699 -52 15.5
s-21 27.5 -21 51.5c0 24.667 7 41.834 21 51.501s31.333 14.5 52 14.5z" />
    <glyph glyph-name="Ccaron" unicode="&#x10c;" horiz-adv-x="600" 
d="M373 616c-28 0 -53.3291 -6.00098 -75.9961 -18.001s-41.834 -29.333 -57.501 -52s-27.5 -50 -35.5 -82s-12 -68 -12 -108c0 -54 6.66699 -100.167 20 -138.5s33.666 -67.833 60.999 -88.5s61.666 -31 102.999 -31c28.667 0 56.667 3.16699 84 9.5s55 14.833 83 25.5
v-109c-27.333 -12 -55.5 -20.667 -84.5 -26s-61.5 -8 -97.5 -8c-70 0 -127.833 15.167 -173.5 45.5s-79.5 73 -101.5 128s-33 119.5 -33 193.5c0 54 7 103.333 21 148s34.667 83.334 62 116.001s61 58 101 76s85.667 27 137 27c33.333 0 67.666 -4.16699 102.999 -12.5
s66.333 -19.833 93 -34.5l-45 -105c-23.333 11.333 -47.5 21.5 -72.5 30.5s-51.5 13.5 -79.5 13.5zM540.004 924.999l-39.501 -44c-15 -17.333 -29.5 -35 -43.5 -53s-25.667 -34.667 -35 -50h-141c-8 15.333 -19.167 32 -33.5 50l-43.5 53c-14.667 17.333 -28 32 -40 44v13
h88c16.667 -10.667 33.334 -23.5 50.001 -38.5s33 -31.5 49 -49.5c16.667 18 33.5 34.5 50.5 49.5s33.833 27.833 50.5 38.5h88v-13z" />
    <glyph glyph-name="ccaron" unicode="&#x10d;" horiz-adv-x="480" 
d="M288 -10c-50 0 -93.167 9.83203 -129.5 29.499s-64.333 50 -84 91s-29.5 93.5 -29.5 157.5c0 66.667 10.833 120.834 32.5 162.501s51.5 72.334 89.5 92.001s81.667 29.5 131 29.5c30.667 0 59.5 -3.33301 86.5 -10s49.5 -14.667 67.5 -24l-40 -97
c-18 7.33301 -36 13.666 -54 18.999s-36.333 8 -55 8c-26.667 0 -49 -6.66699 -67 -20s-31.833 -33.166 -41.5 -59.499s-14.5 -59.5 -14.5 -99.5c0 -38.667 4.83301 -71 14.5 -97s23.5 -45.5 41.5 -58.5s40 -19.5 66 -19.5s50.167 3.66699 72.5 11s43.5 17.333 63.5 30v-109
c-20.667 -12.667 -42.667 -21.834 -66 -27.501s-51.333 -8.5 -84 -8.5zM459 752.999l-39.501 -44c-15 -17.333 -29.5 -35 -43.5 -53s-25.667 -34.667 -35 -50h-141c-8 15.333 -19.167 32 -33.5 50l-43.5 53c-14.667 17.333 -28 32 -40 44v13h88
c16.667 -10.667 33.334 -23.5 50.001 -38.5s33 -31.5 49 -49.5c16.667 18 33.5 34.5 50.5 49.5s33.833 27.833 50.5 38.5h88v-13z" />
    <glyph glyph-name="Dcaron" unicode="&#x10e;" horiz-adv-x="691" 
d="M637 364c0 -80 -14.168 -146.998 -42.501 -200.998s-69.166 -94.667 -122.499 -122s-117.333 -41 -192 -41h-196v714h215c70 0 130.333 -13.333 181 -40s89.5 -65.834 116.5 -117.501s40.5 -115.834 40.5 -192.501zM496.999 360.002c0 56.667 -7.5 103.332 -22.5 139.999
s-37.333 63.834 -67 81.501s-66.167 26.5 -109.5 26.5h-80v-501h65c72.667 0 126.5 21.167 161.5 63.5s52.5 105.5 52.5 189.5zM531.999 925l-39.501 -44c-15 -17.333 -29.5 -35 -43.5 -53s-25.667 -34.667 -35 -50h-141c-8 15.333 -19.167 32 -33.5 50l-43.5 53
c-14.667 17.333 -28 32 -40 44v13h88c16.667 -10.667 33.334 -23.5 50.001 -38.5s33 -31.5 49 -49.5c16.667 18 33.5 34.5 50.5 49.5s33.833 27.833 50.5 38.5h88v-13z" />
    <glyph glyph-name="dcaron" unicode="&#x10f;" horiz-adv-x="626" 
d="M713 750c-5.33301 -13.333 -11.833 -28.5 -19.5 -45.5s-16.167 -34.5 -25.5 -52.5s-19 -35.333 -29 -52h-77v13c2.66699 9.33301 5.5 20.333 8.5 33s5.83301 25.667 8.5 39s5 26.5 7 39.5s3.33301 24.833 4 35.5h123v-10zM240 -10c-58 0 -104.999 23.499 -140.999 70.499
s-54 116.833 -54 209.5s18.333 162.834 55 210.501s84.667 71.5 144 71.5c24.667 0 46.167 -3.5 64.5 -10.5s34.166 -16.5 47.499 -28.5s25 -25.333 35 -40h4c-1.33301 9.33301 -3 23.666 -5 42.999s-3 37.333 -3 54v190h133v-760h-102l-25 71h-6
c-8.66699 -14.667 -19.667 -28.167 -33 -40.5s-29.333 -22.166 -48 -29.499s-40.667 -11 -66 -11zM284.001 91.999c40.667 0 69.333 13.332 86 39.999s25 67 25 121v16c0 58.667 -7.83301 103.334 -23.5 134.001s-45.167 46 -88.5 46c-33.333 0 -58.833 -15.833 -76.5 -47.5
s-26.5 -76.167 -26.5 -133.5s8.83301 -101 26.5 -131s43.5 -45 77.5 -45z" />
    <glyph glyph-name="Dcroat" unicode="&#x110;" horiz-adv-x="691" 
d="M299 714c70 0 130.168 -13.3311 180.501 -39.998s89.166 -65.834 116.499 -117.501s41 -115.834 41 -192.501c0 -80 -14.167 -147 -42.5 -201s-69.333 -94.667 -123 -122s-117.5 -41 -191.5 -41h-194v300h-64v106h64v308h213zM298.001 608.002h-78v-202h125v-106h-125
v-193h63c71.333 0 124.833 21.333 160.5 64s53.5 105.667 53.5 189c0 86 -17.167 148.833 -51.5 188.5s-83.5 59.5 -147.5 59.5z" />
    <glyph glyph-name="dcroat" unicode="&#x111;" horiz-adv-x="604" 
d="M238 -10c-57.333 0 -103.834 22.8311 -139.501 68.498s-53.5 112.834 -53.5 201.501c0 90.667 18.5 158.667 55.5 204s85.167 68 144.5 68c24.667 0 46.167 -3.5 64.5 -10.5s34.333 -16.5 48 -28.5s25.167 -25.333 34.5 -40h5c-3.33301 17.333 -5.83301 34.5 -7.5 51.5
s-2.5 33.167 -2.5 48.5v39h-152v85h152v83h133v-83h72v-85h-72v-592h-106l-26 71h-5c-9.33301 -14.667 -20.666 -28.167 -33.999 -40.5s-29 -22.166 -47 -29.499s-39.333 -11 -64 -11zM287.999 91.998c39.333 0 67 12.501 83 37.501s24 63.167 24 114.5v15
c0 55.333 -8.16699 97.666 -24.5 126.999s-44.833 44 -85.5 44c-32 0 -56.667 -15 -74 -45s-26 -72.333 -26 -127c0 -54 8.5 -95.167 25.5 -123.5s42.833 -42.5 77.5 -42.5z" />
    <glyph glyph-name="Emacron" unicode="&#x112;" horiz-adv-x="522" 
d="M469 0h-385v714h385v-107h-251v-182h235v-107h-235v-210h251v-108zM434 869v-91h-307v91h307z" />
    <glyph glyph-name="emacron" unicode="&#x113;" horiz-adv-x="554" 
d="M285 552c46.667 0 86.832 -9.83105 120.499 -29.498s59.834 -47.667 78.501 -84s28 -80.5 28 -132.5v-64h-332c1.33301 -49.333 13.5 -87.5 36.5 -114.5s55.5 -40.5 97.5 -40.5c32.667 0 62.167 3.5 88.5 10.5s53.5 17.167 81.5 30.5v-101
c-25.333 -12.667 -51.666 -22 -78.999 -28s-61 -9 -101 -9c-50.667 0 -95.5 10.167 -134.5 30.5s-69.5 51.166 -91.5 92.499s-33 92.666 -33 153.999c0 62 10 114.167 30 156.5s48.167 74.333 84.5 96s78.166 32.5 125.499 32.5zM286.998 459.002
c-29.333 0 -53.333 -10.8311 -72 -32.498s-29.667 -53.834 -33 -96.501h204c0 25.333 -3.66699 47.666 -11 66.999s-18.333 34.5 -33 45.5s-33 16.5 -55 16.5zM430.998 697.004v-91h-307v91h307z" />
    <glyph glyph-name="Ebreve" unicode="&#x114;" horiz-adv-x="522" 
d="M469 0h-385v714h385v-107h-251v-182h235v-107h-235v-210h251v-108zM451 931c-2 -30 -10.166 -56.5 -24.499 -79.5s-33.833 -41 -58.5 -54s-54.334 -19.5 -89.001 -19.5c-53.333 0 -94 14 -122 42s-43.333 65 -46 111h74c2.66699 -18 8 -31.5 16 -40.5
s18.667 -14.667 32 -17s29 -3.5 47 -3.5c22.667 0 43.167 3.66699 61.5 11s29.5 24 33.5 50h76z" />
    <glyph glyph-name="ebreve" unicode="&#x115;" horiz-adv-x="554" 
d="M285 552c46.667 0 86.832 -9.83105 120.499 -29.498s59.834 -47.667 78.501 -84s28 -80.5 28 -132.5v-64h-332c1.33301 -49.333 13.5 -87.5 36.5 -114.5s55.5 -40.5 97.5 -40.5c32.667 0 62.167 3.5 88.5 10.5s53.5 17.167 81.5 30.5v-101
c-25.333 -12.667 -51.666 -22 -78.999 -28s-61 -9 -101 -9c-50.667 0 -95.5 10.167 -134.5 30.5s-69.5 51.166 -91.5 92.499s-33 92.666 -33 153.999c0 62 10 114.167 30 156.5s48.167 74.333 84.5 96s78.166 32.5 125.499 32.5zM286.998 459.002
c-29.333 0 -53.333 -10.8311 -72 -32.498s-29.667 -53.834 -33 -96.501h204c0 25.333 -3.66699 47.666 -11 66.999s-18.333 34.5 -33 45.5s-33 16.5 -55 16.5zM447.998 759.004c-2 -30 -10.166 -56.5 -24.499 -79.5s-33.833 -41 -58.5 -54s-54.334 -19.5 -89.001 -19.5
c-53.333 0 -94 14 -122 42s-43.333 65 -46 111h74c2.66699 -18 8 -31.5 16 -40.5s18.667 -14.667 32 -17s29 -3.5 47 -3.5c22.667 0 43.167 3.66699 61.5 11s29.5 24 33.5 50h76z" />
    <glyph glyph-name="Edotaccent" unicode="&#x116;" horiz-adv-x="522" 
d="M469 0h-385v714h385v-107h-251v-182h235v-107h-235v-210h251v-108zM281 923c19.333 0 36.166 -4.83301 50.499 -14.5s21.5 -26.834 21.5 -51.501c0 -24 -7.16699 -41.167 -21.5 -51.5s-31.166 -15.5 -50.499 -15.5c-20.667 0 -38 5.16699 -52 15.5s-21 27.5 -21 51.5
c0 24.667 7 41.834 21 51.501s31.333 14.5 52 14.5z" />
    <glyph glyph-name="edotaccent" unicode="&#x117;" horiz-adv-x="554" 
d="M285 552c46.667 0 86.832 -9.83105 120.499 -29.498s59.834 -47.667 78.501 -84s28 -80.5 28 -132.5v-64h-332c1.33301 -49.333 13.5 -87.5 36.5 -114.5s55.5 -40.5 97.5 -40.5c32.667 0 62.167 3.5 88.5 10.5s53.5 17.167 81.5 30.5v-101
c-25.333 -12.667 -51.666 -22 -78.999 -28s-61 -9 -101 -9c-50.667 0 -95.5 10.167 -134.5 30.5s-69.5 51.166 -91.5 92.499s-33 92.666 -33 153.999c0 62 10 114.167 30 156.5s48.167 74.333 84.5 96s78.166 32.5 125.499 32.5zM286.998 459.002
c-29.333 0 -53.333 -10.8311 -72 -32.498s-29.667 -53.834 -33 -96.501h204c0 25.333 -3.66699 47.666 -11 66.999s-18.333 34.5 -33 45.5s-33 16.5 -55 16.5zM277.998 751.004c19.333 0 36.166 -4.83301 50.499 -14.5s21.5 -26.834 21.5 -51.501
c0 -24 -7.16699 -41.167 -21.5 -51.5s-31.166 -15.5 -50.499 -15.5c-20.667 0 -38 5.16699 -52 15.5s-21 27.5 -21 51.5c0 24.667 7 41.834 21 51.501s31.333 14.5 52 14.5z" />
    <glyph glyph-name="Eogonek" unicode="&#x118;" horiz-adv-x="522" 
d="M469 0h-385v714h385v-107h-251v-182h235v-107h-235v-210h251v-108zM401 -113c0 -14 3.5 -24.501 10.5 -31.501s16.167 -10.5 27.5 -10.5c10 0 19.5 1 28.5 3s16.167 3.66699 21.5 5v-75c-9.33301 -2.66699 -19.5 -5 -30.5 -7s-23.833 -3 -38.5 -3
c-22.667 0 -42.5 4.33301 -59.5 13s-30 20.834 -39 36.501s-13.5 34.167 -13.5 55.5c0 19.333 4.16699 38 12.5 56s20 34.333 35 49s32.167 27.334 51.5 38.001l58 -16c-20.667 -21.333 -36.5 -40.833 -47.5 -58.5s-16.5 -35.834 -16.5 -54.501z" />
    <glyph glyph-name="eogonek" unicode="&#x119;" horiz-adv-x="554" 
d="M380 -113c0 -14 3.83301 -24.498 11.5 -31.498s17.5 -10.5 29.5 -10.5c11.333 0 21.5 1 30.5 3l22.5 5v-75c-10 -2.66699 -20.5 -5 -31.5 -7s-23.833 -3 -38.5 -3c-36.667 0 -65 9.66699 -85 29s-30 44.666 -30 75.999c0 19.333 4.83301 38 14.5 56s22.5 34.333 38.5 49
s32.667 27.334 50 38.001l91 11c-26.667 -22 -47.5 -41.333 -62.5 -58s-25.5 -31.334 -31.5 -44.001s-9 -25.334 -9 -38.001zM285 552.002c46.667 0 86.832 -9.83105 120.499 -29.498s59.834 -47.667 78.501 -84s28 -80.5 28 -132.5v-64h-332
c1.33301 -49.333 13.5 -87.5 36.5 -114.5s55.5 -40.5 97.5 -40.5c32.667 0 62.167 3.5 88.5 10.5s53.5 17.167 81.5 30.5v-101c-25.333 -12.667 -51.666 -22 -78.999 -28s-61 -9 -101 -9c-50.667 0 -95.5 10.167 -134.5 30.5s-69.5 51.166 -91.5 92.499
s-33 92.666 -33 153.999c0 62 10 114.167 30 156.5s48.167 74.333 84.5 96s78.166 32.5 125.499 32.5zM286.998 459.004c-29.333 0 -53.333 -10.8311 -72 -32.498s-29.667 -53.834 -33 -96.501h204c0 25.333 -3.66699 47.666 -11 66.999s-18.333 34.5 -33 45.5
s-33 16.5 -55 16.5z" />
    <glyph glyph-name="Ecaron" unicode="&#x11a;" horiz-adv-x="522" 
d="M469 0h-385v714h385v-107h-251v-182h235v-107h-235v-210h251v-108zM469 925l-39.501 -44c-15 -17.333 -29.5 -35 -43.5 -53s-25.667 -34.667 -35 -50h-141c-8 15.333 -19.167 32 -33.5 50l-43.5 53c-14.667 17.333 -28 32 -40 44v13h88
c16.667 -10.667 33.334 -23.5 50.001 -38.5s33 -31.5 49 -49.5c16.667 18 33.5 34.5 50.5 49.5s33.833 27.833 50.5 38.5h88v-13z" />
    <glyph glyph-name="ecaron" unicode="&#x11b;" horiz-adv-x="554" 
d="M285 552c46.667 0 86.832 -9.83105 120.499 -29.498s59.834 -47.667 78.501 -84s28 -80.5 28 -132.5v-64h-332c1.33301 -49.333 13.5 -87.5 36.5 -114.5s55.5 -40.5 97.5 -40.5c32.667 0 62.167 3.5 88.5 10.5s53.5 17.167 81.5 30.5v-101
c-25.333 -12.667 -51.666 -22 -78.999 -28s-61 -9 -101 -9c-50.667 0 -95.5 10.167 -134.5 30.5s-69.5 51.166 -91.5 92.499s-33 92.666 -33 153.999c0 62 10 114.167 30 156.5s48.167 74.333 84.5 96s78.166 32.5 125.499 32.5zM286.998 459.002
c-29.333 0 -53.333 -10.8311 -72 -32.498s-29.667 -53.834 -33 -96.501h204c0 25.333 -3.66699 47.666 -11 66.999s-18.333 34.5 -33 45.5s-33 16.5 -55 16.5zM465.998 753.004l-39.501 -44c-15 -17.333 -29.5 -35 -43.5 -53s-25.667 -34.667 -35 -50h-141
c-8 15.333 -19.167 32 -33.5 50l-43.5 53c-14.667 17.333 -28 32 -40 44v13h88c16.667 -10.667 33.334 -23.5 50.001 -38.5s33 -31.5 49 -49.5c16.667 18 33.5 34.5 50.5 49.5s33.833 27.833 50.5 38.5h88v-13z" />
    <glyph glyph-name="Gcircumflex" unicode="&#x11c;" horiz-adv-x="686" 
d="M355 392l261.004 -0.00195312v-363c-34.667 -12.667 -71.834 -22.334 -111.501 -29.001s-83.834 -10 -132.501 -10c-66.667 0 -123.834 14.333 -171.501 43s-84.167 70.334 -109.5 125.001s-38 121.334 -38 200.001c0 74.667 13.667 139.334 41 194.001s67 97 119 127
s115.667 45 191 45c38 0 74.5 -3.83301 109.5 -11.5s66.833 -18.167 95.5 -31.5l-45 -105c-22.667 11.333 -47.834 20.833 -75.501 28.5s-56.5 11.5 -86.5 11.5c-45.333 0 -83.5 -10.667 -114.5 -32s-54.667 -51.5 -71 -90.5s-24.5 -84.833 -24.5 -137.5
c0 -50.667 6.83301 -95.5 20.5 -134.5s35 -69.333 64 -91s65.833 -32.5 110.5 -32.5c14 0 27 0.666992 39 2s23.167 3 33.5 5s19.5 4 27.5 6v172h-132v109zM448.004 937.998c9.33301 -14.667 21 -31.168 35 -49.501s28.5 -36.166 43.5 -53.499l39.5 -45v-12h-88
c-16.667 10.667 -33.5 23.5 -50.5 38.5s-33.833 31.5 -50.5 49.5c-16.667 -18 -33.167 -34.333 -49.5 -49s-32.833 -27.667 -49.5 -39h-88v12l40 45.5l43.5 53c14.333 18.333 25.5 34.833 33.5 49.5h141z" />
    <glyph glyph-name="gcircumflex" unicode="&#x11d;" horiz-adv-x="592" 
d="M243 552c33.333 0 62.3301 -6.66699 86.9971 -20s45.334 -33.333 62.001 -60h5l11 70h112v-546c0 -51.333 -9.16699 -94.5 -27.5 -129.5s-46.166 -61.5 -83.499 -79.5s-84.333 -27 -141 -27c-38 0 -72.5 2.5 -103.5 7.5s-60.5 13.5 -88.5 25.5v104
c20 -8.66699 40 -16.167 60 -22.5s41 -11.166 63 -14.499s45.333 -5 70 -5c38.667 0 68.167 11.667 88.5 35s30.5 56.666 30.5 99.999v14c0 10 0.333008 21.667 1 35s1.66699 24 3 32h-5c-15.333 -28 -35 -48.5 -59 -61.5s-53 -19.5 -87 -19.5
c-60.667 0 -108.5 24.667 -143.5 74s-52.5 118 -52.5 206c0 59.333 8 110 24 152s38.833 74.167 68.5 96.5s64.834 33.5 105.501 33.5zM282.997 449c-22.667 0 -41.665 -6.83105 -56.998 -20.498s-26.833 -33.834 -34.5 -60.501s-11.5 -60 -11.5 -100
c0 -58.667 8.66699 -103 26 -133s43.666 -45 78.999 -45c19.333 0 36 2.83301 50 8.5s25.333 15 34 28s15.334 29.667 20.001 50s7 44.833 7 73.5v19c0 43.333 -3.83301 78.166 -11.5 104.499s-19.834 45.5 -36.501 57.5s-38.334 18 -65.001 18zM358.999 766.002
c9.33301 -14.667 21 -31.168 35 -49.501s28.5 -36.166 43.5 -53.499l39.5 -45v-12h-88c-16.667 10.667 -33.5 23.5 -50.5 38.5s-33.833 31.5 -50.5 49.5c-16.667 -18 -33.167 -34.333 -49.5 -49s-32.833 -27.667 -49.5 -39h-88v12l40 45.5l43.5 53
c14.333 18.333 25.5 34.833 33.5 49.5h141z" />
    <glyph glyph-name="Gbreve" unicode="&#x11e;" horiz-adv-x="686" 
d="M355 392l261.004 -0.00195312v-363c-34.667 -12.667 -71.834 -22.334 -111.501 -29.001s-83.834 -10 -132.501 -10c-66.667 0 -123.834 14.333 -171.501 43s-84.167 70.334 -109.5 125.001s-38 121.334 -38 200.001c0 74.667 13.667 139.334 41 194.001s67 97 119 127
s115.667 45 191 45c38 0 74.5 -3.83301 109.5 -11.5s66.833 -18.167 95.5 -31.5l-45 -105c-22.667 11.333 -47.834 20.833 -75.501 28.5s-56.5 11.5 -86.5 11.5c-45.333 0 -83.5 -10.667 -114.5 -32s-54.667 -51.5 -71 -90.5s-24.5 -84.833 -24.5 -137.5
c0 -50.667 6.83301 -95.5 20.5 -134.5s35 -69.333 64 -91s65.833 -32.5 110.5 -32.5c14 0 27 0.666992 39 2s23.167 3 33.5 5s19.5 4 27.5 6v172h-132v109zM548.004 930.998c-2 -30 -10.166 -56.5 -24.499 -79.5s-33.833 -41 -58.5 -54s-54.334 -19.5 -89.001 -19.5
c-53.333 0 -94 14 -122 42s-43.333 65 -46 111h74c2.66699 -18 8 -31.5 16 -40.5s18.667 -14.667 32 -17s29 -3.5 47 -3.5c22.667 0 43.167 3.66699 61.5 11s29.5 24 33.5 50h76z" />
    <glyph glyph-name="gbreve" unicode="&#x11f;" horiz-adv-x="592" 
d="M243 552c33.333 0 62.3301 -6.66699 86.9971 -20s45.334 -33.333 62.001 -60h5l11 70h112v-546c0 -51.333 -9.16699 -94.5 -27.5 -129.5s-46.166 -61.5 -83.499 -79.5s-84.333 -27 -141 -27c-38 0 -72.5 2.5 -103.5 7.5s-60.5 13.5 -88.5 25.5v104
c20 -8.66699 40 -16.167 60 -22.5s41 -11.166 63 -14.499s45.333 -5 70 -5c38.667 0 68.167 11.667 88.5 35s30.5 56.666 30.5 99.999v14c0 10 0.333008 21.667 1 35s1.66699 24 3 32h-5c-15.333 -28 -35 -48.5 -59 -61.5s-53 -19.5 -87 -19.5
c-60.667 0 -108.5 24.667 -143.5 74s-52.5 118 -52.5 206c0 59.333 8 110 24 152s38.833 74.167 68.5 96.5s64.834 33.5 105.501 33.5zM282.997 449c-22.667 0 -41.665 -6.83105 -56.998 -20.498s-26.833 -33.834 -34.5 -60.501s-11.5 -60 -11.5 -100
c0 -58.667 8.66699 -103 26 -133s43.666 -45 78.999 -45c19.333 0 36 2.83301 50 8.5s25.333 15 34 28s15.334 29.667 20.001 50s7 44.833 7 73.5v19c0 43.333 -3.83301 78.166 -11.5 104.499s-19.834 45.5 -36.501 57.5s-38.334 18 -65.001 18zM458.999 759.002
c-2 -30 -10.166 -56.5 -24.499 -79.5s-33.833 -41 -58.5 -54s-54.334 -19.5 -89.001 -19.5c-53.333 0 -94 14 -122 42s-43.333 65 -46 111h74c2.66699 -18 8 -31.5 16 -40.5s18.667 -14.667 32 -17s29 -3.5 47 -3.5c22.667 0 43.167 3.66699 61.5 11s29.5 24 33.5 50h76z
" />
    <glyph glyph-name="Gdot" unicode="&#x120;" horiz-adv-x="686" 
d="M355 392l261.004 -0.00195312v-363c-34.667 -12.667 -71.834 -22.334 -111.501 -29.001s-83.834 -10 -132.501 -10c-66.667 0 -123.834 14.333 -171.501 43s-84.167 70.334 -109.5 125.001s-38 121.334 -38 200.001c0 74.667 13.667 139.334 41 194.001s67 97 119 127
s115.667 45 191 45c38 0 74.5 -3.83301 109.5 -11.5s66.833 -18.167 95.5 -31.5l-45 -105c-22.667 11.333 -47.834 20.833 -75.501 28.5s-56.5 11.5 -86.5 11.5c-45.333 0 -83.5 -10.667 -114.5 -32s-54.667 -51.5 -71 -90.5s-24.5 -84.833 -24.5 -137.5
c0 -50.667 6.83301 -95.5 20.5 -134.5s35 -69.333 64 -91s65.833 -32.5 110.5 -32.5c14 0 27 0.666992 39 2s23.167 3 33.5 5s19.5 4 27.5 6v172h-132v109zM378.004 922.998c19.333 0 36.166 -4.83301 50.499 -14.5s21.5 -26.834 21.5 -51.501
c0 -24 -7.16699 -41.167 -21.5 -51.5s-31.166 -15.5 -50.499 -15.5c-20.667 0 -38 5.16699 -52 15.5s-21 27.5 -21 51.5c0 24.667 7 41.834 21 51.501s31.333 14.5 52 14.5z" />
    <glyph glyph-name="gdot" unicode="&#x121;" horiz-adv-x="592" 
d="M243 552c33.333 0 62.3301 -6.66699 86.9971 -20s45.334 -33.333 62.001 -60h5l11 70h112v-546c0 -51.333 -9.16699 -94.5 -27.5 -129.5s-46.166 -61.5 -83.499 -79.5s-84.333 -27 -141 -27c-38 0 -72.5 2.5 -103.5 7.5s-60.5 13.5 -88.5 25.5v104
c20 -8.66699 40 -16.167 60 -22.5s41 -11.166 63 -14.499s45.333 -5 70 -5c38.667 0 68.167 11.667 88.5 35s30.5 56.666 30.5 99.999v14c0 10 0.333008 21.667 1 35s1.66699 24 3 32h-5c-15.333 -28 -35 -48.5 -59 -61.5s-53 -19.5 -87 -19.5
c-60.667 0 -108.5 24.667 -143.5 74s-52.5 118 -52.5 206c0 59.333 8 110 24 152s38.833 74.167 68.5 96.5s64.834 33.5 105.501 33.5zM282.997 449c-22.667 0 -41.665 -6.83105 -56.998 -20.498s-26.833 -33.834 -34.5 -60.501s-11.5 -60 -11.5 -100
c0 -58.667 8.66699 -103 26 -133s43.666 -45 78.999 -45c19.333 0 36 2.83301 50 8.5s25.333 15 34 28s15.334 29.667 20.001 50s7 44.833 7 73.5v19c0 43.333 -3.83301 78.166 -11.5 104.499s-19.834 45.5 -36.501 57.5s-38.334 18 -65.001 18zM288.999 751.002
c19.333 0 36.166 -4.83301 50.499 -14.5s21.5 -26.834 21.5 -51.501c0 -24 -7.16699 -41.167 -21.5 -51.5s-31.166 -15.5 -50.499 -15.5c-20.667 0 -38 5.16699 -52 15.5s-21 27.5 -21 51.5c0 24.667 7 41.834 21 51.501s31.333 14.5 52 14.5z" />
    <glyph glyph-name="uni0122" unicode="&#x122;" horiz-adv-x="686" 
d="M355 392l261.004 -0.00195312v-363c-34.667 -12.667 -71.834 -22.334 -111.501 -29.001s-83.834 -10 -132.501 -10c-66.667 0 -123.834 14.333 -171.501 43s-84.167 70.334 -109.5 125.001s-38 121.334 -38 200.001c0 74.667 13.667 139.334 41 194.001s67 97 119 127
s115.667 45 191 45c38 0 74.5 -3.83301 109.5 -11.5s66.833 -18.167 95.5 -31.5l-45 -105c-22.667 11.333 -47.834 20.833 -75.501 28.5s-56.5 11.5 -86.5 11.5c-45.333 0 -83.5 -10.667 -114.5 -32s-54.667 -51.5 -71 -90.5s-24.5 -84.833 -24.5 -137.5
c0 -50.667 6.83301 -95.5 20.5 -134.5s35 -69.333 64 -91s65.833 -32.5 110.5 -32.5c14 0 27 0.666992 39 2s23.167 3 33.5 5s19.5 4 27.5 6v172h-132v109zM436.004 -71.002c-5.33301 -13.333 -11.8311 -28.5 -19.498 -45.5s-16.334 -34.5 -26.001 -52.5
s-20.167 -35.333 -31.5 -52h-76v13c4 12 8 26.833 12 44.5s7.66699 35.667 11 54s5.66602 34.5 6.99902 48.5h123v-10z" />
    <glyph glyph-name="uni0123" unicode="&#x123;" horiz-adv-x="626" 
d="M361 753c-3.33301 -12 -7.00098 -26.833 -11.001 -44.5s-7.66699 -35.5 -11 -53.5s-5.66602 -34.333 -6.99902 -49h-124v10c4.66699 13.333 11 28.5 19 45.5s17 34.667 27 53s20 35.5 30 51.5h77v-13zM242.999 552c33.333 0 62.3301 -6.66699 86.9971 -20
s45.334 -33.333 62.001 -60h5l11 70h112v-546c0 -51.333 -9.16699 -94.5 -27.5 -129.5s-46.166 -61.5 -83.499 -79.5s-84.333 -27 -141 -27c-38 0 -72.5 2.5 -103.5 7.5s-60.5 13.5 -88.5 25.5v104c20 -8.66699 40 -16.167 60 -22.5s41 -11.166 63 -14.499s45.333 -5 70 -5
c38.667 0 68.167 11.667 88.5 35s30.5 56.666 30.5 99.999v14c0 10 0.333008 21.667 1 35s1.66699 24 3 32h-5c-15.333 -28 -35 -48.5 -59 -61.5s-53 -19.5 -87 -19.5c-60.667 0 -108.5 24.667 -143.5 74s-52.5 118 -52.5 206c0 59.333 8 110 24 152
s38.833 74.167 68.5 96.5s64.834 33.5 105.501 33.5zM282.996 449c-22.667 0 -41.665 -6.83105 -56.998 -20.498s-26.833 -33.834 -34.5 -60.501s-11.5 -60 -11.5 -100c0 -58.667 8.66699 -103 26 -133s43.666 -45 78.999 -45c19.333 0 36 2.83301 50 8.5s25.333 15 34 28
s15.334 29.667 20.001 50s7 44.833 7 73.5v19c0 43.333 -3.83301 78.166 -11.5 104.499s-19.834 45.5 -36.501 57.5s-38.334 18 -65.001 18z" />
    <glyph glyph-name="Hcircumflex" unicode="&#x124;" horiz-adv-x="713" 
d="M629 0h-135v317h-276v-317h-134v714h134v-288h276v288h135v-714zM427 938c9.33301 -14.667 21 -31.168 35 -49.501s28.5 -36.166 43.5 -53.499l39.5 -45v-12h-88c-16.667 10.667 -33.5 23.5 -50.5 38.5s-33.833 31.5 -50.5 49.5c-16.667 -18 -33.167 -34.333 -49.5 -49
s-32.833 -27.667 -49.5 -39h-88v12l40 45.5l43.5 53c14.333 18.333 25.5 34.833 33.5 49.5h141z" />
    <glyph glyph-name="hcircumflex" unicode="&#x125;" horiz-adv-x="609" 
d="M205 579c0 -21.333 -0.832031 -42.168 -2.49902 -62.501s-3.16699 -35.5 -4.5 -45.5h8c10.667 18.667 23.667 33.834 39 45.501s32.166 20.5 50.499 26.5s38.166 9 59.499 9c37.333 0 69.833 -7 97.5 -21s49.167 -35.5 64.5 -64.5s23 -66.833 23 -113.5v-353h-133v328
c0 41.333 -7.16699 72 -21.5 92s-36.166 30 -65.499 30c-28.667 0 -51.5 -7.16699 -68.5 -21.5s-29 -35.333 -36 -63s-10.5 -61.167 -10.5 -100.5v-265h-133v760h133v-181zM210.001 983.998c9.33301 -14.667 21 -31.168 35 -49.501s28.5 -36.166 43.5 -53.499l39.5 -45v-12
h-88c-16.667 10.667 -33.5 23.5 -50.5 38.5s-33.833 31.5 -50.5 49.5c-16.667 -18 -33.167 -34.333 -49.5 -49s-32.833 -27.667 -49.5 -39h-88v12l40 45.5l43.5 53c14.333 18.333 25.5 34.833 33.5 49.5h141z" />
    <glyph glyph-name="Hbar" unicode="&#x126;" horiz-adv-x="716" 
d="M85 0v522h-85v88h85v104h135v-104h276v104h135v-104h85v-88h-85v-522h-135v317h-276v-317h-135zM220 426h276v96h-276v-96z" />
    <glyph glyph-name="hbar" unicode="&#x127;" horiz-adv-x="611" 
d="M207 760l-0.000976562 -83.0029h153v-85h-153v-39c0 -21.333 -0.666992 -42.166 -2 -62.499s-2.66602 -35.5 -3.99902 -45.5h9c10.667 18.667 23.5 33.834 38.5 45.501s31.833 20.5 50.5 26.5s38.667 9 60 9c38 0 70.667 -7 98 -21s48.333 -35.5 63 -64.5
s22 -66.833 22 -113.5v-327h-132v302c0 40.667 -7 71.167 -21 91.5s-36 30.5 -66 30.5c-29.333 0 -52.5 -7.16699 -69.5 -21.5s-29 -35.166 -36 -62.499s-10.5 -61 -10.5 -101v-239h-132v592h-71v85h71v83h132z" />
    <glyph glyph-name="Itilde" unicode="&#x128;" horiz-adv-x="364" 
d="M330 0h-297v73l82 32v503l-82 33v73h297v-73l-81 -33v-503l81 -32v-73zM368 921c-4 -46.667 -16.1699 -82.167 -36.5029 -106.5s-45.833 -36.5 -76.5 -36.5c-13.333 0 -26.5 2.66699 -39.5 8s-25.667 11.666 -38 18.999s-24.333 13.666 -36 18.999s-22.834 8 -33.501 8
c-10 0 -18.833 -4.5 -26.5 -13.5s-13.5 -22.833 -17.5 -41.5h-66c2 24 6.16699 44.833 12.5 62.5s14.333 32.5 24 44.5s21 21 34 27s27.5 9 43.5 9c12.667 0 25.334 -2.66699 38.001 -8s25.334 -11.666 38.001 -18.999s24.834 -13.666 36.501 -18.999s22.834 -8 33.501 -8
c10 0 18.833 4.66699 26.5 14s13.5 23 17.5 41h66z" />
    <glyph glyph-name="itilde" unicode="&#x129;" horiz-adv-x="277" 
d="M205 0h-133v542h133v-542zM324 749c-4 -46.667 -16.1699 -82.167 -36.5029 -106.5s-45.833 -36.5 -76.5 -36.5c-13.333 0 -26.5 2.66699 -39.5 8s-25.667 11.666 -38 18.999s-24.333 13.666 -36 18.999s-22.834 8 -33.501 8c-10 0 -18.833 -4.5 -26.5 -13.5
s-13.5 -22.833 -17.5 -41.5h-66c2 24 6.16699 44.833 12.5 62.5s14.333 32.5 24 44.5s21 21 34 27s27.5 9 43.5 9c12.667 0 25.334 -2.66699 38.001 -8s25.334 -11.666 38.001 -18.999s24.834 -13.666 36.501 -18.999s22.834 -8 33.501 -8c10 0 18.833 4.66699 26.5 14
s13.5 23 17.5 41h66z" />
    <glyph glyph-name="Imacron" unicode="&#x12a;" horiz-adv-x="364" 
d="M330 0h-297v73l82 32v503l-82 33v73h297v-73l-81 -33v-503l81 -32v-73zM336 869v-91h-307v91h307z" />
    <glyph glyph-name="imacron" unicode="&#x12b;" horiz-adv-x="277" 
d="M205 0h-133v542h133v-542zM292 697v-91h-307v91h307z" />
    <glyph glyph-name="Ibreve" unicode="&#x12c;" horiz-adv-x="364" 
d="M330 0h-297v73l82 32v503l-82 33v73h297v-73l-81 -33v-503l81 -32v-73zM353 931c-2 -30 -10.166 -56.5 -24.499 -79.5s-33.833 -41 -58.5 -54s-54.334 -19.5 -89.001 -19.5c-53.333 0 -94 14 -122 42s-43.333 65 -46 111h74c2.66699 -18 8 -31.5 16 -40.5
s18.667 -14.667 32 -17s29 -3.5 47 -3.5c22.667 0 43.167 3.66699 61.5 11s29.5 24 33.5 50h76z" />
    <glyph glyph-name="ibreve" unicode="&#x12d;" horiz-adv-x="277" 
d="M205 0h-133v542h133v-542zM309 759c-2 -30 -10.166 -56.5 -24.499 -79.5s-33.833 -41 -58.5 -54s-54.334 -19.5 -89.001 -19.5c-53.333 0 -94 14 -122 42s-43.333 65 -46 111h74c2.66699 -18 8 -31.5 16 -40.5s18.667 -14.667 32 -17s29 -3.5 47 -3.5
c22.667 0 43.167 3.66699 61.5 11s29.5 24 33.5 50h76z" />
    <glyph glyph-name="Iogonek" unicode="&#x12e;" horiz-adv-x="364" 
d="M330 0h-297v73l82 32v503l-82 33v73h297v-73l-81 -33v-503l81 -32v-73zM235 -113c0 -14 3.5 -24.501 10.5 -31.501s16.167 -10.5 27.5 -10.5c10 0 19.5 1 28.5 3s16.167 3.66699 21.5 5v-75c-9.33301 -2.66699 -19.5 -5 -30.5 -7s-23.833 -3 -38.5 -3
c-22.667 0 -42.5 4.33301 -59.5 13s-30 20.834 -39 36.501s-13.5 34.167 -13.5 55.5c0 19.333 4.16699 38 12.5 56s20 34.333 35 49s32.167 27.334 51.5 38.001l58 -16c-20.667 -21.333 -36.5 -40.833 -47.5 -58.5s-16.5 -35.834 -16.5 -54.501z" />
    <glyph glyph-name="iogonek" unicode="&#x12f;" horiz-adv-x="277" 
d="M205 542v-542h-132v542h132zM140 751c19.333 0 36 -4.83301 50 -14.5s21 -26.834 21 -51.501c0 -24 -7 -41.167 -21 -51.5s-30.667 -15.5 -50 -15.5c-20.667 0 -38 5.16699 -52 15.5s-21 27.5 -21 51.5c0 24.667 7 41.834 21 51.501s31.333 14.5 52 14.5zM128 -113
c0 -14 3.5 -24.501 10.5 -31.501s16.167 -10.5 27.5 -10.5c10 0 19.5 1 28.5 3s16.167 3.66699 21.5 5v-75c-9.33301 -2.66699 -19.5 -5 -30.5 -7s-23.833 -3 -38.5 -3c-22.667 0 -42.5 4.33301 -59.5 13s-30 20.834 -39 36.501s-13.5 34.167 -13.5 55.5
c0 19.333 4.16699 38 12.5 56s20 34.333 35 49s32.167 27.334 51.5 38.001l58 -16c-20.667 -21.333 -36.5 -40.833 -47.5 -58.5s-16.5 -35.834 -16.5 -54.501z" />
    <glyph glyph-name="Idotaccent" unicode="&#x130;" horiz-adv-x="364" 
d="M330 0h-297v73l82 32v503l-82 33v73h297v-73l-81 -33v-503l81 -32v-73zM183 923c19.333 0 36.166 -4.83301 50.499 -14.5s21.5 -26.834 21.5 -51.501c0 -24 -7.16699 -41.167 -21.5 -51.5s-31.166 -15.5 -50.499 -15.5c-20.667 0 -38 5.16699 -52 15.5s-21 27.5 -21 51.5
c0 24.667 7 41.834 21 51.501s31.333 14.5 52 14.5z" />
    <glyph glyph-name="dotlessi" unicode="&#x131;" horiz-adv-x="277" 
d="M205 0h-133v542h133v-542z" />
    <glyph glyph-name="IJ" unicode="&#x132;" horiz-adv-x="662" 
d="M330 0h-297v73l82 32v503l-82 33v73h297v-73l-81 -33v-503l81 -32v-73zM374 -202c-18 0 -33.833 1.16699 -47.5 3.5s-25.167 4.83301 -34.5 7.5v107c10 -2.66699 20.5 -5 31.5 -7s22.833 -3 35.5 -3c18 0 33.5 3.33301 46.5 10s23 19 30 37s10.5 43.667 10.5 77v684h135
v-681c0 -56 -8.66699 -101.167 -26 -135.5s-41.5 -59.5 -72.5 -75.5s-67.167 -24 -108.5 -24z" />
    <glyph glyph-name="ij" unicode="&#x133;" horiz-adv-x="554" 
d="M205 542v-542h-132v542h132zM140 751c19.333 0 36 -4.83301 50 -14.5s21 -26.834 21 -51.501c0 -24 -7 -41.167 -21 -51.5s-30.667 -15.5 -50 -15.5c-20.667 0 -38 5.16699 -52 15.5s-21 27.5 -21 51.5c0 24.667 7 41.834 21 51.501s31.333 14.5 52 14.5zM310 -240
c-15.333 0 -31.001 1.16699 -47.001 3.5s-29 5.16602 -39 8.49902v100c10 -2.66699 19.833 -5 29.5 -7s20.167 -3 31.5 -3c18 0 33.333 5.83301 46 17.5s19 33.834 19 66.501v596h131v-609c0 -33.333 -5.5 -63 -16.5 -89s-29.167 -46.5 -54.5 -61.5
s-58.666 -22.5 -99.999 -22.5zM343.999 685c0 24.667 7 41.834 21 51.501s31 14.5 51 14.5c19.333 0 36.166 -4.83301 50.499 -14.5s21.5 -26.834 21.5 -51.501c0 -24 -7.16699 -41.167 -21.5 -51.5s-31.166 -15.5 -50.499 -15.5c-20 0 -37 5.16699 -51 15.5
s-21 27.5 -21 51.5z" />
    <glyph glyph-name="Jcircumflex" unicode="&#x134;" horiz-adv-x="298" 
d="M10 -202c-18 0 -33.833 1.16699 -47.5 3.5s-25.167 4.83301 -34.5 7.5v107c10 -2.66699 20.5 -5 31.5 -7s22.833 -3 35.5 -3c18 0 33.5 3.33301 46.5 10s23 19 30 37s10.5 43.667 10.5 77v684h135v-681c0 -56 -8.66699 -101.167 -26 -135.5s-41.5 -59.5 -72.5 -75.5
s-67.167 -24 -108.5 -24zM220 938c9.33301 -14.667 21 -31.168 35 -49.501s28.5 -36.166 43.5 -53.499l39.5 -45v-12h-88c-16.667 10.667 -33.5 23.5 -50.5 38.5s-33.833 31.5 -50.5 49.5c-16.667 -18 -33.167 -34.333 -49.5 -49s-32.833 -27.667 -49.5 -39h-88v12l40 45.5
l43.5 53c14.333 18.333 25.5 34.833 33.5 49.5h141z" />
    <glyph glyph-name="jcircumflex" unicode="&#x135;" horiz-adv-x="277" 
d="M33 -240c-15.333 0 -31.001 1.16699 -47.001 3.5s-29 5.16602 -39 8.49902v100c10 -2.66699 19.833 -5 29.5 -7s20.167 -3 31.5 -3c18 0 33.333 5.83301 46 17.5s19 33.834 19 66.501v596h131v-609c0 -33.333 -5.5 -63 -16.5 -89s-29.167 -46.5 -54.5 -61.5
s-58.666 -22.5 -99.999 -22.5zM208.999 766c9.33301 -14.667 21 -31.168 35 -49.501s28.5 -36.166 43.5 -53.499l39.5 -45v-12h-88c-16.667 10.667 -33.5 23.5 -50.5 38.5s-33.833 31.5 -50.5 49.5c-16.667 -18 -33.167 -34.333 -49.5 -49s-32.833 -27.667 -49.5 -39h-88v12
l40 45.5l43.5 53c14.333 18.333 25.5 34.833 33.5 49.5h141z" />
    <glyph glyph-name="uni0136" unicode="&#x136;" horiz-adv-x="616" 
d="M616 0h-153l-184 316l-61 -53v-263h-134v714h134v-336l37.5 51l39.5 52l168 233h150l-237 -314zM397 -71c-5.33301 -13.333 -11.8311 -28.5 -19.498 -45.5s-16.334 -34.5 -26.001 -52.5s-20.167 -35.333 -31.5 -52h-76v13c4 12 8 26.833 12 44.5s7.66699 35.667 11 54
s5.66602 34.5 6.99902 48.5h123v-10z" />
    <glyph glyph-name="uni0137" unicode="&#x137;" horiz-adv-x="566" 
d="M204 399c0 -17.333 -0.667969 -35.501 -2.00098 -54.501s-3 -37.5 -5 -55.5h4c3.33301 8 8.33301 16.833 15 26.5s13.834 19.334 21.501 29.001s15.167 18.5 22.5 26.5l141 171h150l-197 -234l209 -308h-153l-147 232l-59 -52v-180h-132v760h132v-361zM364.999 -71.001
c-5.33301 -13.333 -11.8311 -28.5 -19.498 -45.5s-16.334 -34.5 -26.001 -52.5s-20.167 -35.333 -31.5 -52h-76v13c4 12 8 26.833 12 44.5s7.66699 35.667 11 54s5.66602 34.5 6.99902 48.5h123v-10z" />
    <glyph glyph-name="kgreenlandic" unicode="&#x138;" horiz-adv-x="566" 
d="M551 542l-193 -245l205 -297h-152l-142 221l-63 -48v-173h-134v542h134v-141c0 -22.667 -0.333008 -45 -1 -67s-1.66699 -41.667 -3 -59h2l25 36l27 36l147 195h148z" />
    <glyph glyph-name="Lacute" unicode="&#x139;" horiz-adv-x="523" 
d="M84 0v714h134v-606h275v-108h-409zM338 928c-8.66699 -9.33301 -20 -20.667 -34 -34l-45 -42l-47 -41.5c-15.333 -13 -29 -23.833 -41 -32.5h-88v13l34.5 44.5l39 53c13 18.333 23.833 34.833 32.5 49.5h149v-10z" />
    <glyph glyph-name="lacute" unicode="&#x13a;" horiz-adv-x="277" 
d="M205 0h-133v760h133v-760zM329 974c-8.66699 -9.33301 -20 -20.667 -34 -34l-45 -42l-47 -41.5c-15.333 -13 -29 -23.833 -41 -32.5h-88v13l34.5 44.5l39 53c13 18.333 23.833 34.833 32.5 49.5h149v-10z" />
    <glyph glyph-name="uni013B" unicode="&#x13b;" horiz-adv-x="523" 
d="M84 0v714h134v-606h275v-108h-409zM355 -71c-5.33301 -13.333 -11.8311 -28.5 -19.498 -45.5s-16.334 -34.5 -26.001 -52.5s-20.167 -35.333 -31.5 -52h-76v13c4 12 8 26.833 12 44.5s7.66699 35.667 11 54s5.66602 34.5 6.99902 48.5h123v-10z" />
    <glyph glyph-name="uni013C" unicode="&#x13c;" horiz-adv-x="277" 
d="M205 0h-133v760h133v-760zM207 -71c-5.33301 -13.333 -11.8311 -28.5 -19.498 -45.5s-16.334 -34.5 -26.001 -52.5s-20.167 -35.333 -31.5 -52h-76v13c4 12 8 26.833 12 44.5s7.66699 35.667 11 54s5.66602 34.5 6.99902 48.5h123v-10z" />
    <glyph glyph-name="Lcaron" unicode="&#x13d;" horiz-adv-x="550" 
d="M519 704l-20.001 -45.5c-7.33301 -17 -15.666 -34.5 -24.999 -52.5s-19.333 -35.333 -30 -52h-77v13c3.33301 9.33301 6.33301 20.333 9 33l8 39c2.66699 13.333 5 26.5 7 39.5s3.66699 24.833 5 35.5h123v-10zM83.999 0v714h134v-606h275v-108h-409z" />
    <glyph glyph-name="lcaron" unicode="&#x13e;" horiz-adv-x="287" 
d="M398 750c-5.33301 -13.333 -11.833 -28.5 -19.5 -45.5s-16.167 -34.5 -25.5 -52.5s-19.333 -35.333 -30 -52h-77v13c3.33301 9.33301 6.33301 20.333 9 33l8 39c2.66699 13.333 5 26.5 7 39.5s3.66699 24.833 5 35.5h123v-10zM205 0h-133v760h133v-760z" />
    <glyph glyph-name="Ldot" unicode="&#x13f;" horiz-adv-x="523" 
d="M84 0v714h134v-606h275v-108h-409zM413 445c19.333 0 36.166 -4.83301 50.499 -14.5s21.5 -26.834 21.5 -51.501c0 -24 -7.16699 -41.167 -21.5 -51.5s-31.166 -15.5 -50.499 -15.5c-20.667 0 -38 5.16699 -52 15.5s-21 27.5 -21 51.5c0 24.667 7 41.834 21 51.501
s31.333 14.5 52 14.5z" />
    <glyph glyph-name="ldot" unicode="&#x140;" horiz-adv-x="327" 
d="M205 0h-133v760h133v-760zM303 445c19.333 0 36.166 -4.83301 50.499 -14.5s21.5 -26.834 21.5 -51.501c0 -24 -7.16699 -41.167 -21.5 -51.5s-31.166 -15.5 -50.499 -15.5c-20.667 0 -38 5.16699 -52 15.5s-21 27.5 -21 51.5c0 24.667 7 41.834 21 51.501
s31.333 14.5 52 14.5z" />
    <glyph glyph-name="Lslash" unicode="&#x141;" horiz-adv-x="530" 
d="M91 0v243l-42 -23l-49 82l91 53v359h133v-282l98 57l51 -83l-149 -86v-212h276v-108h-409z" />
    <glyph glyph-name="lslash" unicode="&#x142;" horiz-adv-x="304" 
d="M84 0v253l-46 -26l-49 83l95 55v395h132v-317l48 30l51 -82l-99 -60v-331h-132z" />
    <glyph glyph-name="Nacute" unicode="&#x143;" horiz-adv-x="754" 
d="M670 0l-169 -0.000976562l-301 560h-4c0.666992 -14.667 1.33398 -30.167 2.00098 -46.5s1.5 -33 2.5 -50s1.83301 -34.167 2.5 -51.5s1 -34.666 1 -51.999v-360h-120v714h168l300 -556h4c-0.666992 13.333 -1.33398 27.833 -2.00098 43.5l-2 48.5l-2 51
c-0.666992 17.333 -1 34 -1 50v363h121v-714zM567 927.999c-8.66699 -9.33301 -20 -20.667 -34 -34l-45 -42l-47 -41.5c-15.333 -13 -29 -23.833 -41 -32.5h-88v13l34.5 44.5l39 53c13 18.333 23.833 34.833 32.5 49.5h149v-10z" />
    <glyph glyph-name="nacute" unicode="&#x144;" horiz-adv-x="609" 
d="M357 552c56.667 0 101.333 -15.667 134 -47s49 -82 49 -152v-353h-133v328c0 40.667 -7 71.167 -21 91.5s-36 30.5 -66 30.5c-44.667 0 -75 -15.833 -91 -47.5s-24 -77.5 -24 -137.5v-265h-133v542h102l19 -71h6c10.667 18.667 24.167 34 40.5 46s34.5 20.833 54.5 26.5
s41 8.5 63 8.5zM493.999 756c-8.66699 -9.33301 -20 -20.667 -34 -34l-45 -42l-47 -41.5c-15.333 -13 -29 -23.833 -41 -32.5h-88v13l34.5 44.5l39 53c13 18.333 23.833 34.833 32.5 49.5h149v-10z" />
    <glyph glyph-name="uni0145" unicode="&#x145;" horiz-adv-x="754" 
d="M670 0l-169 -0.000976562l-301 560h-4c0.666992 -14.667 1.33398 -30.167 2.00098 -46.5s1.5 -33 2.5 -50s1.83301 -34.167 2.5 -51.5s1 -34.666 1 -51.999v-360h-120v714h168l300 -556h4c-0.666992 13.333 -1.33398 27.833 -2.00098 43.5l-2 48.5l-2 51
c-0.666992 17.333 -1 34 -1 50v363h121v-714zM445 -71.001c-5.33301 -13.333 -11.8311 -28.5 -19.498 -45.5s-16.334 -34.5 -26.001 -52.5s-20.167 -35.333 -31.5 -52h-76v13c4 12 8 26.833 12 44.5s7.66699 35.667 11 54s5.66602 34.5 6.99902 48.5h123v-10z" />
    <glyph glyph-name="uni0146" unicode="&#x146;" horiz-adv-x="609" 
d="M357 552c56.667 0 101.333 -15.667 134 -47s49 -82 49 -152v-353h-133v328c0 40.667 -7 71.167 -21 91.5s-36 30.5 -66 30.5c-44.667 0 -75 -15.833 -91 -47.5s-24 -77.5 -24 -137.5v-265h-133v542h102l19 -71h6c10.667 18.667 24.167 34 40.5 46s34.5 20.833 54.5 26.5
s41 8.5 63 8.5zM371.999 -71c-5.33301 -13.333 -11.8311 -28.5 -19.498 -45.5s-16.334 -34.5 -26.001 -52.5s-20.167 -35.333 -31.5 -52h-76v13c4 12 8 26.833 12 44.5s7.66699 35.667 11 54s5.66602 34.5 6.99902 48.5h123v-10z" />
    <glyph glyph-name="Ncaron" unicode="&#x147;" horiz-adv-x="754" 
d="M670 0l-169 -0.000976562l-301 560h-4c0.666992 -14.667 1.33398 -30.167 2.00098 -46.5s1.5 -33 2.5 -50s1.83301 -34.167 2.5 -51.5s1 -34.666 1 -51.999v-360h-120v714h168l300 -556h4c-0.666992 13.333 -1.33398 27.833 -2.00098 43.5l-2 48.5l-2 51
c-0.666992 17.333 -1 34 -1 50v363h121v-714zM565 924.999l-39.501 -44c-15 -17.333 -29.5 -35 -43.5 -53s-25.667 -34.667 -35 -50h-141c-8 15.333 -19.167 32 -33.5 50l-43.5 53c-14.667 17.333 -28 32 -40 44v13h88c16.667 -10.667 33.334 -23.5 50.001 -38.5
s33 -31.5 49 -49.5c16.667 18 33.5 34.5 50.5 49.5s33.833 27.833 50.5 38.5h88v-13z" />
    <glyph glyph-name="ncaron" unicode="&#x148;" horiz-adv-x="609" 
d="M357 552c56.667 0 101.333 -15.667 134 -47s49 -82 49 -152v-353h-133v328c0 40.667 -7 71.167 -21 91.5s-36 30.5 -66 30.5c-44.667 0 -75 -15.833 -91 -47.5s-24 -77.5 -24 -137.5v-265h-133v542h102l19 -71h6c10.667 18.667 24.167 34 40.5 46s34.5 20.833 54.5 26.5
s41 8.5 63 8.5zM491.999 753l-39.501 -44c-15 -17.333 -29.5 -35 -43.5 -53s-25.667 -34.667 -35 -50h-141c-8 15.333 -19.167 32 -33.5 50l-43.5 53c-14.667 17.333 -28 32 -40 44v13h88c16.667 -10.667 33.334 -23.5 50.001 -38.5s33 -31.5 49 -49.5
c16.667 18 33.5 34.5 50.5 49.5s33.833 27.833 50.5 38.5h88v-13z" />
    <glyph glyph-name="napostrophe" unicode="&#x149;" horiz-adv-x="739" 
d="M487 552c56.667 0 101.333 -15.667 134 -47s49 -82 49 -152v-353h-133v328c0 40.667 -7 71.167 -21 91.5s-36 30.5 -66 30.5c-44.667 0 -75 -15.833 -91 -47.5s-24 -77.5 -24 -137.5v-265h-133v542h102l19 -71h6c10.667 18.667 24.167 34 40.5 46s34.5 20.833 54.5 26.5
s41 8.5 63 8.5zM178.999 703c-5.33301 -23.333 -12.499 -48.498 -21.499 -75.498s-18.5 -54 -28.5 -81s-20.333 -52.833 -31 -77.5h-95c4.66699 19.333 9.16699 39.666 13.5 60.999l13 64.5c4.33301 21.667 8.16602 42.667 11.499 63s6 39.166 8 56.499h123z" />
    <glyph glyph-name="Eng" unicode="&#x14a;" horiz-adv-x="754" 
d="M462 -202c-19.333 0 -36.1709 1.16504 -50.5039 3.49805s-26.833 4.83301 -37.5 7.5v102c10.667 -2.66699 22.334 -5 35.001 -7s26 -3 40 -3c21.333 0 39.5 3.16699 54.5 9.5s26.833 16.833 35.5 31.5s13.334 34.334 14.001 59.001l-353 559h-4
c0.666992 -4 1.5 -13.333 2.5 -28s1.83301 -32.334 2.5 -53.001l2 -64c0.666992 -22 1 -42 1 -60v-355h-120v714h163l305 -490h4c-0.666992 4 -1.5 13.333 -2.5 28s-1.83301 31.834 -2.5 51.501s-1.16699 40 -1.5 61s-0.5 40.167 -0.5 57.5v292h121v-712
c0 -46.667 -8.66699 -85.167 -26 -115.5s-41.666 -52.666 -72.999 -66.999s-67.666 -21.5 -108.999 -21.5z" />
    <glyph glyph-name="eng" unicode="&#x14b;" horiz-adv-x="609" 
d="M377 -240c-14.667 0 -29.4971 1.16602 -44.4971 3.49902s-27.5 5.16602 -37.5 8.49902v100c9.33301 -2.66699 18.166 -5 26.499 -7s17.833 -3 28.5 -3c16 0 29.5 5.83301 40.5 17.5s16.5 33.834 16.5 66.501v389c0 38.667 -7.16699 67.5 -21.5 86.5
s-35.833 28.5 -64.5 28.5c-30 0 -53.5 -7.16699 -70.5 -21.5s-28.833 -35.166 -35.5 -62.499s-10 -61 -10 -101v-265h-133v542h102l18 -71h8c11.333 18.667 25.166 34 41.499 46s34.5 20.833 54.5 26.5s40.333 8.5 61 8.5c37.333 0 69.666 -6.83301 96.999 -20.5
s48.5 -35.167 63.5 -64.5s22.5 -67 22.5 -113v-421c0 -33.333 -5.5 -63 -16.5 -89s-28.333 -46.5 -52 -61.5s-55.167 -22.5 -94.5 -22.5z" />
    <glyph glyph-name="Omacron" unicode="&#x14c;" horiz-adv-x="744" 
d="M690 358c0 -55.333 -6.5 -105.498 -19.5 -150.498s-32.5 -83.833 -58.5 -116.5s-59 -57.667 -99 -75s-87 -26 -141 -26c-54.667 0 -102 8.83301 -142 26.5s-73 42.667 -99 75s-45.5 71.166 -58.5 116.499s-19.5 95.666 -19.5 150.999c0 74 11.5 138.333 34.5 193
s58.167 97.167 105.5 127.5s107.333 45.5 180 45.5c72 0 131.333 -15.167 178 -45.5s81.5 -73 104.5 -128s34.5 -119.5 34.5 -193.5zM195 358.002c0 -54 6.00098 -100.332 18.001 -138.999s31.167 -68.334 57.5 -89.001s60.166 -31 101.499 -31s75 10.333 101 31
s45 50.334 57 89.001s18 85 18 139c0 80.667 -13.667 144 -41 190s-72 69 -134 69c-42 0 -76.167 -10.333 -102.5 -31s-45.5 -50.334 -57.5 -89.001s-18 -85 -18 -139zM525.001 880.003v-91h-307v91h307z" />
    <glyph glyph-name="omacron" unicode="&#x14d;" horiz-adv-x="582" 
d="M538 272c0 -45.333 -5.66602 -85.334 -16.999 -120.001s-27.833 -64.167 -49.5 -88.5s-47.834 -42.666 -78.501 -54.999s-65 -18.5 -103 -18.5c-35.333 0 -68 6.16699 -98 18.5s-56 30.666 -78 54.999s-39 53.833 -51 88.5s-18 74.667 -18 120c0 60 10 110.833 30 152.5
s48.5 73.334 85.5 95.001s81.167 32.5 132.5 32.5c47.333 0 89.5 -11 126.5 -33s66 -53.667 87 -95s31.5 -92 31.5 -152zM180.001 271.999c0 -38 3.83203 -70.5 11.499 -97.5s19.667 -47.5 36 -61.5s37.833 -21 64.5 -21c26 0 47.167 7 63.5 21s28.333 34.5 36 61.5
s11.5 59.5 11.5 97.5c0 38.667 -3.83301 71.167 -11.5 97.5s-19.667 46.333 -36 60s-37.833 20.5 -64.5 20.5c-39.333 0 -67.666 -15.333 -84.999 -46s-26 -74.667 -26 -132zM445 696.999v-91h-307v91h307z" />
    <glyph glyph-name="Obreve" unicode="&#x14e;" horiz-adv-x="744" 
d="M690 358c0 -55.333 -6.5 -105.498 -19.5 -150.498s-32.5 -83.833 -58.5 -116.5s-59 -57.667 -99 -75s-87 -26 -141 -26c-54.667 0 -102 8.83301 -142 26.5s-73 42.667 -99 75s-45.5 71.166 -58.5 116.499s-19.5 95.666 -19.5 150.999c0 74 11.5 138.333 34.5 193
s58.167 97.167 105.5 127.5s107.333 45.5 180 45.5c72 0 131.333 -15.167 178 -45.5s81.5 -73 104.5 -128s34.5 -119.5 34.5 -193.5zM195 358.002c0 -54 6.00098 -100.332 18.001 -138.999s31.167 -68.334 57.5 -89.001s60.166 -31 101.499 -31s75 10.333 101 31
s45 50.334 57 89.001s18 85 18 139c0 80.667 -13.667 144 -41 190s-72 69 -134 69c-42 0 -76.167 -10.333 -102.5 -31s-45.5 -50.334 -57.5 -89.001s-18 -85 -18 -139zM542.001 942.003c-2 -30 -10.166 -56.5 -24.499 -79.5s-33.833 -41 -58.5 -54
s-54.334 -19.5 -89.001 -19.5c-53.333 0 -94 14 -122 42s-43.333 65 -46 111h74c2.66699 -18 8 -31.5 16 -40.5s18.667 -14.667 32 -17s29 -3.5 47 -3.5c22.667 0 43.167 3.66699 61.5 11s29.5 24 33.5 50h76z" />
    <glyph glyph-name="obreve" unicode="&#x14f;" horiz-adv-x="582" 
d="M538 272c0 -45.333 -5.66602 -85.334 -16.999 -120.001s-27.833 -64.167 -49.5 -88.5s-47.834 -42.666 -78.501 -54.999s-65 -18.5 -103 -18.5c-35.333 0 -68 6.16699 -98 18.5s-56 30.666 -78 54.999s-39 53.833 -51 88.5s-18 74.667 -18 120c0 60 10 110.833 30 152.5
s48.5 73.334 85.5 95.001s81.167 32.5 132.5 32.5c47.333 0 89.5 -11 126.5 -33s66 -53.667 87 -95s31.5 -92 31.5 -152zM180.001 271.999c0 -38 3.83203 -70.5 11.499 -97.5s19.667 -47.5 36 -61.5s37.833 -21 64.5 -21c26 0 47.167 7 63.5 21s28.333 34.5 36 61.5
s11.5 59.5 11.5 97.5c0 38.667 -3.83301 71.167 -11.5 97.5s-19.667 46.333 -36 60s-37.833 20.5 -64.5 20.5c-39.333 0 -67.666 -15.333 -84.999 -46s-26 -74.667 -26 -132zM462 758.999c-2 -30 -10.166 -56.5 -24.499 -79.5s-33.833 -41 -58.5 -54
s-54.334 -19.5 -89.001 -19.5c-53.333 0 -94 14 -122 42s-43.333 65 -46 111h74c2.66699 -18 8 -31.5 16 -40.5s18.667 -14.667 32 -17s29 -3.5 47 -3.5c22.667 0 43.167 3.66699 61.5 11s29.5 24 33.5 50h76z" />
    <glyph glyph-name="Ohungarumlaut" unicode="&#x150;" horiz-adv-x="744" 
d="M690 358c0 -55.333 -6.5 -105.498 -19.5 -150.498s-32.5 -83.833 -58.5 -116.5s-59 -57.667 -99 -75s-87 -26 -141 -26c-54.667 0 -102 8.83301 -142 26.5s-73 42.667 -99 75s-45.5 71.166 -58.5 116.499s-19.5 95.666 -19.5 150.999c0 74 11.5 138.333 34.5 193
s58.167 97.167 105.5 127.5s107.333 45.5 180 45.5c72 0 131.333 -15.167 178 -45.5s81.5 -73 104.5 -128s34.5 -119.5 34.5 -193.5zM195 358.002c0 -54 6.00098 -100.332 18.001 -138.999s31.167 -68.334 57.5 -89.001s60.166 -31 101.499 -31s75 10.333 101 31
s45 50.334 57 89.001s18 85 18 139c0 80.667 -13.667 144 -41 190s-72 69 -134 69c-42 0 -76.167 -10.333 -102.5 -31s-45.5 -50.334 -57.5 -89.001s-18 -85 -18 -139zM575.001 939.003c-4.66699 -8.66699 -12.999 -19.667 -24.999 -33s-25.5 -27.333 -40.5 -42l-44.5 -41.5
c-14.667 -13 -28 -24.167 -40 -33.5h-70v13l29.5 45c11 17.333 21.667 35 32 53s19.166 34.333 26.499 49h132v-10zM389.002 939.003c-4.66699 -8.66699 -13.001 -19.667 -25.001 -33s-25.5 -27.333 -40.5 -42l-44.5 -41.5l-39 -33.5h-71v13
c8.66699 12.667 18.334 27.667 29.001 45l32.5 53c11 18 19.833 34.333 26.5 49h132v-10z" />
    <glyph glyph-name="ohungarumlaut" unicode="&#x151;" horiz-adv-x="582" 
d="M538 272c0 -45.333 -5.66602 -85.334 -16.999 -120.001s-27.833 -64.167 -49.5 -88.5s-47.834 -42.666 -78.501 -54.999s-65 -18.5 -103 -18.5c-35.333 0 -68 6.16699 -98 18.5s-56 30.666 -78 54.999s-39 53.833 -51 88.5s-18 74.667 -18 120c0 60 10 110.833 30 152.5
s48.5 73.334 85.5 95.001s81.167 32.5 132.5 32.5c47.333 0 89.5 -11 126.5 -33s66 -53.667 87 -95s31.5 -92 31.5 -152zM180.001 271.999c0 -38 3.83203 -70.5 11.499 -97.5s19.667 -47.5 36 -61.5s37.833 -21 64.5 -21c26 0 47.167 7 63.5 21s28.333 34.5 36 61.5
s11.5 59.5 11.5 97.5c0 38.667 -3.83301 71.167 -11.5 97.5s-19.667 46.333 -36 60s-37.833 20.5 -64.5 20.5c-39.333 0 -67.666 -15.333 -84.999 -46s-26 -74.667 -26 -132zM495 755.999c-4.66699 -8.66699 -12.999 -19.667 -24.999 -33s-25.5 -27.333 -40.5 -42
l-44.5 -41.5c-14.667 -13 -28 -24.167 -40 -33.5h-70v13l29.5 45c11 17.333 21.667 35 32 53s19.166 34.333 26.499 49h132v-10zM309.001 755.999c-4.66699 -8.66699 -13.001 -19.667 -25.001 -33s-25.5 -27.333 -40.5 -42l-44.5 -41.5l-39 -33.5h-71v13
c8.66699 12.667 18.334 27.667 29.001 45l32.5 53c11 18 19.833 34.333 26.5 49h132v-10z" />
    <glyph glyph-name="OE" unicode="&#x152;" horiz-adv-x="895" 
d="M358 725c11.333 0 23.166 -0.5 35.499 -1.5s24.333 -2.16699 36 -3.5s22.167 -3.33301 31.5 -6h382v-107h-250v-182h232v-107h-232v-210h250v-108h-382c-8.66699 -2 -19 -3.66699 -31 -5s-24.167 -2.5 -36.5 -3.5s-23.833 -1.5 -34.5 -1.5
c-68.667 0 -125.667 15.333 -171 46s-79.166 73.667 -101.499 129s-33.5 120 -33.5 194s11.167 138.333 33.5 193s56 97.167 101 127.5s101.833 45.5 170.5 45.5zM361 617c-28.667 0 -53.668 -5.99805 -75.001 -17.998s-38.833 -29.167 -52.5 -51.5s-23.667 -49.333 -30 -81
s-9.5 -67.834 -9.5 -108.501c0 -54 5.83301 -100.333 17.5 -139s29.834 -68.334 54.501 -89.001s56.334 -31 95.001 -31c18 0 35.833 1.5 53.5 4.5s32.5 7.5 44.5 13.5v481c-11.333 6 -25.833 10.667 -43.5 14s-35.834 5 -54.501 5z" />
    <glyph glyph-name="oe" unicode="&#x153;" horiz-adv-x="909" 
d="M644 552c45.333 0 84.501 -9.83301 117.501 -29.5s58.667 -47.667 77 -84s27.5 -80.5 27.5 -132.5v-64h-332c1.33301 -50.667 13.666 -89.167 36.999 -115.5s56 -39.5 98 -39.5c30.667 0 59.667 3.5 87 10.5s54.666 17.167 81.999 30.5v-101
c-25.333 -12.667 -51.5 -22 -78.5 -28s-60.5 -9 -100.5 -9c-38.667 0 -73.834 7.33301 -105.501 22s-58.5 37 -80.5 67c-21.333 -29.333 -47.666 -51.5 -78.999 -66.5s-66.333 -22.5 -105 -22.5c-47.333 0 -89.5 11 -126.5 33s-66 54 -87 96s-31.5 93 -31.5 153
s10 110.667 30 152s48.333 73 85 95s80.667 33 132 33c36 0 69.167 -7.5 99.5 -22.5s55.833 -37.167 76.5 -66.5c14 20 29.833 36.5 47.5 49.5s37.334 22.833 59.001 29.5s45.167 10 70.5 10zM289.001 450c-38.667 0 -66.5 -14.8301 -83.5 -44.4971
s-25.5 -74.167 -25.5 -133.5c0 -39.333 3.83301 -72.333 11.5 -99s19.5 -46.834 35.5 -60.501s37 -20.5 63 -20.5s46.833 6.83301 62.5 20.5s27.167 33.667 34.5 60s11 59.166 11 98.499c0 40 -3.66699 73.167 -11 99.5s-19 46.166 -35 59.499s-37 20 -63 20z
M642.001 459.003c-29.333 0 -53.501 -10.8311 -72.501 -32.498s-29.833 -53.834 -32.5 -96.501h204c0 25.333 -3.66699 47.666 -11 66.999s-18.166 34.5 -32.499 45.5s-32.833 16.5 -55.5 16.5z" />
    <glyph glyph-name="Racute" unicode="&#x154;" horiz-adv-x="613" 
d="M283 714c59.333 0 108.168 -7.66602 146.501 -22.999s67 -38.5 86 -69.5s28.5 -70.167 28.5 -117.5c0 -34.667 -5.66699 -64.334 -17 -89.001s-26.333 -45.167 -45 -61.5s-39.334 -29.5 -62.001 -39.5l192 -314h-152l-155 282h-87v-282h-134v714h199zM277.002 607.001
l-59.001 -0.00195312v-220h61c29.333 0 53.5 4.33301 72.5 13s33.167 21.334 42.5 38.001s14 37.334 14 62.001c0 26 -4.66699 46.833 -14 62.5s-23.666 27 -42.999 34s-44 10.5 -74 10.5zM500.001 927.999c-8.66699 -9.33301 -20 -20.667 -34 -34l-45 -42l-47 -41.5
c-15.333 -13 -29 -23.833 -41 -32.5h-88v13l34.5 44.5l39 53c13 18.333 23.833 34.833 32.5 49.5h149v-10z" />
    <glyph glyph-name="racute" unicode="&#x155;" horiz-adv-x="418" 
d="M349 552c9.33301 0 19.001 -0.334961 29.001 -1.00195s18.333 -2 25 -4l-12 -117c-6.66699 1.33301 -14.5 2.5 -23.5 3.5s-18.5 1.5 -28.5 1.5c-16.667 0 -32.834 -3.16699 -48.501 -9.5s-30 -15.666 -43 -27.999s-23.333 -28.166 -31 -47.499s-11.5 -42.333 -11.5 -69
v-281h-133v542h102l18 -94h7c10 19.333 22.5 36.833 37.5 52.5s32 28.167 51 37.5s39.5 14 61.5 14zM433.001 755.998c-8.66699 -9.33301 -20 -20.667 -34 -34l-45 -42l-47 -41.5c-15.333 -13 -29 -23.833 -41 -32.5h-88v13l34.5 44.5l39 53
c13 18.333 23.833 34.833 32.5 49.5h149v-10z" />
    <glyph glyph-name="uni0156" unicode="&#x156;" horiz-adv-x="613" 
d="M283 714c59.333 0 108.168 -7.66602 146.501 -22.999s67 -38.5 86 -69.5s28.5 -70.167 28.5 -117.5c0 -34.667 -5.66699 -64.334 -17 -89.001s-26.333 -45.167 -45 -61.5s-39.334 -29.5 -62.001 -39.5l192 -314h-152l-155 282h-87v-282h-134v714h199zM277.002 607.001
l-59.001 -0.00195312v-220h61c29.333 0 53.5 4.33301 72.5 13s33.167 21.334 42.5 38.001s14 37.334 14 62.001c0 26 -4.66699 46.833 -14 62.5s-23.666 27 -42.999 34s-44 10.5 -74 10.5zM394.001 -71.001c-5.33301 -13.333 -11.8311 -28.5 -19.498 -45.5
s-16.334 -34.5 -26.001 -52.5s-20.167 -35.333 -31.5 -52h-76v13c4 12 8 26.833 12 44.5s7.66699 35.667 11 54s5.66602 34.5 6.99902 48.5h123v-10z" />
    <glyph glyph-name="uni0157" unicode="&#x157;" horiz-adv-x="418" 
d="M349 552c9.33301 0 19.001 -0.334961 29.001 -1.00195s18.333 -2 25 -4l-12 -117c-6.66699 1.33301 -14.5 2.5 -23.5 3.5s-18.5 1.5 -28.5 1.5c-16.667 0 -32.834 -3.16699 -48.501 -9.5s-30 -15.666 -43 -27.999s-23.333 -28.166 -31 -47.499s-11.5 -42.333 -11.5 -69
v-281h-133v542h102l18 -94h7c10 19.333 22.5 36.833 37.5 52.5s32 28.167 51 37.5s39.5 14 61.5 14zM207.001 -71.002c-5.33301 -13.333 -11.8311 -28.5 -19.498 -45.5s-16.334 -34.5 -26.001 -52.5s-20.167 -35.333 -31.5 -52h-76v13c4 12 8 26.833 12 44.5
s7.66699 35.667 11 54s5.66602 34.5 6.99902 48.5h123v-10z" />
    <glyph glyph-name="Rcaron" unicode="&#x158;" horiz-adv-x="613" 
d="M283 714c59.333 0 108.168 -7.66602 146.501 -22.999s67 -38.5 86 -69.5s28.5 -70.167 28.5 -117.5c0 -34.667 -5.66699 -64.334 -17 -89.001s-26.333 -45.167 -45 -61.5s-39.334 -29.5 -62.001 -39.5l192 -314h-152l-155 282h-87v-282h-134v714h199zM277.002 607.001
l-59.001 -0.00195312v-220h61c29.333 0 53.5 4.33301 72.5 13s33.167 21.334 42.5 38.001s14 37.334 14 62.001c0 26 -4.66699 46.833 -14 62.5s-23.666 27 -42.999 34s-44 10.5 -74 10.5zM498.001 924.999l-39.501 -44c-15 -17.333 -29.5 -35 -43.5 -53
s-25.667 -34.667 -35 -50h-141c-8 15.333 -19.167 32 -33.5 50l-43.5 53c-14.667 17.333 -28 32 -40 44v13h88c16.667 -10.667 33.334 -23.5 50.001 -38.5s33 -31.5 49 -49.5c16.667 18 33.5 34.5 50.5 49.5s33.833 27.833 50.5 38.5h88v-13z" />
    <glyph glyph-name="rcaron" unicode="&#x159;" horiz-adv-x="418" 
d="M349 552c9.33301 0 19.001 -0.334961 29.001 -1.00195s18.333 -2 25 -4l-12 -117c-6.66699 1.33301 -14.5 2.5 -23.5 3.5s-18.5 1.5 -28.5 1.5c-16.667 0 -32.834 -3.16699 -48.501 -9.5s-30 -15.666 -43 -27.999s-23.333 -28.166 -31 -47.499s-11.5 -42.333 -11.5 -69
v-281h-133v542h102l18 -94h7c10 19.333 22.5 36.833 37.5 52.5s32 28.167 51 37.5s39.5 14 61.5 14zM431.001 752.998l-39.501 -44c-15 -17.333 -29.5 -35 -43.5 -53s-25.667 -34.667 -35 -50h-141c-8 15.333 -19.167 32 -33.5 50l-43.5 53c-14.667 17.333 -28 32 -40 44v13
h88c16.667 -10.667 33.334 -23.5 50.001 -38.5s33 -31.5 49 -49.5c16.667 18 33.5 34.5 50.5 49.5s33.833 27.833 50.5 38.5h88v-13z" />
    <glyph glyph-name="Sacute" unicode="&#x15a;" horiz-adv-x="524" 
d="M487 195c0 -42 -9.5 -78.332 -28.5 -108.999s-47 -54.334 -84 -71.001s-82.833 -25 -137.5 -25c-26 0 -50.333 1.5 -73 4.5s-43.834 7.5 -63.501 13.5s-38.5 13.333 -56.5 22v120c30 -13.333 62.5 -25.5 97.5 -36.5s69.167 -16.5 102.5 -16.5
c25.333 0 46 3.83301 62 11.5s27.833 18.334 35.5 32.001s11.5 29.5 11.5 47.5c0 20 -4.83301 37 -14.5 51s-24.5 27 -44.5 39s-46 24.333 -78 37c-30 12.667 -57.667 27.667 -83 45s-45.333 39.666 -60 66.999s-22 61.333 -22 102s9.66699 75.667 29 105
s46.333 51.666 81 66.999s75 23 121 23c38 0 73.333 -4 106 -12s63.334 -19.333 92.001 -34l-42 -103c-27.333 12.667 -54.333 22.667 -81 30s-53 11 -79 11c-20.667 0 -38 -3.5 -52 -10.5s-24.5 -16.833 -31.5 -29.5s-10.5 -27.334 -10.5 -44.001
c0 -19.333 4.5 -35.666 13.5 -48.999s23.667 -25.833 44 -37.5s46.5 -25.167 78.5 -40.5c35.333 -16 65.5 -33 90.5 -51s44 -39.667 57 -65s19.5 -56.666 19.5 -93.999zM459 928.001c-8.66699 -9.33301 -20 -20.667 -34 -34l-45 -42l-47 -41.5
c-15.333 -13 -29 -23.833 -41 -32.5h-88v13l34.5 44.5l39 53c13 18.333 23.833 34.833 32.5 49.5h149v-10z" />
    <glyph glyph-name="sacute" unicode="&#x15b;" horiz-adv-x="468" 
d="M429 157c0 -36 -7.99902 -66.5 -23.999 -91.5s-39.667 -43.833 -71 -56.5s-70.666 -19 -117.999 -19c-36 0 -67.333 2.66699 -94 8s-52.334 13.666 -77.001 24.999v107c26.667 -12.667 55.5 -23.334 86.5 -32.001s59.167 -13 84.5 -13c30 0 51.667 5.33301 65 16
s20 25 20 43c0 10.667 -3 20.334 -9 29.001s-17.333 17.834 -34 27.501s-41 21.834 -73 36.501c-31.333 14 -57.333 28 -78 42s-36.334 30.833 -47.001 50.5s-16 44.5 -16 74.5c0 48.667 18.5 85.5 55.5 110.5s85.5 37.5 145.5 37.5c32.667 0 63.167 -3.16699 91.5 -9.5
s56.833 -16.5 85.5 -30.5l-39 -93c-16 7.33301 -32.167 13.833 -48.5 19.5s-32.166 10.167 -47.499 13.5s-30 5 -44 5c-23.333 0 -41 -4.16699 -53 -12.5s-18 -19.833 -18 -34.5c0 -11.333 3.16699 -21.166 9.5 -29.499s17.666 -16.833 33.999 -25.5
s39.833 -19.334 70.5 -32.001s56.667 -25.834 78 -39.501s37.5 -30.5 48.5 -50.5s16.5 -45.333 16.5 -76zM422.001 756c-8.66699 -9.33301 -20 -20.667 -34 -34l-45 -42l-47 -41.5c-15.333 -13 -29 -23.833 -41 -32.5h-88v13l34.5 44.5l39 53
c13 18.333 23.833 34.833 32.5 49.5h149v-10z" />
    <glyph glyph-name="Scircumflex" unicode="&#x15c;" horiz-adv-x="524" 
d="M487 195c0 -42 -9.5 -78.332 -28.5 -108.999s-47 -54.334 -84 -71.001s-82.833 -25 -137.5 -25c-26 0 -50.333 1.5 -73 4.5s-43.834 7.5 -63.501 13.5s-38.5 13.333 -56.5 22v120c30 -13.333 62.5 -25.5 97.5 -36.5s69.167 -16.5 102.5 -16.5
c25.333 0 46 3.83301 62 11.5s27.833 18.334 35.5 32.001s11.5 29.5 11.5 47.5c0 20 -4.83301 37 -14.5 51s-24.5 27 -44.5 39s-46 24.333 -78 37c-30 12.667 -57.667 27.667 -83 45s-45.333 39.666 -60 66.999s-22 61.333 -22 102s9.66699 75.667 29 105
s46.333 51.666 81 66.999s75 23 121 23c38 0 73.333 -4 106 -12s63.334 -19.333 92.001 -34l-42 -103c-27.333 12.667 -54.333 22.667 -81 30s-53 11 -79 11c-20.667 0 -38 -3.5 -52 -10.5s-24.5 -16.833 -31.5 -29.5s-10.5 -27.334 -10.5 -44.001
c0 -19.333 4.5 -35.666 13.5 -48.999s23.667 -25.833 44 -37.5s46.5 -25.167 78.5 -40.5c35.333 -16 65.5 -33 90.5 -51s44 -39.667 57 -65s19.5 -56.666 19.5 -93.999zM339 938.001c9.33301 -14.667 21 -31.168 35 -49.501s28.5 -36.166 43.5 -53.499l39.5 -45v-12h-88
c-16.667 10.667 -33.5 23.5 -50.5 38.5s-33.833 31.5 -50.5 49.5c-16.667 -18 -33.167 -34.333 -49.5 -49s-32.833 -27.667 -49.5 -39h-88v12l40 45.5l43.5 53c14.333 18.333 25.5 34.833 33.5 49.5h141z" />
    <glyph glyph-name="scircumflex" unicode="&#x15d;" horiz-adv-x="468" 
d="M429 157c0 -36 -7.99902 -66.5 -23.999 -91.5s-39.667 -43.833 -71 -56.5s-70.666 -19 -117.999 -19c-36 0 -67.333 2.66699 -94 8s-52.334 13.666 -77.001 24.999v107c26.667 -12.667 55.5 -23.334 86.5 -32.001s59.167 -13 84.5 -13c30 0 51.667 5.33301 65 16
s20 25 20 43c0 10.667 -3 20.334 -9 29.001s-17.333 17.834 -34 27.501s-41 21.834 -73 36.501c-31.333 14 -57.333 28 -78 42s-36.334 30.833 -47.001 50.5s-16 44.5 -16 74.5c0 48.667 18.5 85.5 55.5 110.5s85.5 37.5 145.5 37.5c32.667 0 63.167 -3.16699 91.5 -9.5
s56.833 -16.5 85.5 -30.5l-39 -93c-16 7.33301 -32.167 13.833 -48.5 19.5s-32.166 10.167 -47.499 13.5s-30 5 -44 5c-23.333 0 -41 -4.16699 -53 -12.5s-18 -19.833 -18 -34.5c0 -11.333 3.16699 -21.166 9.5 -29.499s17.666 -16.833 33.999 -25.5
s39.833 -19.334 70.5 -32.001s56.667 -25.834 78 -39.501s37.5 -30.5 48.5 -50.5s16.5 -45.333 16.5 -76zM302.001 766c9.33301 -14.667 21 -31.168 35 -49.501s28.5 -36.166 43.5 -53.499l39.5 -45v-12h-88c-16.667 10.667 -33.5 23.5 -50.5 38.5s-33.833 31.5 -50.5 49.5
c-16.667 -18 -33.167 -34.333 -49.5 -49s-32.833 -27.667 -49.5 -39h-88v12l40 45.5l43.5 53c14.333 18.333 25.5 34.833 33.5 49.5h141z" />
    <glyph glyph-name="Scedilla" unicode="&#x15e;" horiz-adv-x="524" 
d="M487 195c0 -42 -9.5 -78.332 -28.5 -108.999s-47 -54.334 -84 -71.001s-82.833 -25 -137.5 -25c-26 0 -50.333 1.5 -73 4.5s-43.834 7.5 -63.501 13.5s-38.5 13.333 -56.5 22v120c30 -13.333 62.5 -25.5 97.5 -36.5s69.167 -16.5 102.5 -16.5
c25.333 0 46 3.83301 62 11.5s27.833 18.334 35.5 32.001s11.5 29.5 11.5 47.5c0 20 -4.83301 37 -14.5 51s-24.5 27 -44.5 39s-46 24.333 -78 37c-30 12.667 -57.667 27.667 -83 45s-45.333 39.666 -60 66.999s-22 61.333 -22 102s9.66699 75.667 29 105
s46.333 51.666 81 66.999s75 23 121 23c38 0 73.333 -4 106 -12s63.334 -19.333 92.001 -34l-42 -103c-27.333 12.667 -54.333 22.667 -81 30s-53 11 -79 11c-20.667 0 -38 -3.5 -52 -10.5s-24.5 -16.833 -31.5 -29.5s-10.5 -27.334 -10.5 -44.001
c0 -19.333 4.5 -35.666 13.5 -48.999s23.667 -25.833 44 -37.5s46.5 -25.167 78.5 -40.5c35.333 -16 65.5 -33 90.5 -51s44 -39.667 57 -65s19.5 -56.666 19.5 -93.999zM372 -127.999c0 -24 -5 -44.3311 -15 -60.998s-25 -29.334 -45 -38.001s-45.333 -13 -76 -13
c-14.667 0 -28.167 0.833008 -40.5 2.5s-22.5 3.5 -30.5 5.5v72c8 -2 17.5 -3.83301 28.5 -5.5s20.833 -2.5 29.5 -2.5c14.667 0 26.334 2.5 35.001 7.5s13 14.167 13 27.5c0 14 -6.5 25.5 -19.5 34.5s-32.167 15.5 -57.5 19.5l35 79h77l-15 -39
c13.333 -3.33301 26.166 -9 38.499 -17s22.5 -17.833 30.5 -29.5s12 -25.834 12 -42.501z" />
    <glyph glyph-name="scedilla" unicode="&#x15f;" horiz-adv-x="468" 
d="M429 157c0 -36 -7.99902 -66.5 -23.999 -91.5s-39.667 -43.833 -71 -56.5s-70.666 -19 -117.999 -19c-36 0 -67.333 2.66699 -94 8s-52.334 13.666 -77.001 24.999v107c26.667 -12.667 55.5 -23.334 86.5 -32.001s59.167 -13 84.5 -13c30 0 51.667 5.33301 65 16
s20 25 20 43c0 10.667 -3 20.334 -9 29.001s-17.333 17.834 -34 27.501s-41 21.834 -73 36.501c-31.333 14 -57.333 28 -78 42s-36.334 30.833 -47.001 50.5s-16 44.5 -16 74.5c0 48.667 18.5 85.5 55.5 110.5s85.5 37.5 145.5 37.5c32.667 0 63.167 -3.16699 91.5 -9.5
s56.833 -16.5 85.5 -30.5l-39 -93c-16 7.33301 -32.167 13.833 -48.5 19.5s-32.166 10.167 -47.499 13.5s-30 5 -44 5c-23.333 0 -41 -4.16699 -53 -12.5s-18 -19.833 -18 -34.5c0 -11.333 3.16699 -21.166 9.5 -29.499s17.666 -16.833 33.999 -25.5
s39.833 -19.334 70.5 -32.001s56.667 -25.834 78 -39.501s37.5 -30.5 48.5 -50.5s16.5 -45.333 16.5 -76zM346.001 -128c0 -24 -5 -44.3311 -15 -60.998s-25 -29.334 -45 -38.001s-45.333 -13 -76 -13c-14.667 0 -28.167 0.833008 -40.5 2.5s-22.5 3.5 -30.5 5.5v72
c8 -2 17.5 -3.83301 28.5 -5.5s20.833 -2.5 29.5 -2.5c14.667 0 26.334 2.5 35.001 7.5s13 14.167 13 27.5c0 14 -6.5 25.5 -19.5 34.5s-32.167 15.5 -57.5 19.5l35 79h77l-15 -39c13.333 -3.33301 26.166 -9 38.499 -17s22.5 -17.833 30.5 -29.5s12 -25.834 12 -42.501z
" />
    <glyph glyph-name="Scaron" unicode="&#x160;" horiz-adv-x="524" 
d="M487 195c0 -42 -9.5 -78.332 -28.5 -108.999s-47 -54.334 -84 -71.001s-82.833 -25 -137.5 -25c-26 0 -50.333 1.5 -73 4.5s-43.834 7.5 -63.501 13.5s-38.5 13.333 -56.5 22v120c30 -13.333 62.5 -25.5 97.5 -36.5s69.167 -16.5 102.5 -16.5
c25.333 0 46 3.83301 62 11.5s27.833 18.334 35.5 32.001s11.5 29.5 11.5 47.5c0 20 -4.83301 37 -14.5 51s-24.5 27 -44.5 39s-46 24.333 -78 37c-30 12.667 -57.667 27.667 -83 45s-45.333 39.666 -60 66.999s-22 61.333 -22 102s9.66699 75.667 29 105
s46.333 51.666 81 66.999s75 23 121 23c38 0 73.333 -4 106 -12s63.334 -19.333 92.001 -34l-42 -103c-27.333 12.667 -54.333 22.667 -81 30s-53 11 -79 11c-20.667 0 -38 -3.5 -52 -10.5s-24.5 -16.833 -31.5 -29.5s-10.5 -27.334 -10.5 -44.001
c0 -19.333 4.5 -35.666 13.5 -48.999s23.667 -25.833 44 -37.5s46.5 -25.167 78.5 -40.5c35.333 -16 65.5 -33 90.5 -51s44 -39.667 57 -65s19.5 -56.666 19.5 -93.999zM457 925.001l-39.501 -44c-15 -17.333 -29.5 -35 -43.5 -53s-25.667 -34.667 -35 -50h-141
c-8 15.333 -19.167 32 -33.5 50l-43.5 53c-14.667 17.333 -28 32 -40 44v13h88c16.667 -10.667 33.334 -23.5 50.001 -38.5s33 -31.5 49 -49.5c16.667 18 33.5 34.5 50.5 49.5s33.833 27.833 50.5 38.5h88v-13z" />
    <glyph glyph-name="scaron" unicode="&#x161;" horiz-adv-x="468" 
d="M429 157c0 -36 -7.99902 -66.5 -23.999 -91.5s-39.667 -43.833 -71 -56.5s-70.666 -19 -117.999 -19c-36 0 -67.333 2.66699 -94 8s-52.334 13.666 -77.001 24.999v107c26.667 -12.667 55.5 -23.334 86.5 -32.001s59.167 -13 84.5 -13c30 0 51.667 5.33301 65 16
s20 25 20 43c0 10.667 -3 20.334 -9 29.001s-17.333 17.834 -34 27.501s-41 21.834 -73 36.501c-31.333 14 -57.333 28 -78 42s-36.334 30.833 -47.001 50.5s-16 44.5 -16 74.5c0 48.667 18.5 85.5 55.5 110.5s85.5 37.5 145.5 37.5c32.667 0 63.167 -3.16699 91.5 -9.5
s56.833 -16.5 85.5 -30.5l-39 -93c-16 7.33301 -32.167 13.833 -48.5 19.5s-32.166 10.167 -47.499 13.5s-30 5 -44 5c-23.333 0 -41 -4.16699 -53 -12.5s-18 -19.833 -18 -34.5c0 -11.333 3.16699 -21.166 9.5 -29.499s17.666 -16.833 33.999 -25.5
s39.833 -19.334 70.5 -32.001s56.667 -25.834 78 -39.501s37.5 -30.5 48.5 -50.5s16.5 -45.333 16.5 -76zM420.001 753l-39.501 -44c-15 -17.333 -29.5 -35 -43.5 -53s-25.667 -34.667 -35 -50h-141c-8 15.333 -19.167 32 -33.5 50l-43.5 53c-14.667 17.333 -28 32 -40 44
v13h88c16.667 -10.667 33.334 -23.5 50.001 -38.5s33 -31.5 49 -49.5c16.667 18 33.5 34.5 50.5 49.5s33.833 27.833 50.5 38.5h88v-13z" />
    <glyph glyph-name="uni0162" unicode="&#x162;" horiz-adv-x="540" 
d="M338 0h-135v606h-186v108h506v-108h-185v-606zM388 -128c0 -24 -5 -44.3311 -15 -60.998s-25 -29.334 -45 -38.001s-45.333 -13 -76 -13c-14.667 0 -28.167 0.833008 -40.5 2.5s-22.5 3.5 -30.5 5.5v72c8 -2 17.5 -3.83301 28.5 -5.5s20.833 -2.5 29.5 -2.5
c14.667 0 26.334 2.5 35.001 7.5s13 14.167 13 27.5c0 14 -6.5 25.5 -19.5 34.5s-32.167 15.5 -57.5 19.5l35 79h77l-15 -39c13.333 -3.33301 26.166 -9 38.499 -17s22.5 -17.833 30.5 -29.5s12 -25.834 12 -42.501z" />
    <glyph glyph-name="uni0163" unicode="&#x163;" horiz-adv-x="392" 
d="M284 91c14.667 0 28.833 1.50098 42.5 4.50098s26.5 6.5 38.5 10.5v-94c-14 -6 -31.167 -11.167 -51.5 -15.5s-42.5 -6.5 -66.5 -6.5c-30 0 -57.167 5.16699 -81.5 15.5s-43.333 28.166 -57 53.499s-20.5 60.666 -20.5 105.999v282h-68v55l76 44l40 115h84v-119h140v-95
h-140v-281c0 -25.333 5.83301 -44.166 17.5 -56.499s27.167 -18.5 46.5 -18.5zM356.999 -127.999c0 -24 -5 -44.3311 -15 -60.998s-25 -29.334 -45 -38.001s-45.333 -13 -76 -13c-14.667 0 -28.167 0.833008 -40.5 2.5s-22.5 3.5 -30.5 5.5v72c8 -2 17.5 -3.83301 28.5 -5.5
s20.833 -2.5 29.5 -2.5c14.667 0 26.334 2.5 35.001 7.5s13 14.167 13 27.5c0 14 -6.5 25.5 -19.5 34.5s-32.167 15.5 -57.5 19.5l35 79h77l-15 -39c13.333 -3.33301 26.166 -9 38.499 -17s22.5 -17.833 30.5 -29.5s12 -25.834 12 -42.501z" />
    <glyph glyph-name="Tcaron" unicode="&#x164;" horiz-adv-x="540" 
d="M338 0h-135v606h-186v108h506v-108h-185v-606zM458 925l-39.501 -44c-15 -17.333 -29.5 -35 -43.5 -53s-25.667 -34.667 -35 -50h-141c-8 15.333 -19.167 32 -33.5 50l-43.5 53c-14.667 17.333 -28 32 -40 44v13h88c16.667 -10.667 33.334 -23.5 50.001 -38.5
s33 -31.5 49 -49.5c16.667 18 33.5 34.5 50.5 49.5s33.833 27.833 50.5 38.5h88v-13z" />
    <glyph glyph-name="tcaron" unicode="&#x165;" horiz-adv-x="392" 
d="M515 750l-20.001 -45.5c-7.33301 -17 -15.666 -34.5 -24.999 -52.5s-19.333 -35.333 -30 -52h-77v13c3.33301 9.33301 6.33301 20.333 9 33l8 39c2.66699 13.333 5 26.5 7 39.5s3.66699 24.833 5 35.5h123v-10zM283.999 91c14.667 0 28.833 1.50098 42.5 4.50098
s26.5 6.5 38.5 10.5v-94c-14 -6 -31.167 -11.167 -51.5 -15.5s-42.5 -6.5 -66.5 -6.5c-30 0 -57.167 5.16699 -81.5 15.5s-43.333 28.166 -57 53.499s-20.5 60.666 -20.5 105.999v282h-68v55l76 44l40 115h84v-119h140v-95h-140v-281
c0 -25.333 5.83301 -44.166 17.5 -56.499s27.167 -18.5 46.5 -18.5z" />
    <glyph glyph-name="Tbar" unicode="&#x166;" horiz-adv-x="540" 
d="M203 0v304h-117v105h117v196h-186v109h506v-109h-186v-196h117v-105h-117v-304h-134z" />
    <glyph glyph-name="tbar" unicode="&#x167;" horiz-adv-x="406" 
d="M29 257v85h330v-85h-330zM284 91c14.667 0 28.833 1.50098 42.5 4.50098s26.5 6.5 38.5 10.5v-94c-14 -6 -31.167 -11.167 -51.5 -15.5s-42.5 -6.5 -66.5 -6.5c-30 0 -57.167 5.16699 -81.5 15.5s-43.333 28.166 -57 53.499s-20.5 60.666 -20.5 105.999v282h-68v55l76 44
l40 115h84v-119h140v-95h-140v-281c0 -25.333 5.83301 -44.166 17.5 -56.499s27.167 -18.5 46.5 -18.5z" />
    <glyph glyph-name="Utilde" unicode="&#x168;" horiz-adv-x="703" 
d="M625 252c0 -49.333 -10.167 -93.833 -30.5 -133.5s-51 -71 -92 -94s-92.5 -34.5 -154.5 -34.5c-88 0 -155 24.167 -201 72.5s-69 112.166 -69 191.499v460h134v-447c0 -58 11.833 -100.5 35.5 -127.5s58.5 -40.5 104.5 -40.5c32.667 0 59 6.33301 79 19
s34.833 31.834 44.5 57.501s14.5 56.5 14.5 92.5v446h135v-462zM537 921c-4 -46.667 -16.1699 -82.167 -36.5029 -106.5s-45.833 -36.5 -76.5 -36.5c-13.333 0 -26.5 2.66699 -39.5 8s-25.667 11.666 -38 18.999s-24.333 13.666 -36 18.999s-22.834 8 -33.501 8
c-10 0 -18.833 -4.5 -26.5 -13.5s-13.5 -22.833 -17.5 -41.5h-66c2 24 6.16699 44.833 12.5 62.5s14.333 32.5 24 44.5s21 21 34 27s27.5 9 43.5 9c12.667 0 25.334 -2.66699 38.001 -8s25.334 -11.666 38.001 -18.999s24.834 -13.666 36.501 -18.999s22.834 -8 33.501 -8
c10 0 18.833 4.66699 26.5 14s13.5 23 17.5 41h66z" />
    <glyph glyph-name="utilde" unicode="&#x169;" horiz-adv-x="609" 
d="M536 542v-541.997h-101l-18 70h-7c-10.667 -18.667 -24.5 -33.834 -41.5 -45.501s-35.333 -20.334 -55 -26.001s-40.5 -8.5 -62.5 -8.5c-36.667 0 -68.667 7 -96 21s-48.5 35.5 -63.5 64.5s-22.5 66.5 -22.5 112.5v354h133v-329c0 -40 6.83301 -70.167 20.5 -90.5
s35.5 -30.5 65.5 -30.5s53.333 7.16699 70 21.5s28.5 35.166 35.5 62.499s10.5 61 10.5 101v265h132zM489 749.003c-4 -46.667 -16.1699 -82.167 -36.5029 -106.5s-45.833 -36.5 -76.5 -36.5c-13.333 0 -26.5 2.66699 -39.5 8s-25.667 11.666 -38 18.999
s-24.333 13.666 -36 18.999s-22.834 8 -33.501 8c-10 0 -18.833 -4.5 -26.5 -13.5s-13.5 -22.833 -17.5 -41.5h-66c2 24 6.16699 44.833 12.5 62.5s14.333 32.5 24 44.5s21 21 34 27s27.5 9 43.5 9c12.667 0 25.334 -2.66699 38.001 -8s25.334 -11.666 38.001 -18.999
s24.834 -13.666 36.501 -18.999s22.834 -8 33.501 -8c10 0 18.833 4.66699 26.5 14s13.5 23 17.5 41h66z" />
    <glyph glyph-name="Umacron" unicode="&#x16a;" horiz-adv-x="703" 
d="M625 252c0 -49.333 -10.167 -93.833 -30.5 -133.5s-51 -71 -92 -94s-92.5 -34.5 -154.5 -34.5c-88 0 -155 24.167 -201 72.5s-69 112.166 -69 191.499v460h134v-447c0 -58 11.833 -100.5 35.5 -127.5s58.5 -40.5 104.5 -40.5c32.667 0 59 6.33301 79 19
s34.833 31.834 44.5 57.501s14.5 56.5 14.5 92.5v446h135v-462zM505 869v-91h-307v91h307z" />
    <glyph glyph-name="umacron" unicode="&#x16b;" horiz-adv-x="609" 
d="M536 542v-541.997h-101l-18 70h-7c-10.667 -18.667 -24.5 -33.834 -41.5 -45.501s-35.333 -20.334 -55 -26.001s-40.5 -8.5 -62.5 -8.5c-36.667 0 -68.667 7 -96 21s-48.5 35.5 -63.5 64.5s-22.5 66.5 -22.5 112.5v354h133v-329c0 -40 6.83301 -70.167 20.5 -90.5
s35.5 -30.5 65.5 -30.5s53.333 7.16699 70 21.5s28.5 35.166 35.5 62.499s10.5 61 10.5 101v265h132zM457 697.003v-91h-307v91h307z" />
    <glyph glyph-name="Ubreve" unicode="&#x16c;" horiz-adv-x="703" 
d="M625 252c0 -49.333 -10.167 -93.833 -30.5 -133.5s-51 -71 -92 -94s-92.5 -34.5 -154.5 -34.5c-88 0 -155 24.167 -201 72.5s-69 112.166 -69 191.499v460h134v-447c0 -58 11.833 -100.5 35.5 -127.5s58.5 -40.5 104.5 -40.5c32.667 0 59 6.33301 79 19
s34.833 31.834 44.5 57.501s14.5 56.5 14.5 92.5v446h135v-462zM522 931c-2 -30 -10.166 -56.5 -24.499 -79.5s-33.833 -41 -58.5 -54s-54.334 -19.5 -89.001 -19.5c-53.333 0 -94 14 -122 42s-43.333 65 -46 111h74c2.66699 -18 8 -31.5 16 -40.5s18.667 -14.667 32 -17
s29 -3.5 47 -3.5c22.667 0 43.167 3.66699 61.5 11s29.5 24 33.5 50h76z" />
    <glyph glyph-name="ubreve" unicode="&#x16d;" horiz-adv-x="609" 
d="M536 542v-541.997h-101l-18 70h-7c-10.667 -18.667 -24.5 -33.834 -41.5 -45.501s-35.333 -20.334 -55 -26.001s-40.5 -8.5 -62.5 -8.5c-36.667 0 -68.667 7 -96 21s-48.5 35.5 -63.5 64.5s-22.5 66.5 -22.5 112.5v354h133v-329c0 -40 6.83301 -70.167 20.5 -90.5
s35.5 -30.5 65.5 -30.5s53.333 7.16699 70 21.5s28.5 35.166 35.5 62.499s10.5 61 10.5 101v265h132zM474 759.003c-2 -30 -10.166 -56.5 -24.499 -79.5s-33.833 -41 -58.5 -54s-54.334 -19.5 -89.001 -19.5c-53.333 0 -94 14 -122 42s-43.333 65 -46 111h74
c2.66699 -18 8 -31.5 16 -40.5s18.667 -14.667 32 -17s29 -3.5 47 -3.5c22.667 0 43.167 3.66699 61.5 11s29.5 24 33.5 50h76z" />
    <glyph glyph-name="Uring" unicode="&#x16e;" horiz-adv-x="703" 
d="M625 252c0 -49.333 -10.167 -93.833 -30.5 -133.5s-51 -71 -92 -94s-92.5 -34.5 -154.5 -34.5c-88 0 -155 24.167 -201 72.5s-69 112.166 -69 191.499v460h134v-447c0 -58 11.833 -100.5 35.5 -127.5s58.5 -40.5 104.5 -40.5c32.667 0 59 6.33301 79 19
s34.833 31.834 44.5 57.501s14.5 56.5 14.5 92.5v446h135v-462zM349 777c-32.667 0 -59.333 9.99902 -80 29.999s-31 47.667 -31 83c0 34.667 10.333 61.834 31 81.501s47.667 29.5 81 29.5c32 0 59.167 -9.83301 81.5 -29.5s33.5 -46.5 33.5 -80.5c0 -36 -11 -64 -33 -84
s-49.667 -30 -83 -30zM350.001 838.999c13.333 0 24.166 4.5 32.499 13.5s12.5 21.5 12.5 37.5c0 15.333 -4.16699 27.5 -12.5 36.5s-19.166 13.5 -32.499 13.5c-12.667 0 -23.334 -4.5 -32.001 -13.5s-13 -21.167 -13 -36.5c0 -16 3.83301 -28.5 11.5 -37.5
s18.834 -13.5 33.501 -13.5z" />
    <glyph glyph-name="uring" unicode="&#x16f;" horiz-adv-x="609" 
d="M536 542v-541.997h-101l-18 70h-7c-10.667 -18.667 -24.5 -33.834 -41.5 -45.501s-35.333 -20.334 -55 -26.001s-40.5 -8.5 -62.5 -8.5c-36.667 0 -68.667 7 -96 21s-48.5 35.5 -63.5 64.5s-22.5 66.5 -22.5 112.5v354h133v-329c0 -40 6.83301 -70.167 20.5 -90.5
s35.5 -30.5 65.5 -30.5s53.333 7.16699 70 21.5s28.5 35.166 35.5 62.499s10.5 61 10.5 101v265h132zM302 605.003c-32.667 0 -59.333 9.99902 -80 29.999s-31 47.667 -31 83c0 34.667 10.333 61.834 31 81.501s47.667 29.5 81 29.5c32 0 59.167 -9.83301 81.5 -29.5
s33.5 -46.5 33.5 -80.5c0 -36 -11 -64 -33 -84s-49.667 -30 -83 -30zM303.001 667.002c13.333 0 24.166 4.5 32.499 13.5s12.5 21.5 12.5 37.5c0 15.333 -4.16699 27.5 -12.5 36.5s-19.166 13.5 -32.499 13.5c-12.667 0 -23.334 -4.5 -32.001 -13.5s-13 -21.167 -13 -36.5
c0 -16 3.83301 -28.5 11.5 -37.5s18.834 -13.5 33.501 -13.5z" />
    <glyph glyph-name="Uhungarumlaut" unicode="&#x170;" horiz-adv-x="703" 
d="M625 252c0 -49.333 -10.167 -93.833 -30.5 -133.5s-51 -71 -92 -94s-92.5 -34.5 -154.5 -34.5c-88 0 -155 24.167 -201 72.5s-69 112.166 -69 191.499v460h134v-447c0 -58 11.833 -100.5 35.5 -127.5s58.5 -40.5 104.5 -40.5c32.667 0 59 6.33301 79 19
s34.833 31.834 44.5 57.501s14.5 56.5 14.5 92.5v446h135v-462zM555 928c-4.66699 -8.66699 -12.999 -19.667 -24.999 -33s-25.5 -27.333 -40.5 -42l-44.5 -41.5c-14.667 -13 -28 -24.167 -40 -33.5h-70v13l29.5 45c11 17.333 21.667 35 32 53s19.166 34.333 26.499 49h132
v-10zM369.001 928c-4.66699 -8.66699 -13.001 -19.667 -25.001 -33s-25.5 -27.333 -40.5 -42l-44.5 -41.5l-39 -33.5h-71v13c8.66699 12.667 18.334 27.667 29.001 45l32.5 53c11 18 19.833 34.333 26.5 49h132v-10z" />
    <glyph glyph-name="uhungarumlaut" unicode="&#x171;" horiz-adv-x="609" 
d="M536 542v-541.997h-101l-18 70h-7c-10.667 -18.667 -24.5 -33.834 -41.5 -45.501s-35.333 -20.334 -55 -26.001s-40.5 -8.5 -62.5 -8.5c-36.667 0 -68.667 7 -96 21s-48.5 35.5 -63.5 64.5s-22.5 66.5 -22.5 112.5v354h133v-329c0 -40 6.83301 -70.167 20.5 -90.5
s35.5 -30.5 65.5 -30.5s53.333 7.16699 70 21.5s28.5 35.166 35.5 62.499s10.5 61 10.5 101v265h132zM507 756.003c-4.66699 -8.66699 -12.999 -19.667 -24.999 -33s-25.5 -27.333 -40.5 -42l-44.5 -41.5c-14.667 -13 -28 -24.167 -40 -33.5h-70v13l29.5 45
c11 17.333 21.667 35 32 53s19.166 34.333 26.499 49h132v-10zM321.001 756.003c-4.66699 -8.66699 -13.001 -19.667 -25.001 -33s-25.5 -27.333 -40.5 -42l-44.5 -41.5l-39 -33.5h-71v13c8.66699 12.667 18.334 27.667 29.001 45l32.5 53c11 18 19.833 34.333 26.5 49h132
v-10z" />
    <glyph glyph-name="Uogonek" unicode="&#x172;" horiz-adv-x="747" 
d="M447 -103c0 -17.333 3.99805 -30.333 11.998 -39s18.333 -13 31 -13c10.667 0 20.334 1 29.001 3s16.334 3.66699 23.001 5v-75c-10.667 -2.66699 -21.5 -5 -32.5 -7s-23.833 -3 -38.5 -3c-36.667 0 -65 9.83301 -85 29.5s-30 47.5 -30 83.5
c0 22 5.16699 43.167 15.5 63.5s23.5 39 39.5 56s33 30.833 51 41.5l82 13c-22 -22 -40.167 -42.167 -54.5 -60.5s-25 -35.333 -32 -51s-10.5 -31.167 -10.5 -46.5zM624.998 252c0 -49.333 -10.167 -93.833 -30.5 -133.5s-51 -71 -92 -94s-92.5 -34.5 -154.5 -34.5
c-88 0 -155 24.167 -201 72.5s-69 112.166 -69 191.499v460h134v-447c0 -58 11.833 -100.5 35.5 -127.5s58.5 -40.5 104.5 -40.5c32.667 0 59 6.33301 79 19s34.833 31.834 44.5 57.501s14.5 56.5 14.5 92.5v446h135v-462z" />
    <glyph glyph-name="uogonek" unicode="&#x173;" horiz-adv-x="609" 
d="M536 542v-541.997h-101l-18 70h-7c-10.667 -18.667 -24.5 -33.834 -41.5 -45.501s-35.333 -20.334 -55 -26.001s-40.5 -8.5 -62.5 -8.5c-36.667 0 -68.667 7 -96 21s-48.5 35.5 -63.5 64.5s-22.5 66.5 -22.5 112.5v354h133v-329c0 -40 6.83301 -70.167 20.5 -90.5
s35.5 -30.5 65.5 -30.5s53.333 7.16699 70 21.5s28.5 35.166 35.5 62.499s10.5 61 10.5 101v265h132zM454 -112.997c0 -14 3.5 -24.501 10.5 -31.501s16.167 -10.5 27.5 -10.5c10 0 19.5 1 28.5 3s16.167 3.66699 21.5 5v-75c-9.33301 -2.66699 -19.5 -5 -30.5 -7
s-23.833 -3 -38.5 -3c-22.667 0 -42.5 4.33301 -59.5 13s-30 20.834 -39 36.501s-13.5 34.167 -13.5 55.5c0 19.333 4.16699 38 12.5 56s20 34.333 35 49s32.167 27.334 51.5 38.001l58 -16c-20.667 -21.333 -36.5 -40.833 -47.5 -58.5s-16.5 -35.834 -16.5 -54.501z" />
    <glyph glyph-name="Wcircumflex" unicode="&#x174;" horiz-adv-x="918" 
d="M909 714l-172.001 -714.001h-152l-97 410l-7.5 37l-9.5 45.5c-3.33301 15.667 -6 30.334 -8 44.001s-3.66699 23.834 -5 30.501c-0.666992 -6.66699 -2.16699 -16.834 -4.5 -30.501s-5 -28.334 -8 -44.001l-9 -46c-3 -15 -5.83301 -27.833 -8.5 -38.5l-96 -408h-152
l-172 714h134l88 -407l11.5 -59l12.5 -65.5c4 -21.667 6.66699 -40.5 8 -56.5c2.66699 16.667 6 36 10 58s8.16699 43.667 12.5 65l11.5 55l98 410h128l99 -413c4 -15.333 8.16699 -33.666 12.5 -54.999l12.5 -64c4 -21.333 7 -40 9 -56c2 16.667 4.83301 35.667 8.5 57
s7.83398 43 12.501 65s8.66699 41.667 12 59l88 407h133zM528.999 937.999c9.33301 -14.667 21 -31.168 35 -49.501s28.5 -36.166 43.5 -53.499l39.5 -45v-12h-88c-16.667 10.667 -33.5 23.5 -50.5 38.5s-33.833 31.5 -50.5 49.5c-16.667 -18 -33.167 -34.333 -49.5 -49
s-32.833 -27.667 -49.5 -39h-88v12l40 45.5l43.5 53c14.333 18.333 25.5 34.833 33.5 49.5h141z" />
    <glyph glyph-name="wcircumflex" unicode="&#x175;" horiz-adv-x="797" 
d="M428 294l-15.999 73c-5.33301 24.667 -9.33301 46 -12 64h-3c-2 -18 -5.5 -39.667 -10.5 -65s-10.5 -50.333 -16.5 -75l-73 -291h-153l-134 543h131l59 -282l10 -54c3.33301 -18 6.33301 -35.167 9 -51.5s4.66699 -30.833 6 -43.5h4c1.33301 12 3.66602 27 6.99902 45
s6.83301 35.833 10.5 53.5l8.5 41.5l72 291h145l70 -291c2.66699 -11.333 5.66699 -25.5 9 -42.5s6.5 -34.167 9.5 -51.5s4.83301 -32.333 5.5 -45h3c2 17.333 5.5 39.5 10.5 66.5s10.5 54.167 16.5 81.5l63 282h128l-137 -543h-154zM469.001 766
c9.33301 -14.667 21 -31.168 35 -49.501s28.5 -36.166 43.5 -53.499l39.5 -45v-12h-88c-16.667 10.667 -33.5 23.5 -50.5 38.5s-33.833 31.5 -50.5 49.5c-16.667 -18 -33.167 -34.333 -49.5 -49s-32.833 -27.667 -49.5 -39h-88v12l40 45.5l43.5 53
c14.333 18.333 25.5 34.833 33.5 49.5h141z" />
    <glyph glyph-name="Ycircumflex" unicode="&#x176;" horiz-adv-x="579" 
d="M290 399l144 315h145l-222 -436v-278h-134v273l-223 441h146zM360 938c9.33301 -14.667 21 -31.168 35 -49.501s28.5 -36.166 43.5 -53.499l39.5 -45v-12h-88c-16.667 10.667 -33.5 23.5 -50.5 38.5s-33.833 31.5 -50.5 49.5c-16.667 -18 -33.167 -34.333 -49.5 -49
s-32.833 -27.667 -49.5 -39h-88v12l40 45.5l43.5 53c14.333 18.333 25.5 34.833 33.5 49.5h141z" />
    <glyph glyph-name="ycircumflex" unicode="&#x177;" horiz-adv-x="528" 
d="M0 542l142.002 0.00292969l97 -306c4.66699 -12.667 8.5 -25.334 11.5 -38.001s5.66699 -25.334 8 -38.001s4.16602 -25.334 5.49902 -38.001h3c2.66699 16.667 6.16699 35 10.5 55s9.5 39.667 15.5 59l95 306h140l-215 -613c-12.667 -36 -28.5 -66.667 -47.5 -92
s-42 -44.5 -69 -57.5s-59.167 -19.5 -96.5 -19.5c-15.333 0 -28.833 0.833008 -40.5 2.5s-21.834 3.5 -30.501 5.5v100c6.66699 -1.33301 15 -2.66602 25 -3.99902s20.333 -2 31 -2c19.333 0 35.833 4.16699 49.5 12.5s25.167 19.666 34.5 33.999s16.333 30.833 21 49.5
l14 44zM334.002 766.003c9.33301 -14.667 21 -31.168 35 -49.501s28.5 -36.166 43.5 -53.499l39.5 -45v-12h-88c-16.667 10.667 -33.5 23.5 -50.5 38.5s-33.833 31.5 -50.5 49.5c-16.667 -18 -33.167 -34.333 -49.5 -49s-32.833 -27.667 -49.5 -39h-88v12l40 45.5l43.5 53
c14.333 18.333 25.5 34.833 33.5 49.5h141z" />
    <glyph glyph-name="Ydieresis" unicode="&#x178;" horiz-adv-x="579" 
d="M290 399l144 315h145l-222 -436v-278h-134v273l-223 441h146zM132 856c0 21.333 6 36.666 18 45.999s26.667 14 44 14c16 0 30.167 -4.66699 42.5 -14s18.5 -24.666 18.5 -45.999c0 -20 -6.16699 -34.833 -18.5 -44.5s-26.5 -14.5 -42.5 -14.5
c-17.333 0 -32 4.83301 -44 14.5s-18 24.5 -18 44.5zM325 856c0 21.333 6 36.666 18 45.999s26.333 14 43 14c17.333 0 32.166 -4.66699 44.499 -14s18.5 -24.666 18.5 -45.999c0 -20 -6.16699 -34.833 -18.5 -44.5s-27.166 -14.5 -44.499 -14.5
c-16.667 0 -31 4.83301 -43 14.5s-18 24.5 -18 44.5z" />
    <glyph glyph-name="Zacute" unicode="&#x179;" horiz-adv-x="551" 
d="M524 0h-495v87l323 519h-314v108h477v-87l-323 -519h332v-108zM471 928c-8.66699 -9.33301 -20 -20.667 -34 -34l-45 -42l-47 -41.5c-15.333 -13 -29 -23.833 -41 -32.5h-88v13l34.5 44.5l39 53c13 18.333 23.833 34.833 32.5 49.5h149v-10z" />
    <glyph glyph-name="zacute" unicode="&#x17a;" horiz-adv-x="459" 
d="M429 0h-400v77l242 369h-228v96h377v-85l-235 -360h244v-97zM419 756c-8.66699 -9.33301 -20 -20.667 -34 -34l-45 -42l-47 -41.5c-15.333 -13 -29 -23.833 -41 -32.5h-88v13l34.5 44.5l39 53c13 18.333 23.833 34.833 32.5 49.5h149v-10z" />
    <glyph glyph-name="Zdotaccent" unicode="&#x17b;" horiz-adv-x="551" 
d="M524 0h-495v87l323 519h-314v108h477v-87l-323 -519h332v-108zM281 923c19.333 0 36.166 -4.83301 50.499 -14.5s21.5 -26.834 21.5 -51.501c0 -24 -7.16699 -41.167 -21.5 -51.5s-31.166 -15.5 -50.499 -15.5c-20.667 0 -38 5.16699 -52 15.5s-21 27.5 -21 51.5
c0 24.667 7 41.834 21 51.501s31.333 14.5 52 14.5z" />
    <glyph glyph-name="zdotaccent" unicode="&#x17c;" horiz-adv-x="459" 
d="M429 0h-400v77l242 369h-228v96h377v-85l-235 -360h244v-97zM229 751c19.333 0 36.166 -4.83301 50.499 -14.5s21.5 -26.834 21.5 -51.501c0 -24 -7.16699 -41.167 -21.5 -51.5s-31.166 -15.5 -50.499 -15.5c-20.667 0 -38 5.16699 -52 15.5s-21 27.5 -21 51.5
c0 24.667 7 41.834 21 51.501s31.333 14.5 52 14.5z" />
    <glyph glyph-name="Zcaron" unicode="&#x17d;" horiz-adv-x="551" 
d="M524 0h-495v87l323 519h-314v108h477v-87l-323 -519h332v-108zM469 925l-39.501 -44c-15 -17.333 -29.5 -35 -43.5 -53s-25.667 -34.667 -35 -50h-141c-8 15.333 -19.167 32 -33.5 50l-43.5 53c-14.667 17.333 -28 32 -40 44v13h88
c16.667 -10.667 33.334 -23.5 50.001 -38.5s33 -31.5 49 -49.5c16.667 18 33.5 34.5 50.5 49.5s33.833 27.833 50.5 38.5h88v-13z" />
    <glyph glyph-name="zcaron" unicode="&#x17e;" horiz-adv-x="459" 
d="M429 0h-400v77l242 369h-228v96h377v-85l-235 -360h244v-97zM417 753l-39.501 -44c-15 -17.333 -29.5 -35 -43.5 -53s-25.667 -34.667 -35 -50h-141c-8 15.333 -19.167 32 -33.5 50l-43.5 53c-14.667 17.333 -28 32 -40 44v13h88
c16.667 -10.667 33.334 -23.5 50.001 -38.5s33 -31.5 49 -49.5c16.667 18 33.5 34.5 50.5 49.5s33.833 27.833 50.5 38.5h88v-13z" />
    <glyph glyph-name="longs" unicode="&#x17f;" horiz-adv-x="347" 
d="M269 664c-22.667 0 -39 -7.16699 -49 -21.5s-15 -35.5 -15 -63.5v-579h-133v583c0 46 7.33301 82.167 22 108.5s35.5 45.166 62.5 56.499s58.5 17 94.5 17c27.333 0 50.833 -2.16699 70.5 -6.5s36.5 -9.16602 50.5 -14.499l-29 -94c-10.667 3.33301 -22 6.5 -34 9.5
s-25.333 4.5 -40 4.5z" />
    <glyph glyph-name="uni0180" unicode="&#x180;" horiz-adv-x="594" 
d="M352 -10c-25.333 0 -47.167 3.33008 -65.5 9.99707s-33.833 15.667 -46.5 27s-23.334 23.333 -32.001 36h-9l-23 -63h-102v592h-71v85h71v83h134v-83h154v-85h-154v-20c0 -20 -0.5 -39 -1.5 -57s-2.5 -34.667 -4.5 -50h6c12.667 22.667 30.834 41.834 54.501 57.501
s54.167 23.5 91.5 23.5c38.667 0 72.667 -9.66699 102 -29s52.333 -49.166 69 -89.499s25 -92.166 25 -155.499c0 -62 -8.33301 -114 -25 -156s-40 -73.5 -70 -94.5s-64.333 -31.5 -103 -31.5zM315.999 92.9971c30.667 0 54.833 15.499 72.5 46.499s26.5 75.5 26.5 133.5
c0 58.667 -8.83301 101.834 -26.5 129.501s-42.5 41.5 -74.5 41.5c-23.333 0 -42.833 -6 -58.5 -18s-27.5 -30.333 -35.5 -55s-12 -56 -12 -94v-5c0 -58 7.5 -102.333 22.5 -133s43.5 -46 85.5 -46z" />
    <glyph glyph-name="uni0181" unicode="&#x181;" horiz-adv-x="736" 
d="M193 0v608.002h-25c-18 0 -31.333 -5.16699 -40 -15.5s-13 -23.166 -13 -38.499c0 -11.333 1.16699 -21.333 3.5 -30s4.5 -15.334 6.5 -20.001h-108c-2.66699 6 -5.16699 14.167 -7.5 24.5s-3.5 21.166 -3.5 32.499c0 29.333 5.33301 55.666 16 78.999
s28.167 41.5 52.5 54.5s56.5 19.5 96.5 19.5h228c58.667 0 108 -5.83301 148 -17.5s70.167 -30.5 90.5 -56.5s30.5 -61 30.5 -105c0 -41.333 -9.16699 -76 -27.5 -104s-44.5 -45.333 -78.5 -52v-5c22.667 -4.66699 43.5 -13.167 62.5 -25.5s34.167 -30 45.5 -53
s17 -53.167 17 -90.5c0 -43.333 -9.83301 -80.333 -29.5 -111s-47.5 -54 -83.5 -70s-79.333 -24 -130 -24h-251zM426 107.002c46 0 77.5 10.002 94.5 30.002s25.5 46.667 25.5 80c0 21.333 -3.66699 39.666 -11 54.999s-20 27.166 -38 35.499s-43 12.5 -75 12.5h-94v-213h98
zM416 423.004c44 0 74 8 90 24s24 39.667 24 71c0 32 -9.83301 55 -29.5 69s-51.167 21 -94.5 21h-78v-185h88z" />
    </font>
</defs>
</svg>
